<svg clip-rule="evenodd" fill-rule="evenodd" stroke-linejoin="round" stroke-miterlimit="2" viewBox="0 0 79 79" xmlns="http://www.w3.org/2000/svg"><g fill="#1995a7" fill-rule="nonzero" transform="translate(9.5)"><path d="m30.22.755c-5.415 0-9.927 4.512-9.927 9.927 0 2.346.902 4.512 2.166 6.136l-1.444 5.595 5.234-2.707c1.263.542 2.527.722 3.971.722h19.853c5.415 0 9.927-4.512 9.927-9.927 0-5.414-4.512-9.927-9.927-9.927 0 .181-19.853.181-19.853.181z"/><path d="m14.878 22.594h-8.302c-3.249 0-5.776 2.527-5.776 5.775v50.357h14.078c3.249 0 5.776-2.527 5.776-5.776v-12.273h19.853v-14.078c0-3.249-2.526-5.776-5.775-5.776h-14.078v-18.049h-5.776z"/></g></svg>