<svg width="354" height="472" viewBox="0 0 354 472" fill="none" xmlns="http://www.w3.org/2000/svg">
<path d="M8.44067 363.956L5.02166 366.199C4.59429 366.199 4.16691 366.199 3.73954 366.199L0.320532 364.405C-0.106844 363.956 -0.106844 363.508 0.320532 363.06L3.73954 360.817C4.16691 360.817 4.59429 360.817 5.02166 360.817L8.44067 363.06C8.86804 363.508 8.86804 363.956 8.44067 363.956Z" fill="black"/>
<path d="M16.9883 369.338L13.5693 371.58C13.1419 371.58 12.7145 371.58 12.2871 371.58L8.86814 369.786C8.44076 369.338 8.44076 369.338 8.86814 368.889L12.2871 366.647C12.7145 366.647 13.1419 366.647 13.5693 366.647L16.9883 368.441C17.4156 368.441 17.4156 368.889 16.9883 369.338Z" fill="black"/>
<path d="M16.561 379.203L13.142 381.446C12.7146 381.446 12.2873 381.446 11.8599 381.446L8.44089 379.203C8.01352 378.755 8.01352 378.755 8.44089 378.307L11.8599 376.513C12.2873 376.513 12.7146 376.513 13.142 376.513L16.561 378.307C16.9884 378.755 16.9884 379.203 16.561 379.203Z" fill="black"/>
<path d="M25.1081 374.271L21.6891 376.513C21.2618 376.513 20.8344 376.513 20.407 376.513L16.988 374.271C16.5606 373.822 16.5606 373.822 16.988 373.374L20.407 371.131C20.8344 371.131 21.2618 371.131 21.6891 371.131L25.1081 372.925C25.1081 373.374 25.5355 373.822 25.1081 374.271Z" fill="black"/>
<path d="M24.6809 384.136L21.2619 386.378C20.8345 386.378 20.4071 386.378 19.9798 386.378L16.5608 384.585C16.1334 384.136 16.1334 384.136 16.5608 383.688L19.9798 381.446C20.4071 381.446 20.8345 381.446 21.2619 381.446L24.6809 383.239C24.6809 383.688 25.1083 384.136 24.6809 384.136Z" fill="black"/>
<path d="M33.2285 379.203L29.8095 380.997C29.3821 380.997 28.9548 380.997 28.5274 380.997L25.1084 379.203C24.681 378.755 24.681 378.755 25.1084 378.306L28.5274 376.064C28.9548 376.064 29.3821 376.064 29.8095 376.064L33.2285 377.858C33.2285 378.306 33.2285 378.755 33.2285 379.203Z" fill="black"/>
<path d="M33.2285 389.517L29.8095 391.311C29.3821 391.311 28.9548 391.311 28.5274 391.311L25.1084 389.517C24.681 389.069 24.681 389.069 25.1084 388.62L28.5274 386.378C28.9548 386.378 29.3821 386.378 29.8095 386.378L33.2285 388.172C33.2285 388.62 33.6559 389.069 33.2285 389.517Z" fill="black"/>
<path d="M41.7756 384.136L38.3566 386.378C37.9292 386.378 37.5019 386.378 37.0745 386.378L33.6555 384.585C33.2281 384.136 33.2281 384.136 33.6555 383.688L37.0745 381.446C37.5019 381.446 37.9292 381.446 38.3566 381.446L41.7756 383.239C41.7756 383.688 41.7756 384.136 41.7756 384.136Z" fill="black"/>
<path d="M49.8957 389.069L46.4767 391.311C46.0494 391.311 45.622 391.311 45.1946 391.311L41.7756 389.517C41.3482 389.069 41.3482 389.069 41.7756 388.62L45.1946 386.378C45.622 386.378 46.0494 386.378 46.4767 386.378L49.8957 388.172C49.8957 388.62 49.8957 389.069 49.8957 389.069Z" fill="black"/>
<path d="M57.5886 394.002L54.1696 396.244C53.7422 396.244 53.3149 396.244 52.8875 396.244L49.4685 394.45C49.0411 394.002 49.0411 394.002 49.4685 393.553L52.8875 391.311C53.3149 391.311 53.7422 391.311 54.1696 391.311L57.5886 393.105C58.016 393.553 58.016 394.002 57.5886 394.002Z" fill="black"/>
<path d="M58.0161 404.316L54.5971 406.558C54.1697 406.558 53.7423 406.558 53.315 406.558L49.896 404.764C49.4686 404.316 49.4686 404.316 49.896 403.867L53.315 401.625C53.7423 401.625 54.1697 401.625 54.5971 401.625L58.0161 403.419C58.0161 403.867 58.0161 404.316 58.0161 404.316Z" fill="black"/>
<path d="M66.136 399.383L62.717 401.625C62.2896 401.625 61.8622 401.625 61.4348 401.625L58.0158 399.831C57.5885 399.383 57.5885 399.383 58.0158 398.935L61.4348 396.692C61.8622 396.692 62.2896 396.692 62.717 396.692L66.136 398.486C66.5634 398.486 66.5634 398.935 66.136 399.383Z" fill="black"/>
<path d="M57.5886 414.181L54.1696 416.423C53.7422 416.423 53.3149 416.423 52.8875 416.423L49.4685 414.63C49.0411 414.181 49.0411 414.181 49.4685 413.733L52.8875 411.491C53.3149 411.491 53.7422 411.491 54.1696 411.491L57.5886 413.284C57.5886 413.733 57.5886 414.181 57.5886 414.181Z" fill="black"/>
<path d="M65.709 409.248L62.29 411.491C61.8626 411.491 61.4352 411.491 61.0078 411.491L57.5888 409.697C57.1615 409.248 57.1615 409.248 57.5888 408.8L61.0078 406.558C61.4352 406.558 61.8626 406.558 62.29 406.558L65.709 408.351C66.1363 408.8 66.1363 408.8 65.709 409.248Z" fill="black"/>
<path d="M74.2563 403.867L70.8373 406.11C70.41 406.11 69.9826 406.11 69.5552 406.11L66.1362 404.316C65.7088 403.867 65.7088 403.867 66.1362 403.419L69.5552 401.177C69.9826 401.177 70.41 401.177 70.8373 401.177L74.2563 402.971C74.6837 403.419 74.6837 403.867 74.2563 403.867Z" fill="black"/>
<path d="M65.2815 419.114L61.8625 421.356C61.4351 421.356 61.0077 421.356 60.5804 421.356L57.1614 419.562C56.734 419.114 56.734 419.114 57.1614 418.666L60.5804 416.423C61.0077 416.423 61.4351 416.423 61.8625 416.423L65.2815 418.217C65.7089 418.666 65.7089 419.114 65.2815 419.114Z" fill="black"/>
<path d="M73.8288 414.181L70.4098 416.423C69.9825 416.423 69.5551 416.423 69.1277 416.423L65.7087 414.63C65.2813 414.181 65.2813 414.181 65.7087 413.733L69.1277 411.491C69.5551 411.491 69.9825 411.491 70.4098 411.491L73.8288 413.284C74.2562 413.733 74.2562 413.733 73.8288 414.181Z" fill="black"/>
<path d="M82.3765 408.8L78.9575 411.042C78.5301 411.042 78.1027 411.042 77.6753 411.042L74.2563 409.249C73.8289 408.8 73.8289 408.8 74.2563 408.352L77.6753 406.109C78.1027 406.109 78.5301 406.109 78.9575 406.109L82.3765 407.903C82.8038 408.352 82.8038 408.8 82.3765 408.8Z" fill="black"/>
<path d="M73.8288 424.495L70.4098 426.738C69.9825 426.738 69.5551 426.738 69.1277 426.738L65.7087 424.944C65.2813 424.495 65.2813 424.495 65.7087 424.047L69.1277 421.805C69.5551 421.805 69.9825 421.805 70.4098 421.805L73.8288 423.599C74.2562 424.047 74.2562 424.047 73.8288 424.495Z" fill="black"/>
<path d="M82.3765 419.114L78.9575 421.356C78.5301 421.356 78.1027 421.356 77.6753 421.356L74.2563 419.562C73.8289 419.114 73.8289 419.114 74.2563 418.666L77.6753 416.423C78.1027 416.423 78.5301 416.423 78.9575 416.423L82.3765 418.217C82.8038 418.666 82.8038 419.114 82.3765 419.114Z" fill="black"/>
<path d="M90.9241 414.181L87.5051 416.423C87.0777 416.423 86.6503 416.423 86.2229 416.423L82.8039 414.63C82.3766 414.181 82.3766 414.181 82.8039 413.733L86.2229 411.491C86.6503 411.491 87.0777 411.491 87.5051 411.491L90.9241 413.284C91.3514 413.733 91.3514 413.733 90.9241 414.181Z" fill="black"/>
<path d="M81.9492 429.428L78.5302 431.67C78.1028 431.67 77.6755 431.67 77.2481 431.67L73.8291 429.877C73.4017 429.428 73.4017 429.428 73.8291 428.98L77.2481 426.738C77.6755 426.738 78.1028 426.738 78.5302 426.738L81.9492 428.531C82.3766 428.98 82.3766 428.98 81.9492 429.428Z" fill="black"/>
<path d="M90.4966 424.047L87.0776 426.289C86.6502 426.289 86.2228 426.289 85.7954 426.289L82.3764 424.495C81.9491 424.047 81.9491 424.047 82.3764 423.598L85.7954 421.356C86.2228 421.356 86.6502 421.356 87.0776 421.356L90.4966 423.15C90.924 423.598 90.924 424.047 90.4966 424.047Z" fill="black"/>
<path d="M99.0444 419.114L95.6254 421.356C95.198 421.356 94.7707 421.356 94.3433 421.356L90.9243 419.562C90.4969 419.114 90.4969 419.114 90.9243 418.666L94.3433 416.423C94.7707 416.423 95.198 416.423 95.6254 416.423L99.0444 418.217C99.4718 418.666 99.4718 418.666 99.0444 419.114Z" fill="black"/>
<path d="M98.6169 428.98L95.1979 431.222C94.7705 431.222 94.3432 431.222 93.9158 431.222L90.4968 429.428C90.0694 428.98 90.0694 428.98 90.4968 428.531L93.9158 426.289C94.3432 426.289 94.7705 426.289 95.1979 426.289L98.6169 428.083C99.0443 428.531 99.0443 428.98 98.6169 428.98Z" fill="black"/>
<path d="M107.165 424.047L103.746 425.84C103.318 425.84 102.891 425.84 102.463 425.84L99.0444 424.047C98.617 423.598 98.617 423.598 99.0444 423.15L102.463 420.908C102.891 420.908 103.318 420.908 103.746 420.908L107.165 422.702C107.592 423.15 107.592 423.598 107.165 424.047Z" fill="black"/>
<path d="M107.165 434.361L103.746 436.603C103.318 436.603 102.891 436.603 102.463 436.603L99.0444 434.81C98.617 434.361 98.617 434.361 99.0444 433.913L102.463 431.671C102.891 431.671 103.318 431.671 103.746 431.671L107.165 433.464C107.592 433.464 107.592 433.913 107.165 434.361Z" fill="black"/>
<path d="M115.712 428.98L112.293 431.222C111.865 431.222 111.438 431.222 111.011 431.222L107.592 429.428C107.164 428.98 107.164 428.98 107.592 428.531L111.011 426.289C111.438 426.289 111.865 426.289 112.293 426.289L115.712 428.083C116.139 428.531 116.139 428.98 115.712 428.98Z" fill="black"/>
<path d="M106.737 444.227L103.318 446.469C102.891 446.469 102.463 446.469 102.036 446.469L98.6169 444.675C98.1895 444.227 98.1895 444.227 98.6169 443.778L102.036 441.536C102.463 441.536 102.891 441.536 103.318 441.536L106.737 443.33C107.164 443.778 107.164 444.227 106.737 444.227Z" fill="black"/>
<path d="M115.284 439.294L111.865 441.536C111.438 441.536 111.011 441.536 110.583 441.536L107.164 439.294C106.737 438.845 106.737 438.845 107.164 438.397L110.583 436.155C111.011 436.155 111.438 436.155 111.865 436.155L115.284 437.949C115.712 438.397 115.712 438.845 115.284 439.294Z" fill="black"/>
<path d="M123.832 433.912L120.413 436.155C119.986 436.155 119.558 436.155 119.131 436.155L115.712 434.361C115.285 433.912 115.285 433.912 115.712 433.464L119.131 431.222C119.558 431.222 119.986 431.222 120.413 431.222L123.832 433.015C124.259 433.464 124.259 433.912 123.832 433.912Z" fill="black"/>
<path d="M114.857 449.159L111.438 451.402C111.01 451.402 110.583 451.402 110.156 451.402L106.737 449.608C106.309 449.159 106.309 449.159 106.737 448.711L110.156 446.469C110.583 446.469 111.01 446.469 111.438 446.469L114.857 448.263C115.284 448.711 115.284 449.159 114.857 449.159Z" fill="black"/>
<path d="M123.405 444.227L119.986 446.469C119.558 446.469 119.131 446.469 118.704 446.469L115.285 444.227C114.857 443.778 114.857 443.778 115.285 443.33L118.704 441.088C119.131 441.088 119.558 441.088 119.986 441.088L123.405 442.881C123.832 443.33 123.832 443.778 123.405 444.227Z" fill="black"/>
<path d="M131.952 438.845L128.533 441.088C128.106 441.088 127.678 441.088 127.251 441.088L123.832 438.845C123.405 438.397 123.405 438.397 123.832 437.948L127.251 435.706C127.678 435.706 128.106 435.706 128.533 435.706L131.952 437.5C132.379 438.397 132.379 438.845 131.952 438.845Z" fill="black"/>
<path d="M123.405 454.541L119.986 456.783C119.558 456.783 119.131 456.783 118.704 456.783L115.285 454.989C114.857 454.541 114.857 454.541 115.285 454.092L118.704 451.85C119.131 451.85 119.558 451.85 119.986 451.85L123.405 453.644C123.832 453.644 123.832 454.092 123.405 454.541Z" fill="black"/>
<path d="M131.952 449.159L128.533 451.402C128.106 451.402 127.678 451.402 127.251 451.402L123.832 449.608C123.405 449.159 123.405 449.159 123.832 448.711L127.251 446.469C127.678 446.469 128.106 446.469 128.533 446.469L131.952 448.263C132.379 448.711 132.379 449.159 131.952 449.159Z" fill="black"/>
<path d="M140.5 444.227L137.081 446.469C136.653 446.469 136.226 446.469 135.799 446.469L132.38 444.227C131.952 443.778 131.952 443.778 132.38 443.33L135.799 441.088C136.226 441.088 136.653 441.088 137.081 441.088L140.5 442.881C140.927 443.33 140.927 443.778 140.5 444.227Z" fill="black"/>
<path d="M131.524 459.473L128.105 461.715C127.678 461.715 127.251 461.715 126.823 461.715L123.404 459.922C122.977 459.473 122.977 459.473 123.404 459.025L126.823 456.783C127.251 456.783 127.678 456.783 128.105 456.783L131.524 458.576C131.952 458.576 131.952 459.025 131.524 459.473Z" fill="black"/>
<path d="M140.072 454.092L136.653 456.334C136.226 456.334 135.798 456.334 135.371 456.334L131.952 454.541C131.525 454.092 131.525 454.092 131.952 453.644L135.371 451.401C135.798 451.401 136.226 451.401 136.653 451.401L140.072 453.195C140.499 453.644 140.499 454.092 140.072 454.092Z" fill="black"/>
<path d="M148.62 449.159L145.201 451.402C144.773 451.402 144.346 451.402 143.919 451.402L140.5 449.608C140.072 449.159 140.072 449.159 140.5 448.711L143.919 446.469C144.346 446.469 144.773 446.469 145.201 446.469L148.62 448.263C148.62 448.263 149.047 448.711 148.62 449.159Z" fill="black"/>
<path d="M139.645 463.958L136.226 466.2C135.799 466.2 135.371 466.2 134.944 466.2L131.525 464.406C131.098 463.958 131.098 463.958 131.525 463.509L134.944 461.267C135.371 461.267 135.799 461.267 136.226 461.267L139.645 463.061C140.072 463.509 140.072 463.958 139.645 463.958Z" fill="black"/>
<path d="M148.193 459.025L144.774 461.267C144.346 461.267 143.919 461.267 143.491 461.267L140.072 459.473C139.645 459.025 139.645 459.025 140.072 458.577L143.491 456.334C143.919 456.334 144.346 456.334 144.774 456.334L148.193 458.128C148.193 458.577 148.62 459.025 148.193 459.025Z" fill="black"/>
<path d="M156.74 453.644L153.321 455.886C152.894 455.886 152.466 455.886 152.039 455.886L148.62 454.092C148.192 453.644 148.192 453.644 148.62 453.195L152.039 450.953C152.466 450.953 152.894 450.953 153.321 450.953L156.74 452.747C156.74 453.195 157.167 453.644 156.74 453.644Z" fill="black"/>
<path d="M148.193 469.339L144.774 471.581C144.346 471.581 143.919 471.581 143.491 471.581L140.072 469.788C139.645 469.339 139.645 469.339 140.072 468.891L143.491 466.649C143.919 466.649 144.346 466.649 144.774 466.649L148.193 468.442C148.62 468.891 148.62 469.339 148.193 469.339Z" fill="black"/>
<path d="M156.74 464.406L153.321 466.648C152.894 466.648 152.466 466.648 152.039 466.648L148.62 464.855C148.192 464.406 148.192 464.406 148.62 463.958L152.039 461.716C152.466 461.716 152.894 461.716 153.321 461.716L156.74 463.509C156.74 463.509 157.167 463.958 156.74 464.406Z" fill="black"/>
<path d="M165.287 459.025L161.868 461.267C161.441 461.267 161.014 461.267 160.586 461.267L157.167 459.473C156.74 459.025 156.74 459.025 157.167 458.577L160.586 456.334C161.014 456.334 161.441 456.334 161.868 456.334L165.287 458.128C165.287 458.577 165.715 459.025 165.287 459.025Z" fill="black"/>
<path d="M164.86 468.891L161.441 471.133C161.013 471.133 160.586 471.133 160.159 471.133L156.74 469.339C156.312 468.891 156.312 468.891 156.74 468.442L160.159 466.2C160.586 466.2 161.013 466.2 161.441 466.2L164.86 467.994C164.86 468.442 164.86 468.891 164.86 468.891Z" fill="black"/>
<path d="M173.407 463.958L169.988 466.2C169.561 466.2 169.133 466.2 168.706 466.2L165.287 464.406C164.859 463.958 164.859 463.958 165.287 463.509L168.706 461.267C169.133 461.267 169.561 461.267 169.988 461.267L173.407 463.061C173.407 463.509 173.407 463.509 173.407 463.958Z" fill="black"/>
<path d="M17.4153 348.71L13.9963 350.952C13.5689 350.952 13.1415 350.952 12.7141 350.952L9.29514 349.158C8.86777 348.71 8.86777 348.71 9.29514 348.261L12.7141 346.019C13.1415 346.019 13.5689 346.019 13.9963 346.019L16.9879 348.261C17.4153 348.261 17.4153 348.71 17.4153 348.71Z" fill="black"/>
<path d="M8.8679 354.091L5.4489 356.333C5.02153 356.333 4.59415 356.333 4.16678 356.333L0.747777 354.091C0.320402 353.643 0.320402 353.643 0.747777 353.194L4.16678 350.952C4.59415 350.952 5.02153 350.952 5.4489 350.952L8.8679 352.746C8.8679 353.643 9.29528 353.643 8.8679 354.091Z" fill="black"/>
<path d="M25.5356 353.643L22.1166 355.885C21.6893 355.885 21.2619 355.885 20.8345 355.885L17.4155 354.091C16.9881 353.643 16.9881 353.643 17.4155 353.194L20.8345 350.952C21.2619 350.952 21.6893 350.952 22.1166 350.952L25.5356 352.746C25.5356 353.194 25.5356 353.643 25.5356 353.643Z" fill="black"/>
<path d="M16.9879 359.024L13.5689 361.266C13.1416 361.266 12.7142 361.266 12.2868 361.266L8.8678 359.472C8.44043 358.575 8.44043 358.575 8.44043 358.127L11.8594 355.885C12.2868 355.885 12.7142 355.885 13.1416 355.885L16.5606 357.678C16.9879 358.127 16.9879 358.575 16.9879 359.024Z" fill="black"/>
<path d="M34.0832 359.024L30.6642 361.266C30.2368 361.266 29.8094 361.266 29.382 361.266L25.963 359.472C25.5357 358.575 25.1083 358.575 25.5357 358.127L28.9547 355.885C29.382 355.885 29.8094 355.885 30.2368 355.885L33.6558 357.678C34.0832 358.575 34.0832 358.575 34.0832 359.024Z" fill="black"/>
<path d="M25.5355 363.956L22.1165 366.198C21.6892 366.198 21.2618 366.198 20.8344 366.198L17.4154 364.405C16.988 363.956 16.988 363.508 16.988 363.508L20.407 361.266C20.8344 361.266 21.2618 361.266 21.6892 361.266L25.1082 363.059C25.5355 363.508 25.5355 363.956 25.5355 363.956Z" fill="black"/>
<path d="M41.7756 363.956L38.3566 365.75C37.9292 365.75 37.5019 365.75 37.0745 365.75L33.6555 363.956C33.2281 363.508 33.2281 363.508 33.6555 363.06L37.0745 360.817C37.5019 360.817 37.9292 360.817 38.3566 360.817L41.7756 363.06C42.203 363.06 42.203 363.508 41.7756 363.956Z" fill="black"/>
<path d="M33.656 368.889L29.8096 371.131C29.3822 371.131 28.9549 371.131 28.5275 371.131L25.5359 368.889C25.1085 368.441 25.1085 368.441 25.5359 367.992L28.9549 365.75C29.3822 365.75 29.8096 365.75 30.237 365.75L33.656 367.544C33.656 368.441 33.656 368.889 33.656 368.889Z" fill="black"/>
<path d="M49.8957 368.889L46.4767 371.131C46.0494 371.131 45.622 371.131 45.1946 371.131L41.7756 369.338C41.3482 368.889 41.3482 368.889 41.7756 368.441L45.1946 366.199C45.622 366.199 46.0494 366.199 46.4767 366.199L49.8957 367.992C50.3231 367.992 50.3231 368.441 49.8957 368.889Z" fill="black"/>
<path d="M41.3481 373.822L37.9291 376.064C37.5018 376.064 37.0744 376.064 36.647 376.064L33.228 374.27C32.8006 373.822 32.8006 373.822 33.228 373.374L36.647 371.131C37.0744 371.131 37.5018 371.131 37.9291 371.131L41.3481 372.925C41.7755 373.374 41.7755 373.822 41.3481 373.822Z" fill="black"/>
<path d="M58.4436 373.822L55.0246 376.064C54.5972 376.064 54.1698 376.064 53.7425 376.064L50.3235 374.27C49.8961 373.822 49.8961 373.822 50.3235 373.374L53.7425 371.131C54.1698 371.131 54.5972 371.131 55.0246 371.131L58.4436 372.925C58.8709 373.374 58.8709 373.822 58.4436 373.822Z" fill="black"/>
<path d="M49.8957 379.203L46.4767 380.997C46.0494 380.997 45.622 380.997 45.1946 380.997L41.7756 379.203C41.3482 378.755 41.3482 378.755 41.7756 378.306L45.1946 376.064C45.622 376.064 46.0494 376.064 46.4767 376.064L49.8957 377.858C50.3231 378.306 50.3231 378.755 49.8957 379.203Z" fill="black"/>
<path d="M66.5635 378.755L63.1445 380.997C62.7171 380.997 62.2897 380.997 61.8623 380.997L58.4433 379.203C58.016 378.755 58.016 378.755 58.4433 378.306L61.8623 376.064C62.2897 376.064 62.7171 376.064 63.1445 376.064L66.5635 377.858C66.9908 378.306 66.9908 378.755 66.5635 378.755Z" fill="black"/>
<path d="M58.0161 384.136L54.5971 386.378C54.1697 386.378 53.7424 386.378 53.315 386.378L49.896 384.585C49.4686 384.136 49.4686 384.136 49.896 383.688L53.315 381.446C53.7424 381.446 54.1697 381.446 54.5971 381.446L58.0161 383.239C58.4435 383.239 58.4435 383.688 58.0161 384.136Z" fill="black"/>
<path d="M75.1111 373.822L71.6921 376.064C71.2647 376.064 70.8373 376.064 70.4099 376.064L66.9909 374.27C66.5636 373.822 66.5636 373.822 66.9909 373.374L70.4099 371.131C70.8373 371.131 71.2647 371.131 71.6921 371.131L75.1111 372.925C75.5384 372.925 75.5384 373.374 75.1111 373.822Z" fill="black"/>
<path d="M74.6841 383.688L71.2651 385.93C70.8377 385.93 70.4103 385.93 69.9829 385.93L66.5639 384.136C66.1366 383.688 66.1366 383.688 66.5639 383.239L69.9829 380.997C70.4103 380.997 70.8377 380.997 71.2651 380.997L74.6841 382.791C75.1114 383.239 75.1114 383.688 74.6841 383.688Z" fill="black"/>
<path d="M66.136 389.069L62.717 391.311C62.2896 391.311 61.8622 391.311 61.4348 391.311L58.0158 389.517C57.5885 389.069 57.5885 389.069 58.0158 388.62L61.4348 386.378C61.8622 386.378 62.2896 386.378 62.717 386.378L66.136 388.172C66.5634 388.172 66.5634 388.62 66.136 389.069Z" fill="black"/>
<path d="M83.2314 378.755L79.8124 380.997C79.3851 380.997 78.9577 380.997 78.5303 380.997L75.1113 379.203C74.6839 378.755 74.6839 378.755 75.1113 378.306L78.5303 376.064C78.9577 376.064 79.3851 376.064 79.8124 376.064L83.2314 377.858C83.6588 377.858 83.6588 378.306 83.2314 378.755Z" fill="black"/>
<path d="M91.7788 373.374L88.3598 375.616C87.9324 375.616 87.505 375.616 87.0777 375.616L83.6587 373.822C83.2313 373.374 83.2313 373.374 83.6587 372.925L87.0777 370.683C87.505 370.683 87.9324 370.683 88.3598 370.683L91.7788 372.477C92.2062 372.925 92.2062 373.374 91.7788 373.374Z" fill="black"/>
<path d="M83.2314 389.069L79.8124 391.311C79.3851 391.311 78.9577 391.311 78.5303 391.311L75.1113 389.517C74.6839 389.069 74.6839 389.069 75.1113 388.62L78.5303 386.378C78.9577 386.378 79.3851 386.378 79.8124 386.378L83.2314 388.172C83.6588 388.172 83.6588 388.62 83.2314 389.069Z" fill="black"/>
<path d="M74.6841 394.002L71.2651 396.244C70.8377 396.244 70.4103 396.244 69.9829 396.244L66.5639 394.45C66.1366 394.002 66.1366 394.002 66.5639 393.553L69.9829 391.311C70.4103 391.311 70.8377 391.311 71.2651 391.311L74.6841 393.105C75.1114 393.553 75.1114 394.002 74.6841 394.002Z" fill="black"/>
<path d="M91.7788 383.688L88.3598 385.93C87.9324 385.93 87.505 385.93 87.0777 385.93L83.6587 384.136C83.2313 383.688 83.2313 383.688 83.6587 383.239L87.0777 380.997C87.505 380.997 87.9324 380.997 88.3598 380.997L91.7788 382.791C92.2062 383.239 92.2062 383.688 91.7788 383.688Z" fill="black"/>
<path d="M100.326 378.755L96.9069 380.997C96.4795 380.997 96.0522 380.997 95.6248 380.997L92.2058 379.203C91.7784 378.755 91.7784 378.755 92.2058 378.306L95.6248 376.064C96.0522 376.064 96.4795 376.064 96.9069 376.064L100.326 377.858C100.753 377.858 100.753 378.306 100.326 378.755Z" fill="black"/>
<path d="M91.3518 394.002L87.9328 396.244C87.5054 396.244 87.078 396.244 86.6507 396.244L83.2317 394.45C82.8043 394.002 82.8043 394.002 83.2317 393.553L86.6507 391.311C87.078 391.311 87.5054 391.311 87.9328 391.311L91.3518 393.105C91.7792 393.105 91.7792 393.553 91.3518 394.002Z" fill="black"/>
<path d="M82.8037 398.935L79.3847 401.177C78.9573 401.177 78.5299 401.177 78.1026 401.177L74.6836 398.935C74.2562 398.486 74.2562 398.486 74.6836 398.038L78.1026 395.796C78.5299 395.796 78.9573 395.796 79.3847 395.796L82.8037 397.589C83.2311 398.486 83.2311 398.935 82.8037 398.935Z" fill="black"/>
<path d="M99.8992 388.621L96.4802 390.863C96.0528 390.863 95.6254 390.863 95.198 390.863L91.779 389.069C91.3517 388.621 91.3517 388.621 91.779 388.172L95.198 385.93C95.6254 385.93 96.0528 385.93 96.4802 385.93L99.8992 387.724C100.327 388.172 100.327 388.621 99.8992 388.621Z" fill="black"/>
<path d="M108.447 383.688L105.028 385.482C104.6 385.482 104.173 385.482 103.745 385.482L100.326 383.688C99.899 383.239 99.899 383.239 100.326 382.791L103.745 380.549C104.173 380.549 104.6 380.549 105.028 380.549L108.447 382.342C108.874 382.791 108.874 383.239 108.447 383.688Z" fill="black"/>
<path d="M99.4717 398.486L96.0527 400.728C95.6253 400.728 95.1979 400.728 94.7705 400.728L91.3515 398.935C90.9242 398.486 90.9242 398.486 91.3515 398.038L94.7705 395.796C95.1979 395.796 95.6253 395.796 96.0527 395.796L99.4717 397.589C99.899 398.038 99.899 398.486 99.4717 398.486Z" fill="black"/>
<path d="M90.9241 403.867L87.5051 406.11C87.0777 406.11 86.6503 406.11 86.2229 406.11L82.8039 404.316C82.3766 403.867 82.3766 403.867 82.8039 403.419L86.2229 401.177C86.6503 401.177 87.0777 401.177 87.5051 401.177L90.9241 402.971C91.3514 403.419 91.3514 403.419 90.9241 403.867Z" fill="black"/>
<path d="M108.019 393.553L104.6 395.796C104.172 395.796 103.745 395.796 103.318 395.796L99.8987 394.002C99.4713 393.553 99.4713 393.553 99.8987 393.105L103.318 390.863C103.745 390.863 104.172 390.863 104.6 390.863L108.019 392.656C108.446 393.105 108.446 393.105 108.019 393.553Z" fill="black"/>
<path d="M108.019 403.867L104.6 406.11C104.172 406.11 103.745 406.11 103.318 406.11L99.8987 404.316C99.4713 403.867 99.4713 403.867 99.8987 403.419L103.318 401.177C103.745 401.177 104.172 401.177 104.6 401.177L108.019 402.971C108.446 403.419 108.446 403.419 108.019 403.867Z" fill="black"/>
<path d="M99.4717 408.8L96.0527 411.042C95.6253 411.042 95.1979 411.042 94.7705 411.042L91.3515 409.249C90.9242 408.8 90.9242 408.8 91.3515 408.352L94.7705 406.109C95.1979 406.109 95.6253 406.109 96.0527 406.109L99.4717 407.903C99.899 408.352 99.899 408.8 99.4717 408.8Z" fill="black"/>
<path d="M116.566 398.486L113.147 400.728C112.72 400.728 112.293 400.728 111.865 400.728L108.446 398.935C108.019 398.486 108.019 398.486 108.446 398.038L111.865 395.796C112.293 395.796 112.72 395.796 113.147 395.796L116.566 397.589C116.994 398.038 116.994 398.486 116.566 398.486Z" fill="black"/>
<path d="M116.139 408.8L112.72 411.042C112.293 411.042 111.866 411.042 111.438 411.042L108.019 409.249C107.592 408.8 107.592 408.8 108.019 408.352L111.438 406.109C111.866 406.109 112.293 406.109 112.72 406.109L116.139 407.903C116.567 408.352 116.567 408.352 116.139 408.8Z" fill="black"/>
<path d="M107.592 413.733L104.173 415.975C103.745 415.975 103.318 415.975 102.89 415.975L99.4714 414.181C99.044 413.733 99.044 413.733 99.4714 413.284L102.89 411.042C103.318 411.042 103.745 411.042 104.173 411.042L107.592 412.836C108.019 413.284 108.019 413.733 107.592 413.733Z" fill="black"/>
<path d="M115.712 418.666L112.293 420.908C111.865 420.908 111.438 420.908 111.011 420.908L107.592 419.114C107.164 418.666 107.164 418.666 107.592 418.217L111.011 415.975C111.438 415.975 111.865 415.975 112.293 415.975L115.712 417.769C116.139 418.217 116.139 418.666 115.712 418.666Z" fill="black"/>
<path d="M124.259 424.047L120.84 426.289C120.413 426.289 119.986 426.289 119.558 426.289L116.139 424.495C115.712 424.047 115.712 424.047 116.139 423.598L119.558 421.356C119.986 421.356 120.413 421.356 120.84 421.356L124.259 423.15C124.687 423.598 124.687 423.598 124.259 424.047Z" fill="black"/>
<path d="M132.379 428.98L128.96 431.222C128.533 431.222 128.105 431.222 127.678 431.222L124.259 429.428C123.832 428.98 123.832 428.98 124.259 428.531L127.678 426.289C128.105 426.289 128.533 426.289 128.96 426.289L132.379 428.083C132.807 428.083 132.807 428.531 132.379 428.98Z" fill="black"/>
<path d="M140.5 433.913L137.081 436.155C136.653 436.155 136.226 436.155 135.799 436.155L132.38 433.913C131.952 433.464 131.952 433.464 132.38 433.016L135.799 430.773C136.226 430.773 136.653 430.773 137.081 430.773L140.5 432.567C140.5 433.016 140.927 433.464 140.5 433.913Z" fill="black"/>
<path d="M149.047 438.845L145.628 441.088C145.201 441.088 144.773 441.088 144.346 441.088L140.927 438.845C140.5 438.397 140.5 438.397 140.927 437.948L144.346 435.706C144.773 435.706 145.201 435.706 145.628 435.706L149.047 437.5C149.047 438.397 149.475 438.845 149.047 438.845Z" fill="black"/>
<path d="M157.167 443.778L153.748 446.02C153.321 446.02 152.893 446.02 152.466 446.02L149.047 443.778C148.619 443.33 148.619 443.33 149.047 442.881L152.466 440.639C152.893 440.639 153.321 440.639 153.748 440.639L157.167 442.433C157.167 443.33 157.167 443.778 157.167 443.778Z" fill="black"/>
<path d="M164.86 448.711L161.441 450.953C161.013 450.953 160.586 450.953 160.159 450.953L156.74 449.159C156.312 448.711 156.312 448.711 156.74 448.262L160.159 446.02C160.586 446.02 161.013 446.02 161.441 446.02L164.86 447.814C165.287 448.262 165.287 448.711 164.86 448.711Z" fill="black"/>
<path d="M173.407 454.092L169.988 456.334C169.561 456.334 169.133 456.334 168.706 456.334L165.287 454.541C164.859 454.092 164.859 454.092 165.287 453.644L168.706 451.401C169.133 451.401 169.561 451.401 169.988 451.401L173.407 453.195C173.834 453.195 173.834 453.644 173.407 454.092Z" fill="black"/>
<path d="M139.217 172.474C139.217 172.474 136.226 167.99 131.525 159.47C131.525 159.021 135.798 127.631 130.67 104.312C131.952 106.554 146.483 136.599 151.184 156.779C155.885 177.855 155.885 177.855 155.885 177.855C155.885 177.855 150.757 191.309 137.935 206.107L131.952 211.488C131.525 211.937 130.67 211.937 130.243 211.488L124.687 203.865C124.259 203.416 124.259 202.968 124.687 202.519C125.969 199.38 131.097 185.03 133.662 181.443C137.081 176.51 139.217 172.474 139.217 172.474Z" fill="black"/>
<path d="M131.098 213.73C129.816 213.73 129.388 213.282 128.534 212.385L122.978 204.762C122.55 203.865 122.123 202.968 122.55 201.623C123.832 197.587 128.961 183.685 131.525 180.098C134.089 176.51 135.372 173.819 136.226 172.474C134.944 170.68 132.38 166.645 128.961 160.366L128.534 159.918V159.47C128.534 159.021 132.807 128.079 127.679 105.209L127.251 103.415L130.243 102.07L131.098 103.415C131.525 104.76 146.911 135.702 151.612 156.33L156.74 177.855L156.313 178.304C155.886 178.752 150.757 192.205 137.936 207.004L131.953 212.834C132.807 213.73 131.953 213.73 131.098 213.73ZM126.397 202.968L131.098 209.694L136.654 204.313C147.338 191.309 152.894 179.649 153.749 176.959L149.475 157.227C146.483 144.223 139.218 127.182 134.517 115.971C136.226 134.805 134.089 154.985 133.662 159.021C137.936 167.093 140.927 171.129 140.927 171.129L141.355 172.026L140.927 172.923C140.927 172.923 139.218 176.959 135.372 182.34C133.235 185.479 129.388 195.344 126.397 202.968Z" fill="black"/>
<path d="M134.089 142.878C134.089 142.878 140.073 139.29 144.346 128.528C144.346 128.528 142.209 107.003 129.816 102.07C117.422 97.137 128.106 131.667 128.106 131.667L134.089 142.878Z" fill="white"/>
<path d="M133.662 145.568L126.396 132.115C125.114 128.079 119.131 107.002 124.26 101.173C125.114 100.276 127.251 98.9306 130.67 100.276C144.346 105.209 146.483 127.182 146.483 128.079V128.527V128.976C142.209 140.187 135.799 143.774 135.371 144.223L133.662 145.568ZM129.388 130.77L134.517 140.187C136.226 138.393 139.645 134.806 142.637 128.527C142.209 125.388 139.645 108.348 129.388 104.312C127.679 103.415 126.824 104.312 126.824 104.312C123.832 107.002 126.824 121.352 129.388 130.77Z" fill="black"/>
<path d="M139.646 174.268L138.791 170.68C141.782 169.783 144.774 170.68 145.201 170.68L144.347 174.268C144.347 174.268 141.782 173.819 139.646 174.268Z" fill="black"/>
<path d="M134.517 410.594C134.517 410.594 137.081 411.939 140.073 419.563C142.637 425.841 151.185 437.052 154.604 440.191C158.023 443.33 152.894 454.989 141.355 449.608C136.226 447.366 129.388 441.536 125.542 439.742C120.841 437.5 116.995 432.568 116.567 426.738C116.14 422.702 115.712 418.218 116.567 415.975C118.704 410.146 127.679 407.904 127.679 407.904L134.517 410.594Z" fill="#91BFBF"/>
<path d="M147.338 453.196C145.629 453.196 143.492 452.747 140.928 451.85C137.936 450.505 134.517 447.814 131.098 446.021C128.534 444.227 126.397 442.882 125.115 441.985C119.559 439.294 115.713 433.913 114.858 427.635C114.003 422.253 114.003 418.218 115.285 415.975C117.85 409.697 127.252 407.007 127.679 407.007H128.107L134.945 409.697C135.372 410.146 138.364 411.491 141.783 420.011C143.919 425.841 152.467 437.052 155.886 439.742C158.023 441.536 158.023 445.572 156.313 448.711C154.604 450.505 151.612 453.196 147.338 453.196ZM128.107 410.146C125.542 411.043 119.986 413.285 118.704 416.872C117.85 418.666 117.85 422.253 118.704 426.738C119.559 431.671 122.551 436.155 126.824 438.397C128.534 439.294 130.671 440.639 133.235 442.433C136.227 444.675 139.646 446.917 142.637 448.263C148.193 450.953 152.04 448.711 153.322 446.021C154.176 444.227 154.604 442.433 153.749 441.536C149.903 438.397 141.355 426.738 138.791 420.46C136.227 414.182 134.09 412.388 134.09 412.388L128.107 410.146Z" fill="black"/>
<path d="M134.517 411.491C134.517 411.491 136.654 420.011 139.218 424.944C140.927 428.531 137.508 431.67 130.67 427.186C123.832 422.702 122.123 411.939 122.123 411.939L133.662 410.146L134.517 411.491Z" fill="white"/>
<path d="M136.654 431.222C134.517 431.222 132.38 430.325 129.816 428.532C122.123 423.599 120.413 412.388 120.413 411.939L119.986 410.146L134.089 407.903L136.226 410.594V411.042C136.226 411.042 138.363 419.563 140.927 424.047C142.21 426.289 141.782 428.532 140.5 429.877C139.218 430.774 137.936 431.222 136.654 431.222ZM124.26 413.285C125.115 416.424 127.251 422.702 131.525 425.393C134.944 427.635 137.081 427.635 137.936 427.186C138.363 426.738 137.936 426.289 137.936 425.841C135.799 421.357 133.662 414.182 133.235 412.388L132.38 411.939L124.26 413.285Z" fill="black"/>
<path d="M39.6394 332.118C39.6394 332.118 36.2204 345.571 40.9216 356.333C45.6227 367.096 34.9383 374.271 25.5361 363.06C16.5612 351.4 16.1338 337.05 16.1338 337.05C14.4243 334.808 14.4243 326.288 16.5612 324.494C19.1254 321.803 23.8266 319.113 30.6646 320.907C42.2037 323.597 39.6394 332.118 39.6394 332.118Z" fill="#91BFBF"/>
<path d="M35.3659 370.683C31.9469 370.683 28.1005 368.89 24.2541 364.405C15.7066 353.643 14.8519 340.638 14.8519 337.947C13.1424 333.911 12.715 325.391 15.2792 322.701C18.2709 319.561 23.3994 316.422 30.6647 318.665C35.3659 320.01 38.3575 322.252 40.067 324.943C42.2039 328.53 41.3491 332.118 41.3491 332.566C41.3491 332.566 37.9301 345.571 42.2039 355.436C44.7681 361.715 43.0586 367.096 39.6396 369.338C38.3575 369.786 37.0754 370.683 35.3659 370.683ZM26.391 321.804C22.5446 321.804 19.553 323.597 17.8435 325.391C16.5614 326.288 16.5614 333.911 17.8435 335.705L18.2709 336.154V336.602C18.2709 336.602 18.6982 350.504 27.2457 361.266C31.5195 366.647 35.7932 367.096 38.3575 365.75C40.4944 364.405 41.7765 361.266 39.6396 356.782C34.9385 345.571 38.3575 332.118 38.3575 331.221C38.3575 330.324 39.6396 324.494 30.2374 321.804C28.9552 321.804 27.6731 321.804 26.391 321.804Z" fill="black"/>
<path d="M39.6395 332.118L36.6478 341.535C34.511 343.329 28.9551 338.844 27.673 336.602C27.2456 335.257 26.8182 333.912 26.3908 332.118C25.1087 325.391 30.2372 320.458 30.2372 320.458L39.6395 332.118Z" fill="white"/>
<path d="M35.7934 343.777C35.366 343.777 35.366 343.777 34.9386 343.777C31.947 343.329 27.6732 339.741 26.8185 337.051C25.9637 335.705 25.5363 333.912 25.5363 332.118C24.2542 324.494 29.8101 319.113 30.2375 319.113L31.5196 317.768L41.7766 331.669L38.3576 342.432L37.9302 342.88C37.5029 343.329 36.6481 343.777 35.7934 343.777ZM30.6649 323.149C29.3827 324.943 27.6732 327.633 28.528 331.669C28.9553 333.015 29.3827 334.36 29.8101 335.705C30.6649 337.499 34.5112 340.19 35.7934 340.19L38.3576 332.566L30.6649 323.149Z" fill="black"/>
<path d="M125.542 227.184C125.542 227.184 131.098 265.301 106.738 302.521L94.3438 312.835L72.9751 318.664L39.2124 332.118C38.7851 332.118 37.9303 332.118 37.5029 332.118L36.2208 331.669C33.2292 330.324 31.5197 327.633 30.6649 324.046L30.2375 321.804C30.2375 320.907 30.2376 320.01 31.0923 319.561C34.9387 316.422 47.7599 306.557 55.8801 300.727C67.8466 291.758 75.5393 286.826 83.6594 285.032C91.7796 283.238 80.2404 225.39 80.2404 225.39L102.464 214.179L125.542 227.184Z" fill="black"/>
<path d="M38.3574 333.911C37.93 333.911 37.0752 333.911 36.6479 333.463L35.3657 333.014C31.9467 331.221 29.8099 328.082 28.9551 324.046L28.5277 321.804C28.1004 320.458 28.9551 318.664 29.8099 317.768C34.0836 315.077 46.9049 304.763 55.025 298.933C66.5641 290.413 74.6843 285.032 83.6591 283.238C87.0781 282.341 84.9413 255.435 78.958 225.838L78.5306 224.044L102.891 211.937L127.251 225.838V226.735C127.251 227.183 132.807 266.197 108.447 303.418L108.02 303.866L95.1983 314.629L73.4021 320.458L39.6395 333.911C39.2121 333.911 38.7847 333.911 38.3574 333.911ZM82.377 226.287C86.2234 244.672 93.0614 284.583 84.0865 286.825C75.9664 288.619 67.8462 294 56.7345 302.072C48.6144 307.902 35.7931 318.216 31.9467 320.907V321.355L32.3741 323.597C32.8015 326.288 34.511 328.53 37.0752 329.875L38.3574 330.324H38.7847L72.5474 316.871L93.9161 311.041L105.883 301.175C127.251 267.991 124.687 233.91 124.26 228.08L103.318 215.973L82.377 226.287Z" fill="black"/>
<path d="M107.592 239.291C107.592 239.291 131.098 309.696 131.525 324.494C131.952 337.947 134.517 399.383 134.944 411.042C134.944 412.388 134.517 413.285 133.235 413.733C129.816 415.078 126.397 415.078 122.978 413.733L122.55 413.285C121.695 412.836 121.268 411.939 120.841 411.042C119.986 406.11 117.422 389.518 112.293 376.513C106.31 360.369 110.156 334.808 110.156 334.808C110.156 334.808 102.036 309.696 90.0697 298.485C78.5306 287.274 61.4355 257.677 61.4355 238.843C61.4355 220.008 107.592 239.291 107.592 239.291Z" fill="black"/>
<path d="M128.106 415.975C126.397 415.975 124.26 415.527 122.55 415.079L122.123 414.63C120.841 414.182 119.559 412.836 119.559 411.043C118.704 406.558 116.14 389.966 111.011 376.513C105.455 361.266 108.447 337.947 108.874 334.36C107.592 331.221 99.8993 309.247 89.6422 299.382C78.1031 288.171 60.1534 258.126 60.5807 238.394C60.5807 235.255 61.8629 232.565 64.4271 230.771C75.1115 223.596 105.455 236.152 108.874 237.498L109.729 237.946L110.156 238.843C111.011 241.533 134.089 309.696 134.089 324.494C134.517 337.947 137.081 398.935 137.508 411.043C137.508 412.836 136.654 414.63 134.944 415.527C132.38 415.527 130.243 415.975 128.106 415.975ZM73.402 232.116C70.4104 232.116 67.8461 232.565 66.1366 233.91C64.8545 234.807 63.9997 236.601 63.9997 238.394C63.9997 256.332 80.6674 285.929 91.7791 296.691C103.746 308.351 111.866 332.566 112.293 333.911V334.36V334.808C112.293 335.257 108.447 360.369 114.003 375.616C119.131 389.069 122.123 406.11 122.55 410.594C122.55 411.043 122.978 411.043 122.978 411.491L123.405 411.939C126.397 413.285 129.388 413.285 132.38 411.939C132.807 411.939 132.807 411.491 132.807 411.043C132.38 398.935 129.388 337.947 129.388 324.494C128.961 311.041 108.447 248.708 105.882 240.637C99.0445 237.498 83.2316 232.116 73.402 232.116Z" fill="black"/>
<path d="M46.0499 123.146C52.8879 110.141 78.5304 99.8274 78.5304 99.8274L89.2148 101.621L105.455 93.9977C105.455 93.9977 128.533 97.5852 131.952 102.518C135.371 107.451 137.508 141.084 134.517 154.088C132.38 163.057 132.807 193.102 133.234 211.488C133.662 221.354 128.533 230.322 120.841 235.255C117.422 237.497 113.575 226.735 113.575 226.735H112.72C111.011 234.358 109.729 238.843 109.729 238.843C109.729 238.843 50.751 251.399 55.4521 223.147C60.1533 194.448 54.17 150.501 54.17 150.501C54.17 150.501 39.6393 136.151 46.0499 123.146Z" fill="#91BFBF"/>
<path d="M83.6589 243.776C73.4019 243.776 62.7176 241.982 57.1617 236.601C53.7427 233.013 52.4605 228.529 53.3153 222.699C57.589 196.69 52.8879 156.779 52.4605 151.398C49.8963 148.707 37.9298 135.254 44.3404 122.698C51.1784 109.245 76.3936 98.9306 77.6757 98.4821H78.1031L88.7874 100.276L105.028 92.6525H105.455C109.301 93.1009 129.388 96.6884 132.807 102.07C136.653 107.451 138.363 142.429 135.371 155.434C133.662 161.712 133.662 181.891 134.089 212.385C134.517 222.699 129.388 232.565 120.841 237.497C119.986 237.946 118.704 238.394 117.849 237.946C115.712 237.049 114.003 234.358 112.72 232.116C111.438 237.049 110.584 240.188 110.584 240.188L110.156 241.085H109.301C108.874 241.085 96.4802 243.776 83.6589 243.776ZM78.5304 102.07C75.1114 103.415 53.3153 112.832 47.332 124.043C41.3488 135.702 55.0248 148.707 55.0248 149.155L55.4522 149.604V150.052C55.8795 151.846 61.0081 194.896 56.7343 223.147C55.8795 227.632 56.7343 231.219 59.7259 233.462C69.9829 243.776 101.609 238.394 107.592 237.049C108.019 235.255 109.301 231.219 110.156 225.838L110.584 224.044L114.003 224.493L114.43 225.39C116.139 229.426 118.276 233.013 119.131 233.013C126.824 228.529 131.098 220.008 130.67 211.04C130.243 189.515 129.815 161.712 131.952 153.191C134.944 139.738 132.807 107.002 129.815 102.967C127.679 100.276 114.43 96.6884 105.028 95.3431L88.7874 102.967L78.5304 102.07Z" fill="black"/>
<path d="M88.3606 88.6165C88.3606 88.6165 88.3606 93.1009 85.7964 99.8275C85.7964 99.8275 88.3606 104.312 93.4891 108.348C99.045 112.832 106.31 113.281 112.721 110.59C112.721 110.59 109.302 99.379 109.729 92.204C111.012 85.029 88.3606 88.6165 88.3606 88.6165Z" fill="white"/>
<path d="M105.028 114.177C100.327 114.177 96.0532 112.832 92.6342 109.693C87.5057 105.657 84.514 100.724 84.514 100.724L84.0867 99.8274L84.514 98.9305C87.0783 92.6524 87.0783 88.6165 87.0783 88.6165V87.2712L88.3604 86.8227C91.352 86.3743 106.31 84.1321 110.584 88.6165C111.439 89.5134 111.866 90.8587 111.866 92.204C111.439 98.9305 114.43 109.693 114.43 110.141L115.285 111.935L114.003 112.384C111.011 113.729 108.02 114.177 105.028 114.177ZM87.933 99.379C88.7878 100.724 91.352 103.863 94.771 107.002C99.4722 110.59 105.455 111.487 111.011 109.693C110.157 106.106 108.02 98.0337 108.447 92.204C108.447 91.7556 108.447 91.7555 108.02 91.3071C105.883 89.0649 96.4805 89.5134 90.0699 90.4102C90.0699 92.204 89.2152 95.3431 87.933 99.379Z" fill="black"/>
<path d="M87.5058 93.9977C87.5058 93.9977 75.9667 96.2399 74.6846 104.312C74.6846 104.312 82.3773 120.904 103.319 123.146L105.028 112.384C105.028 112.384 99.045 112.384 92.2069 107.451C87.9332 104.312 86.2237 98.9305 87.5058 93.9977Z" fill="#91BFBF"/>
<path d="M105.028 125.388H103.319C81.5226 123.146 73.8298 106.106 73.4025 105.657L72.9751 105.209V104.76C74.6846 95.3431 86.6511 93.1009 87.5059 93.1009L90.4975 92.6525L89.6427 95.7915C88.3606 99.8275 90.0701 104.312 93.4891 107.002C99.4724 111.487 105.028 111.487 105.456 111.487H107.592L105.028 125.388ZM76.8215 104.312C78.1036 107.002 85.369 119.11 102.037 121.352L102.891 114.177C100.327 113.729 96.0534 112.832 90.9249 109.245C87.0785 106.554 84.9416 101.621 85.369 96.6884C82.3774 97.5853 77.6762 99.8275 76.8215 104.312Z" fill="black"/>
<path d="M108.448 111.935L114.431 121.352C114.431 121.352 122.551 115.074 118.277 102.518L109.73 103.863C110.157 103.863 112.294 108.348 108.448 111.935Z" fill="#91BFBF"/>
<path d="M114.003 124.043L106.31 111.935L107.165 111.038C109.729 108.348 108.447 104.76 108.447 104.76L107.592 102.518L119.986 100.724L120.413 102.07C124.687 115.523 115.712 122.698 115.712 123.146L114.003 124.043ZM111.011 112.384L114.858 118.662C116.567 116.42 119.131 111.935 117.422 104.76L112.293 105.657C112.721 107.002 112.721 109.693 111.011 112.384Z" fill="black"/>
<path d="M121.696 60.8135C121.696 60.8135 125.542 69.7823 124.26 83.6838C123.833 89.065 122.123 94.4463 119.987 99.8275L118.704 102.518C118.277 103.863 116.995 104.312 116.14 104.312C111.866 104.312 101.609 102.967 93.4893 94.8947L90.4976 91.3072C89.2155 89.5135 88.3608 87.7197 88.3608 85.4775C88.3608 85.4775 84.5144 84.5807 83.2323 80.5447C82.3775 78.3026 82.8049 76.0604 83.6596 74.2666C84.5144 72.9213 85.7965 72.4729 87.0786 72.9213L90.0703 68.8854L100.327 54.9838L121.696 60.8135Z" fill="#D8B182"/>
<path d="M115.712 106.105C111.439 106.105 100.754 104.76 91.7792 96.2399L88.3602 92.2039C87.0781 90.4102 86.2234 88.6164 85.796 86.3743C84.0865 85.4774 81.9496 84.1321 80.6675 80.993C79.8127 78.7508 79.8127 75.6118 81.0949 72.9212C81.9496 71.1274 83.6591 70.2306 85.3686 70.2306L98.6172 52.2931L122.55 59.0196L122.978 59.9165C122.978 60.3649 127.251 69.7821 125.542 83.6837C125.115 89.0649 123.405 94.8946 120.841 100.276L119.559 102.966C119.559 105.209 117.849 106.105 115.712 106.105ZM85.796 74.2665C85.3686 74.2665 84.9412 74.7149 84.9412 74.7149C84.0865 76.5087 84.0865 78.3024 84.5139 79.6477C85.3686 82.7868 88.3602 83.2352 88.3602 83.2352L89.6424 83.6837V85.029C89.6424 86.8227 90.0697 88.6165 91.3519 89.9618L94.3435 93.5493C102.036 101.173 111.866 102.07 115.712 102.518C116.14 102.518 116.567 102.07 116.994 101.621L118.277 98.9305C120.413 93.5493 122.123 88.6165 122.55 83.2352C123.832 72.4727 121.268 64.4009 120.413 62.1587L100.327 56.7775L87.0781 74.7149L85.796 74.2665Z" fill="black"/>
<path d="M112.294 227.183L108.875 226.735C114.43 177.855 108.875 130.321 108.875 129.873L112.294 129.424C112.294 129.873 118.277 177.407 112.294 227.183Z" fill="black"/>
<path d="M96.0529 307.453C96.0529 307.453 94.3434 304.314 92.2065 302.521L91.3518 301.624C88.3601 298.485 81.5221 290.861 79.3853 287.274L81.5221 285.48C84.0864 289.068 90.497 296.691 93.4886 299.83L94.3434 300.727C96.4803 302.969 98.1898 306.108 98.1898 306.108L96.0529 307.453Z" fill="#91BFBF"/>
<path d="M109.814 241.471L107.384 242.33L117.482 273.779L119.912 272.92L109.814 241.471Z" fill="#91BFBF"/>
<path d="M68.2733 264.404L67.8459 261.713C72.1197 260.816 75.1113 259.022 76.8208 255.883C79.3851 250.951 77.2482 244.224 77.2482 244.224L79.8124 243.327C79.8124 243.776 82.8041 251.399 79.3851 257.677C77.2482 261.265 73.4018 263.507 68.2733 264.404Z" fill="#91BFBF"/>
<path d="M111.438 335.257L109.302 333.463C111.866 329.876 114.43 328.979 114.43 328.979L115.712 331.669C115.712 331.221 114.003 332.566 111.438 335.257Z" fill="#91BFBF"/>
<path d="M126.824 408.352C124.687 408.352 122.55 407.903 119.559 406.558L120.841 403.868C128.961 407.455 134.089 402.522 134.089 402.522L136.226 404.316C135.371 405.213 132.38 408.352 126.824 408.352Z" fill="#91BFBF"/>
<path d="M42.6312 330.324C42.2039 330.324 35.3659 326.288 34.0837 316.423L36.648 315.974C37.5027 324.494 43.486 327.633 43.9134 327.633L42.6312 330.324Z" fill="#91BFBF"/>
<path d="M138.791 438.397V434.81C143.492 434.81 146.056 430.774 146.484 430.774L149.475 433.016C149.048 433.016 145.201 438.397 138.791 438.397Z" fill="black"/>
<path d="M34.511 350.055C32.3741 350.055 29.8099 349.607 27.2456 347.813L29.3825 344.674C33.6562 347.813 38.3574 346.019 38.3574 346.019L39.6395 349.607C39.6395 349.158 37.5026 350.055 34.511 350.055Z" fill="black"/>
<path d="M34.084 357.23C32.3745 357.23 30.2376 356.782 27.6733 355.885L28.9555 352.298C35.7935 355.436 38.3577 352.298 38.3577 351.849L40.922 354.091C40.922 354.54 38.7851 357.23 34.084 357.23Z" fill="black"/>
<path d="M144.346 442.433L143.492 439.294C147.338 437.948 150.33 434.361 150.33 434.361L152.894 436.603C152.894 436.603 149.475 441.087 144.346 442.433Z" fill="black"/>
<path d="M80.6676 111.935L77.676 110.141C80.6677 103.863 87.0783 101.173 87.5056 100.724L88.7878 103.863C88.7878 104.312 83.2319 107.002 80.6676 111.935Z" fill="black"/>
<path d="M136.227 49.1542C136.227 46.912 134.944 44.6698 132.808 43.3245V42.8761C134.09 41.5308 134.944 39.737 134.944 37.9433C134.944 34.3558 132.38 31.6652 128.961 31.2167C128.961 30.7683 128.534 30.7683 128.534 30.3199C128.534 29.8714 128.961 28.9745 128.961 28.5261C128.961 24.9386 125.97 21.7996 122.551 21.7996C121.696 21.7996 121.268 21.7996 120.414 22.248L119.986 21.7996C119.986 18.2121 116.995 15.073 113.576 15.073C112.294 15.073 111.011 15.5214 110.157 15.9699C109.729 15.9699 109.302 15.5214 108.875 15.5214C108.447 12.3824 105.883 10.1402 102.891 10.1402C100.754 10.1402 98.6175 11.4855 97.7628 13.2793C97.7628 13.2793 97.7628 13.2793 97.3354 13.2793C96.0533 11.9339 94.3438 11.0371 92.6343 11.0371C90.07 11.0371 87.9332 12.8308 87.0784 15.073C86.2237 15.073 85.7963 15.5214 84.9415 15.9699C84.0868 15.5214 82.8047 15.073 81.5225 15.073C78.1035 15.073 75.5393 17.7636 75.1119 21.3511C74.6845 21.7996 74.2572 21.7996 73.8298 22.248C73.8298 22.248 72.975 22.248 72.1203 22.248C68.7013 22.248 65.7097 25.387 65.7097 28.9745C65.7097 30.3199 66.137 31.2167 66.5644 32.1136C66.137 32.562 66.137 33.0105 65.7097 33.0105H65.2823C61.8633 33.0105 58.8717 36.1495 58.8717 39.737C58.8717 41.0823 59.299 41.9792 59.7264 42.8761C57.5895 43.773 55.88 46.0151 55.88 48.7058C55.88 50.4995 56.3074 51.8448 57.5895 53.1901C55.88 54.5354 54.5979 56.3292 54.5979 58.5714C54.5979 61.262 56.3074 63.9526 58.8717 64.8495V65.2979C57.1622 66.6432 55.88 68.437 55.88 70.6792C55.88 74.2667 58.8717 77.4057 62.2907 77.4057C62.2907 77.8541 62.2907 77.8541 62.2907 78.3026C62.2907 81.8901 65.2823 85.0291 68.7013 85.0291C69.1287 85.0291 69.9834 85.0291 70.4108 84.5807C70.8382 87.7198 73.4024 90.4104 76.8214 90.4104C78.1035 90.4104 79.813 89.9619 80.6678 89.0651C83.232 89.5135 85.3689 89.9619 86.651 89.9619C87.0784 89.9619 87.5058 89.5135 87.0784 89.0651C86.2237 88.1682 84.9415 86.3745 83.232 83.2354C83.232 82.787 82.8047 82.3385 82.8047 82.3385C82.8047 81.8901 82.3773 81.4416 82.3773 80.9932C81.0952 76.9573 81.9499 73.8182 84.0868 71.1276C86.651 67.9885 92.2069 72.9213 92.2069 72.9213C92.2069 72.9213 91.3522 64.401 102.464 59.0198C109.729 55.8807 115.713 57.6745 119.986 59.9167C120.841 62.6073 122.978 64.401 125.97 64.401C129.389 64.401 132.38 61.262 132.38 57.6745C132.38 56.7776 132.38 56.3292 131.953 55.4323C134.09 54.9839 136.227 52.2933 136.227 49.1542Z" fill="black"/>
<path d="M76.3933 92.204C72.9743 92.204 69.9827 89.9618 69.128 86.3743C64.8542 86.8228 61.0078 83.2353 60.5804 78.7509C57.1614 77.854 54.1698 74.715 54.1698 71.1275C54.1698 68.8853 55.0246 67.0916 56.3067 65.7462C54.1698 64.4009 52.8877 61.7103 52.8877 59.0197C52.8877 56.7775 53.7424 54.5353 55.4519 53.19C54.5972 51.8447 54.1698 50.4994 54.1698 49.1541C54.1698 46.4635 55.4519 43.7728 57.5888 42.4275C57.1614 41.5307 57.1614 40.6338 57.1614 39.7369C57.1614 35.2525 60.5805 32.1135 64.4268 31.665C63.9995 30.7682 63.9995 29.8713 63.9995 28.9744C63.9995 24.4901 67.4184 20.9026 71.6922 20.9026C72.547 20.9026 73.4017 20.9026 74.2565 21.351C74.6838 17.3151 78.1028 14.176 81.9492 14.176C83.2313 14.176 84.0861 14.6245 85.3682 15.0729C85.7956 15.0729 85.7956 14.6245 86.223 14.6245C87.5051 11.9338 90.0693 10.5885 93.061 10.5885C94.7705 10.5885 96.48 11.037 97.7621 12.3823C99.0442 10.5885 101.181 9.69165 103.318 9.69165C106.737 9.69165 109.301 11.9338 110.583 15.0729C111.438 14.6245 112.72 14.176 114.002 14.176C117.849 14.176 120.84 17.3151 121.695 20.9026C126.396 20.0057 130.67 24.0416 130.67 28.526C130.67 28.9744 130.67 29.4229 130.67 29.8713C134.089 30.7682 136.653 33.9072 136.653 37.9432C136.653 39.7369 135.798 41.5307 134.944 43.3244C136.653 44.6697 137.935 46.9119 137.935 49.6025C137.935 52.7416 136.226 55.8806 133.234 56.7775C133.234 57.2259 133.234 57.6744 133.234 58.1228C133.234 62.6072 129.815 66.1947 125.541 66.1947C122.55 66.1947 119.558 64.4009 118.703 61.2619C115.284 59.4681 109.729 57.6744 102.891 60.8134C92.6336 65.2978 93.061 72.9212 93.061 73.3697L93.4883 76.5087L90.9241 74.2665C90.9241 74.2665 86.6503 70.6791 84.9408 72.4728C82.804 75.1634 82.3766 77.4056 83.2313 80.9931C83.6587 81.4415 83.6587 81.89 83.6587 82.7868C83.6587 82.7868 83.6587 83.2353 84.0861 83.6837C85.3682 86.8228 86.6503 88.1681 87.5051 89.0649C87.9325 89.5134 88.3598 90.4103 87.9325 91.3071C87.5051 92.204 87.0777 92.6525 86.223 92.6525C84.9408 92.6525 82.804 92.204 80.6671 91.7556C79.385 91.7556 78.1028 92.204 76.3933 92.204ZM71.6922 82.7868V84.5806C72.1196 87.2712 73.8291 89.0649 76.3933 89.0649C77.6755 89.0649 78.5302 88.6165 79.385 88.1681L79.8123 87.7196H80.2397C81.5218 88.1681 82.804 88.1681 84.0861 88.6165C83.2313 87.2712 82.3766 85.9259 81.5218 84.1321C81.5218 83.6837 81.0945 83.6837 81.0945 83.2353V82.7868C81.0945 82.3384 80.6671 81.89 80.6671 81.4415C78.9576 76.9572 79.8123 73.3697 82.804 70.2306C84.9408 67.54 88.3598 68.8853 90.4967 70.2306C90.9241 67.0916 93.4883 61.2619 101.608 57.6744C109.301 54.0869 116.139 56.3291 119.986 58.5713L120.413 59.0197V59.4681C121.268 61.7103 122.977 63.0556 125.114 63.0556C127.678 63.0556 129.815 60.8134 129.815 58.1228C129.815 57.6744 129.815 57.2259 129.388 56.3291L128.96 54.9838L130.67 54.5353C132.807 54.0869 134.516 51.8447 134.516 49.6025C134.516 47.8088 133.662 46.015 131.952 45.1182L131.097 44.6697V42.4275L132.379 41.9791C133.662 41.0822 134.089 39.7369 134.089 37.9432C134.089 35.2525 131.952 33.0104 129.388 33.0104H128.533L128.106 32.1135C128.106 32.1135 128.106 31.6651 127.678 31.2166L127.251 30.7682V29.8713C127.251 29.4229 127.678 28.9744 127.678 28.526C127.678 25.8354 125.541 23.5932 122.977 23.5932C122.55 23.5932 122.122 23.5932 121.268 24.0416L120.413 24.4901L118.703 23.1448V22.2479C118.703 19.5573 116.567 17.3151 114.002 17.3151C113.148 17.3151 112.293 17.7635 111.438 18.2119L111.011 18.6604L110.156 17.7635C109.729 17.7635 109.729 17.7635 109.301 17.3151L108.019 16.8666V15.9698C107.592 13.7276 105.455 11.9338 103.318 11.9338C101.608 11.9338 99.899 12.8307 99.0442 14.176L98.6168 14.6245H97.3347L96.48 14.176C96.0526 13.7276 94.7705 13.2791 93.061 13.2791C91.3515 13.2791 89.2146 14.6245 88.7872 16.4182L88.3598 16.8666H87.9325C87.0777 16.8666 86.6503 17.3151 85.7956 17.7635L85.3682 18.2119L84.9408 17.7635C84.0861 17.3151 83.2313 16.8666 82.3766 16.8666C79.8123 16.8666 77.6755 19.1088 77.6755 21.7994V22.6963L76.8207 23.1448C76.3933 23.5932 75.966 23.5932 75.5386 24.0416L74.6838 24.4901L73.8291 24.0416C70.4101 22.2479 66.5637 24.9385 66.5637 28.526C66.5637 29.4229 66.9911 30.3197 67.4185 31.2166L68.2732 32.1135L67.8458 33.0104C67.8458 33.4588 67.4185 33.4588 67.4185 33.9072L66.5637 34.8041H65.2816C62.7173 34.8041 60.5804 37.0463 60.5804 39.7369C60.5804 40.6338 60.5805 41.5307 61.0078 42.4275L61.8626 43.7728L60.5804 44.2213C58.8709 45.1182 57.5888 46.9119 57.5888 49.1541C57.5888 50.4994 58.0162 51.8447 58.871 52.7416L60.1531 54.0869L58.871 54.9838C57.1614 55.8806 56.3067 57.6744 56.3067 59.4681C56.3067 61.7103 57.5888 63.5041 59.7257 64.4009L60.5804 64.8494L61.0078 67.0916L59.7257 66.6431C58.4436 67.54 57.5888 69.3337 57.5888 71.1275C57.5888 73.8181 59.7257 76.0603 62.29 76.0603H63.9995V77.854C63.9995 78.3025 63.9995 78.3025 63.9995 78.7509C63.9995 81.4415 66.1363 83.6837 68.7006 83.6837C69.128 83.6837 69.5553 83.6837 69.9827 83.2353L71.6922 82.7868Z" fill="black"/>
<path d="M84.5138 154.088C82.3769 158.124 78.5305 160.366 76.3937 159.021C74.2568 157.676 74.2568 153.191 76.3937 149.156C78.5305 145.12 82.3769 142.877 84.5138 144.223C86.6507 145.568 86.6507 150.052 84.5138 154.088Z" fill="#91BFBF"/>
<path d="M78.1034 161.263C77.2486 161.263 76.3939 161.263 75.5391 160.815C72.5475 159.021 72.1201 153.64 75.1118 148.707C76.3939 146.465 78.1034 144.671 79.8129 143.326C81.9498 141.98 84.0866 141.98 85.7961 142.877C87.5056 143.774 88.3604 146.016 88.3604 148.259C88.3604 150.501 87.5056 152.743 86.6509 154.985C85.3688 157.227 83.6593 159.021 81.9498 160.366C80.2403 160.815 78.9581 161.263 78.1034 161.263ZM83.2319 146.016C82.8045 146.016 82.3771 146.016 81.5224 146.465C80.2403 147.362 78.9581 148.707 78.1034 150.501C75.9665 154.088 76.3939 157.227 77.676 157.676C78.1034 158.124 78.9581 157.676 79.8129 157.227C81.095 156.33 82.3771 154.985 83.2319 153.191C84.0866 151.398 84.514 149.604 84.514 148.259C84.514 146.913 84.0866 146.465 83.6593 146.016H83.2319Z" fill="black"/>
<path d="M86.651 155.434C84.5141 159.469 80.6678 161.712 78.5309 160.366C76.394 159.021 76.394 154.537 78.5309 150.501C80.6678 146.465 84.5141 144.223 86.651 145.568C88.7879 146.913 88.7879 150.949 86.651 155.434Z" fill="#91BFBF"/>
<path d="M79.8126 162.16C78.9578 162.16 78.1031 162.16 77.2483 161.712C75.5388 160.815 74.6841 158.573 74.6841 156.33C74.6841 154.088 75.5388 151.846 76.3936 149.604C78.9578 144.671 83.659 141.98 87.078 144.223C88.7875 145.12 89.6422 147.362 89.6422 149.604C89.6422 151.846 88.7875 154.088 87.9327 156.33C86.6506 158.573 84.9411 160.366 83.2316 161.712C81.9495 162.16 81.0947 162.16 79.8126 162.16ZM84.9411 146.913C83.659 146.913 81.5221 148.259 79.8126 151.398C78.9578 153.191 78.5305 154.985 78.5305 156.33C78.5305 157.676 78.9578 158.124 79.3852 158.573C79.8126 159.021 80.6673 158.573 81.5221 158.124C82.8042 157.227 84.0863 155.882 84.9411 154.088C85.7958 152.295 86.2232 150.501 86.2232 149.155C86.2232 147.81 85.7958 147.362 85.3685 146.913C85.3685 146.913 85.3685 146.913 84.9411 146.913Z" fill="black"/>
<path d="M195.204 145.568C238.796 158.124 300.766 141.532 333.246 107.899C349.487 91.3071 355.043 73.3697 351.624 58.1228L347.35 40.6338L343.503 42.4275C336.665 34.3557 326.408 28.0776 312.732 24.0416C291.364 17.7635 260.165 5.20731 235.805 11.037C210.162 17.7635 191.358 44.2213 174.69 61.7103C164.433 72.0244 158.45 83.2353 156.313 93.5493L152.039 93.9977L156.313 110.59C159.305 126.285 172.981 138.841 195.204 145.568ZM194.777 67.9884C218.71 42.876 264.866 30.3198 297.347 39.7369C329.827 49.1541 336.665 76.9572 312.732 101.621C300.766 114.177 280.679 107.899 262.302 112.832C243.498 118.213 226.403 134.357 210.162 129.873C177.682 120.456 170.844 92.6524 194.777 67.9884Z" fill="black"/>
<path d="M226.83 151.398C215.718 151.398 204.606 150.052 194.776 147.362C172.553 141.084 158.45 128.079 154.603 111.487L149.902 92.2039L154.603 91.7555C157.167 80.993 163.578 70.2305 172.98 60.3649C176.399 56.7774 179.818 53.1899 183.237 49.154C197.341 33.0103 213.581 15.0728 234.95 9.6916C255.464 4.31036 280.679 12.3822 300.766 18.6603C305.039 20.0056 308.886 21.3509 312.732 22.2478C325.981 25.8353 336.238 32.1134 343.503 40.1853L347.777 37.9431L352.905 57.6743C356.752 74.2665 350.341 92.2039 334.101 108.796C308.886 135.254 265.721 151.398 226.83 151.398ZM195.631 143.774C238.796 156.33 299.911 139.738 331.964 106.554C347.349 90.8586 353.333 73.818 349.914 58.5712L346.067 43.3243L343.076 44.6696L341.794 43.7728C334.956 35.7009 324.699 29.4228 311.877 25.8353C308.031 24.9384 304.185 23.5931 299.911 22.2478C280.252 15.9697 255.464 7.89785 235.805 13.2791C215.718 18.6603 199.905 36.1494 186.229 51.8446C182.383 55.8806 178.964 59.9165 175.545 63.504C166.142 73.3696 159.732 84.1321 157.595 94.4461L157.167 95.7914L153.748 96.2399L156.74 109.245L157.167 111.038C161.014 125.837 174.69 137.496 195.631 143.774ZM216.145 132.563C214.008 132.563 211.871 132.115 209.735 131.666C193.494 126.734 182.81 117.316 179.818 105.209C176.827 92.6524 181.528 79.1993 193.922 66.643C217.855 41.5306 264.866 28.5259 297.774 37.9431C314.014 42.8759 324.699 52.2931 327.69 64.4009C330.682 76.9571 325.981 90.4102 313.587 102.966C305.467 111.038 294.355 111.487 282.816 112.384C275.978 112.832 269.14 112.832 262.302 114.626C255.464 116.419 249.053 120.007 242.643 123.146C233.668 128.079 225.12 132.563 216.145 132.563ZM273.414 38.3915C245.634 38.3915 214.436 50.0509 196.059 68.8852C184.947 80.5446 180.246 92.6524 182.81 103.863C185.374 115.074 195.204 123.594 210.589 127.63C219.992 130.321 230.249 125.388 240.933 119.559C247.344 116.419 254.182 112.832 261.02 111.038C268.285 109.245 275.55 108.796 282.388 108.348C293.5 107.899 303.757 107.451 311.023 100.276C322.134 88.6164 326.835 76.5086 324.271 65.2977C321.707 54.0868 311.877 45.5665 296.492 41.5306C289.654 39.7368 281.534 38.3915 273.414 38.3915Z" fill="black"/>
<path d="M190.503 127.182C234.096 139.738 296.065 123.146 328.546 89.5134C361.026 55.8806 351.624 18.6604 308.032 6.10415C264.012 -6.90051 202.042 10.1401 169.989 43.3244C137.509 76.9571 146.911 114.177 190.503 127.182ZM190.503 49.6025C214.436 24.9385 260.166 12.3823 292.646 21.7994C325.127 31.2166 331.965 59.0197 308.032 83.6837C284.099 108.348 238.369 120.904 205.889 111.487C172.981 102.07 166.143 74.2665 190.503 49.6025Z" fill="white"/>
<path d="M222.129 133.012C211.017 133.012 199.905 131.666 190.076 128.976C168.279 122.698 154.176 110.141 149.902 93.5492C145.628 76.9571 152.466 59.0196 168.707 42.4275C201.615 8.79474 264.011 -8.69428 308.458 4.31037C330.255 10.5885 344.358 23.1447 348.632 39.7369C352.905 56.329 346.067 74.2665 329.827 90.8586C304.185 116.868 261.02 133.012 222.129 133.012ZM275.978 3.4135C237.942 3.4135 196.059 19.1088 171.271 44.6697C155.885 60.3649 149.902 77.4055 153.321 92.6524C157.168 107.899 170.416 119.559 190.93 125.388C234.095 137.944 295.21 121.352 327.263 88.168C342.648 72.4727 348.632 55.4321 345.213 40.1853C341.366 24.9384 328.118 13.2791 307.604 7.44943C297.774 4.75881 287.09 3.4135 275.978 3.4135ZM229.394 116.419C220.847 116.419 212.726 115.523 205.461 113.28C189.221 108.348 178.536 98.9305 175.545 86.8227C172.553 74.2665 177.254 60.8134 189.648 48.2571C213.581 22.6963 260.165 10.14 293.073 19.5572C309.313 24.49 319.998 33.9072 322.989 46.015C325.981 58.5712 321.28 72.0243 308.886 84.5805C290.509 104.312 258.028 116.419 229.394 116.419ZM191.358 50.4993C180.246 62.1587 175.545 74.2665 178.109 85.4774C180.673 96.6883 190.503 105.209 205.888 109.244C237.942 118.662 282.816 106.105 306.322 81.8899C317.433 70.2305 322.134 58.1227 319.57 46.9118C317.006 35.7009 307.176 27.1806 291.791 23.1447C260.165 14.176 215.291 26.2838 191.358 50.4993Z" fill="black"/>
<path d="M224.555 131.068L221.246 131.971L225.764 150.198L229.073 149.295L224.555 131.068Z" fill="#91BFBF"/>
<path d="M339.459 78.5655L336.15 79.4684L340.668 97.6963L343.977 96.7934L339.459 78.5655Z" fill="#91BFBF"/>
<path d="M318.988 98.7712L315.679 99.6749L320.201 117.903L323.509 116.999L318.988 98.7712Z" fill="#91BFBF"/>
<path d="M201.839 40.0771L198.53 40.9808L203.051 59.2087L206.36 58.305L201.839 40.0771Z" fill="#91BFBF"/>
<path d="M277.571 18.1096L274.262 19.0133L278.784 37.2412L282.093 36.3375L277.571 18.1096Z" fill="#91BFBF"/>
<path d="M75.966 239.291C75.5387 238.843 75.5387 237.946 75.966 237.497L184.947 125.837C184.947 125.837 185.801 125.388 186.229 125.837L199.05 129.424C200.332 129.873 201.614 131.218 202.042 132.563L205.033 145.568C205.033 146.016 205.033 146.913 205.033 146.913L96.0527 259.022C95.6253 259.471 94.7705 259.471 94.3432 259.022L75.966 239.291Z" fill="white"/>
<path d="M95.1979 260.816C94.3431 260.816 93.4884 260.368 93.061 259.919L74.6839 240.636C74.2565 240.188 73.8291 239.291 73.8291 238.394C73.8291 237.497 74.2565 236.601 74.6839 236.152L183.665 124.043H184.092C184.519 124.043 185.374 123.595 186.656 123.595L199.477 127.182C201.187 127.63 202.896 129.873 203.751 131.666L206.743 144.671C207.17 146.016 206.743 146.913 206.315 147.362L205.888 147.81L97.3347 259.919C96.9074 260.816 96.0526 260.816 95.1979 260.816ZM77.6755 238.394L95.1979 256.78L203.324 146.016L199.905 133.012C199.477 132.115 198.623 131.218 198.195 131.218L185.374 127.63L77.6755 238.394Z" fill="black"/>
<path d="M81.0943 256.332L93.9156 259.919C95.1977 260.368 95.6251 259.471 95.6251 257.677L92.6335 244.672C92.2061 243.327 90.924 241.533 89.6418 241.533L76.8206 237.946C75.5385 237.497 75.1111 238.394 75.1111 240.188L78.1027 253.193C78.5301 254.538 79.8122 256.332 81.0943 256.332Z" fill="#91BFBF"/>
<path d="M94.3432 262.161C93.9158 262.161 93.9158 262.161 93.4884 262.161L80.6672 258.574C78.9577 258.125 77.2482 255.883 76.3934 254.09L73.4018 241.085C72.9744 239.74 73.4018 238.394 74.2565 237.497C75.1113 236.601 75.966 236.601 77.2482 236.601L90.0694 240.188C91.7789 240.636 93.4884 242.879 94.3432 244.672L97.3348 257.677C97.7622 259.022 97.3348 260.368 96.4801 261.265C95.6253 261.713 95.1979 262.161 94.3432 262.161ZM76.8208 240.188L79.8124 252.744C80.2398 253.641 80.6672 254.538 81.5219 254.538L93.4884 258.125L90.4968 245.569C90.0694 244.672 89.2147 243.776 88.7873 243.776L76.8208 240.188Z" fill="black"/>
<path d="M202.897 137.047L205.033 145.568L95.198 258.125L93.4885 249.605L202.897 137.047Z" fill="black"/>
<path d="M189.976 136.785L133.421 194.758L135.811 197.324L192.365 139.351L189.976 136.785Z" fill="black"/>
<path d="M122.841 206.365L104.19 225.481L106.58 228.047L125.23 208.932L122.841 206.365Z" fill="black"/>
<path d="M128.87 225.853L96.5391 257.861L98.2989 259.818L130.63 227.811L128.87 225.853Z" fill="#91BFBF"/>
<path d="M216.573 105.657C196.059 102.966 188.366 89.9617 187.938 89.5132L190.93 87.7195C190.93 87.7195 198.195 99.8273 217 102.069L216.573 105.657Z" fill="black"/>
<path d="M313.587 60.3649C309.313 55.4321 303.33 51.3962 296.064 49.154L296.919 45.5665C304.612 48.2571 311.023 52.2931 316.151 57.6743L313.587 60.3649Z" fill="black"/>
<path d="M76.8215 220.008C80.2405 221.802 94.3439 224.941 99.045 224.941C102.037 224.941 105.456 224.941 109.302 224.493C114.858 224.044 123.405 214.179 108.02 212.385L100.327 211.488L99.8998 210.591L105.028 207.004V205.659L99.4724 205.21C99.4724 205.21 93.4892 204.762 89.6428 211.937C85.7964 219.112 84.0869 221.354 84.0869 221.354L76.8215 220.008Z" fill="black"/>
<path d="M99.0451 226.735C93.9166 226.735 79.3858 223.596 75.9668 221.802L66.1372 216.421L83.2322 219.56C84.087 218.663 85.3691 215.972 87.9333 211.488C92.2071 202.968 99.0451 203.865 99.4725 203.865L106.738 204.313V208.349L103.746 210.143L108.02 210.591C116.567 211.937 118.277 215.076 118.277 217.766C118.277 221.802 113.148 225.838 109.302 226.286C106.31 226.286 102.464 226.286 99.0451 226.735ZM86.2238 220.905C90.925 221.802 96.0535 222.699 98.6177 222.699C102.037 222.699 105.456 222.251 108.447 222.251C111.012 221.802 114.431 219.112 114.431 217.318C114.431 215.972 112.721 214.627 107.165 213.73L99.0451 212.833L96.9082 210.143L100.755 207.452H98.6177C98.1903 207.452 93.4892 207.004 90.4976 213.282C88.7881 216.869 87.506 219.56 86.2238 220.905Z" fill="black"/>
<path d="M90.925 211.04L84.9417 208.349C84.9417 208.349 67.8467 197.587 62.7182 193.551C57.5897 189.515 50.3243 184.582 43.0589 183.685C43.0589 183.685 64.0003 152.295 65.7098 139.29C67.4193 125.837 60.154 121.352 60.154 121.352C55.8802 118.662 49.4696 118.662 47.3327 123.146C41.7768 133.46 25.1092 167.541 19.5533 185.03C19.1259 186.824 19.5533 189.066 21.2628 189.963C30.6651 196.241 63.573 219.111 82.8048 220.905L89.6428 221.802C96.4808 211.488 90.4976 210.143 90.925 211.04Z" fill="black"/>
<path d="M89.6428 223.596L81.9501 222.699C64.4277 221.354 37.0757 202.968 23.827 194.448C22.1175 193.551 20.8354 192.654 19.9807 191.757C17.8438 190.412 16.5617 187.273 17.4164 184.582C22.9723 167.093 39.6399 133.012 45.1958 122.249C46.4779 120.007 48.1874 118.662 50.7517 117.765C53.7433 116.868 57.5897 117.316 60.5813 119.559C61.0087 120.007 68.7014 124.94 66.9919 139.29C65.7098 150.949 50.7517 174.716 45.6232 182.34C53.3159 184.134 60.1539 189.066 63.5729 191.757C68.2741 195.793 85.3691 206.107 85.3691 206.555L90.4976 208.798C91.3523 208.798 92.6344 209.246 93.4892 210.143C94.7713 211.937 95.1987 215.524 90.0702 222.251L89.6428 223.596ZM53.7433 121.352C52.8886 121.352 52.4612 121.352 51.6064 121.801C50.7517 122.249 49.0422 122.698 48.1874 124.491C42.6316 134.806 25.9639 168.438 20.408 185.927C19.9807 186.824 20.408 188.169 21.2628 188.618C22.5449 189.515 23.827 190.412 25.1092 191.309C37.0757 199.38 64.8551 217.766 81.5227 219.112L87.0786 220.008C89.6428 216.421 90.0702 214.179 90.0702 213.73L83.2322 210.591C82.3774 210.143 65.7098 199.829 60.5813 195.793C57.5897 193.551 49.8969 187.721 41.7768 186.376L38.7852 185.927L40.4947 183.237C40.4947 182.788 61.4361 152.295 62.7182 139.738C64.0003 128.079 58.4444 123.595 58.0171 123.595C57.5897 121.801 55.4528 121.352 53.7433 121.352Z" fill="black"/>
<path d="M32.8015 189.963L31.092 187.721C36.6479 183.237 42.2038 182.34 42.6312 182.34L43.0586 185.03C43.0586 185.479 37.93 186.376 32.8015 189.963Z" fill="#91BFBF"/>
<path d="M33.6572 142.429C33.2298 143.326 33.6572 143.774 34.5119 144.223C36.6488 144.671 41.3499 146.016 47.7605 153.64C53.3164 159.918 55.0259 164.402 55.8807 166.644C56.3081 167.541 57.1628 167.99 58.0176 167.093C62.7187 159.021 75.1126 135.702 61.8639 121.352C61.8639 121.352 46.4784 107.451 33.6572 142.429Z" fill="white"/>
<path d="M57.1624 169.335C56.735 169.335 56.735 169.335 57.1624 169.335C55.4529 169.335 54.5982 168.438 54.5982 167.093C54.1708 164.851 52.0339 160.815 46.9054 154.537C40.4948 146.913 36.221 145.568 34.5115 145.568C33.6568 145.568 32.802 145.119 32.3746 144.223C31.9473 143.326 31.9473 142.429 31.9473 141.532C37.0758 127.182 43.4864 119.11 51.1791 116.868C58.0172 115.074 63.1457 119.559 63.1457 119.559C76.8217 134.805 65.2825 158.124 59.2993 167.541C58.8719 168.887 58.0172 169.335 57.1624 169.335ZM35.3663 142.429C38.3579 142.877 43.059 145.119 49.0423 152.294C53.7434 157.676 55.8803 162.16 57.1624 164.851C61.8635 156.779 72.1205 135.254 60.5814 122.698C60.5814 122.698 56.735 119.559 51.6065 120.904C46.0506 122.249 40.0674 129.873 35.3663 142.429Z" fill="black"/>
<path d="M83.6596 221.354C83.6596 221.354 80.2406 215.973 85.3691 209.246L87.506 211.04C83.6596 216.421 85.7965 220.008 85.7965 220.008L83.6596 221.354Z" fill="#91BFBF"/>
<path d="M76.8214 219.112C76.8214 218.663 75.1119 213.282 80.2404 206.555L82.3772 208.349C78.5309 213.73 79.3856 218.215 79.3856 218.663L76.8214 219.112Z" fill="#91BFBF"/>
<path d="M98.6178 211.04L98.1904 208.349C98.1904 208.349 101.182 207.901 103.746 207.004L104.601 209.694C101.609 210.591 99.0452 211.04 98.6178 211.04Z" fill="#91BFBF"/>
<path d="M155.459 200.725H152.04C150.757 200.725 149.475 201.174 148.621 202.071L140.073 210.591C138.791 211.488 138.364 213.282 138.791 214.627C139.218 217.318 141.355 219.111 143.919 218.663L147.338 218.215C150.757 217.766 153.749 216.421 156.313 213.73C158.45 211.488 159.732 208.797 160.16 205.658C159.732 203.416 158.023 201.174 155.459 200.725Z" fill="black"/>
<path d="M143.492 220.905C140.5 220.905 137.509 218.215 137.081 215.076C136.654 212.833 137.509 210.591 139.218 209.246L147.766 200.726C149.048 199.38 150.757 198.932 152.467 198.932H155.886C157.595 198.932 159.305 199.829 160.16 201.174C161.442 202.519 161.869 204.313 161.869 206.107C161.869 209.694 160.16 213.282 157.595 215.524C155.031 218.215 151.612 220.008 147.766 220.457L144.347 220.905C143.919 220.905 143.492 220.905 143.492 220.905ZM152.039 202.519C151.185 202.519 150.757 202.968 149.903 203.416L141.355 211.937C140.5 212.833 140.5 213.73 140.5 214.627C140.5 215.524 140.928 215.973 141.782 216.869C142.21 217.318 143.065 217.766 143.919 217.318L147.338 216.869C150.33 216.421 152.894 215.076 155.031 212.833C156.741 211.04 158.023 208.349 158.023 205.658C158.023 204.762 158.023 204.313 157.168 203.416C156.741 202.968 155.886 202.519 155.458 202.519H152.039Z" fill="black"/>
<path d="M138.363 215.075L135.799 214.179C135.799 213.73 140.5 200.726 151.612 198.932L152.039 201.622C143.064 202.968 138.791 215.075 138.363 215.075Z" fill="#91BFBF"/>
</svg>
