<svg width="414" height="517" fill="none" xmlns="http://www.w3.org/2000/svg"><path d="M140.606 204.501h-9.778v-39.192c0-7.759 3.39-15.175 9.286-20.234l42.11-36.195c3.882-3.34 9.14-4.076 13.808-1.965 4.668 2.112 7.518 6.63 7.518 11.738v31.186h-9.779v-31.186c0-1.817-1.277-2.603-1.818-2.848-.54-.246-1.965-.688-3.341.491l-42.11 36.195c-3.734 3.242-5.896 7.907-5.896 12.818v39.192zM310.225 448.587l-4.914-8.447 61.028-35.705c5.896-3.536 9.581-10.018 9.581-16.943V231.611h9.779v155.881c0 10.313-5.504 20.037-14.348 25.342l-61.126 35.753z" fill="#000"/><path d="M129.501 358.172l-4.914-8.447 75.179-44.004c5.897-3.537 9.582-10.019 9.582-16.944V132.896h9.778v155.881c0 10.313-5.503 20.038-14.348 25.342l-75.277 44.053z" fill="#000"/><path d="M395.673 299.925v-11.836c0-.196-.147-.343-.344-.393l-29.531-8.201c-.049 0-.049-.049-.098-.049l-72.575-42.188a.369.369 0 0 0-.442 0l-25.354 14.636c-.098.049-.246.098-.344.049l-9.189-2.554c-.294-.098-.54.098-.54.393 0 2.357.049 11.099.049 11.345v.098a5.091 5.091 0 0 0 2.506 3.929l93.507 54.367a13.185 13.185 0 0 0 13.316 0l26.435-15.274a5.104 5.104 0 0 0 2.555-4.273l.049-.049z" fill="#91BFBF"/><path d="M360 323.401c-2.702 0-5.356-.688-7.763-2.063l-93.507-54.367c-2.015-1.178-3.292-3.192-3.538-5.5-.049-.295-.049-.442-.098-10.658v-.982c0-.835.344-1.571 1.032-2.063.638-.491 1.474-.638 2.26-.442l8.5 2.358 24.765-14.292a2.627 2.627 0 0 1 2.555 0l72.378 42.089 29.286 8.153c1.13.294 1.867 1.277 1.867 2.455V299.974l-.049.295c-.099 2.308-1.425 4.567-3.587 5.795l-26.436 15.274c-2.309 1.375-5.012 2.063-7.665 2.063zm-100.631-71.36c0 3.34.049 8.546.049 9.037a2.92 2.92 0 0 0 1.474 2.259l93.507 54.367a11.146 11.146 0 0 0 11.203 0l26.435-15.274c.884-.54 1.425-1.424 1.474-2.505h2.113-2.113v-10.51l-28.892-8.201-71.69-41.647-24.519 14.193c-.59.344-1.327.442-1.966.246l-7.075-1.965z" fill="#000"/><path d="M395.329 287.697l-29.531-8.202c-.049 0-.049 0-.098-.049l-6.093-3.536v45.428c2.407.049 4.864-.491 7.026-1.768l26.436-15.274a5.104 5.104 0 0 0 2.555-4.272v-.099-11.836c.049-.196-.099-.343-.295-.392z" fill="#000"/><path d="M360 323.45h-.491l-2.064-.049v-51.175l9.09 5.304 29.285 8.153c1.081.294 1.868 1.326 1.868 2.455V300.023c-.099 2.652-1.475 4.862-3.637 6.139l-26.435 15.274c-2.211 1.277-4.864 2.014-7.616 2.014zm1.72-43.906v39.486a10.815 10.815 0 0 0 3.881-1.375l26.436-15.274c.884-.54 1.425-1.424 1.474-2.505V289.317l-28.892-8.054-2.899-1.719z" fill="#000"/><path d="M353.514 307.832l-93.703-54.465c-3.44-1.964-3.44-6.924 0-8.889l26.681-15.421a12.834 12.834 0 0 1 12.874 0l93.752 54.514c3.44 1.965 3.44 6.925 0 8.889l-26.681 15.421c-3.98 2.309-8.894 2.26-12.923-.049z" fill="#fff"/><path d="M360 311.712c-2.604 0-5.208-.687-7.518-2.013l-93.752-54.515c-2.26-1.326-3.636-3.683-3.636-6.286 0-2.603 1.376-4.96 3.636-6.286l26.681-15.421c4.619-2.652 10.368-2.652 15.036 0l93.752 54.465c2.26 1.326 3.636 3.683 3.636 6.286 0 2.603-1.376 4.96-3.636 6.286l-26.681 15.422c-2.359 1.375-4.914 2.062-7.518 2.062zm-5.405-5.697c3.341 1.916 7.469 1.916 10.761 0l26.681-15.421a3.011 3.011 0 0 0 1.523-2.603c0-1.08-.54-2.063-1.523-2.603l-93.752-54.465c-3.292-1.915-7.42-1.915-10.761 0l-26.681 15.421a3.014 3.014 0 0 0-1.523 2.603c0 1.081.54 2.063 1.523 2.603l93.752 54.465z" fill="#000"/><path d="M410.709 209.019l-15.478-.049-162.691-93.853-113.063 93.165h-8.697l.737 12.131h.049c.197 3.389 1.966 6.679 5.258 8.594l164.509 94.934c4.766 2.75 10.761 2.259 14.986-1.228l112.13-92.429c2.063-1.719 3.046-4.076 3.095-6.482l-.786-14.685c.049-.049 0-.098-.049-.098z" fill="#91BFBF"/><path d="M287.917 327.772c-2.653 0-5.258-.688-7.616-2.014l-164.558-94.933a12.453 12.453 0 0 1-6.142-9.037l-.049-.049-.099-1.228-.884-14.39 10.171.05 113.604-93.657 163.476 94.344 16.953.098.147 2.063.786 14.635c-.098 3.389-1.474 6.238-3.882 8.202l-112.129 92.429c-2.801 2.308-6.289 3.487-9.778 3.487zM113.581 219.038l.098 1.228c.147 2.897 1.671 5.402 4.177 6.875l164.508 94.934c3.98 2.308 9.042 1.866 12.579-1.032l112.13-92.428c1.474-1.179 2.309-2.947 2.358-4.912l-.688-12.572-14.151-.049-.491-.295-161.364-93.116-112.523 92.723h-7.174l.541 8.644z" fill="#000"/><path d="M296.319 322.713l112.129-92.429c2.064-1.719 3.047-4.076 3.096-6.482l-.786-14.685a.105.105 0 0 0-.098-.098l-15.478-.049-8.108-4.666-82.893 55.448-16.068 33.003v32.905c2.948-.049 5.848-.983 8.206-2.947z" fill="#000"/><path d="M286 327.821v-35.557l16.559-33.986 84.515-56.429 8.746 5.058 16.953.05.147 2.111.786 14.636c-.098 3.388-1.474 6.237-3.882 8.201l-112.129 92.429c-2.653 2.161-6.044 3.389-9.532 3.438l-2.163.049zm4.226-34.575v30.106a10.724 10.724 0 0 0 4.766-2.259l112.13-92.429c1.474-1.179 2.309-2.947 2.358-4.911l-.688-12.573-14.151-.049-7.419-4.273-81.37 54.318-15.626 32.07zM121.295 206.858l-1.474 1.228h-8.697l.737 12.131h.049c.197 3.389 1.966 6.679 5.258 8.594l.295-.54 18.278 11.689-14.446-33.102z" fill="#000"/><path d="M134.562 241.679l-16.411-10.461-.246.491-1.867-1.081a12.451 12.451 0 0 1-6.142-9.036l-.05-.049-.098-1.228-.884-14.39 10.171.049.884-.736 2.703 3.241-2.064 1.719h-7.174l.639 9.871c.098 2.161.983 4.126 2.457 5.55l.246-.393 20.195 12.867-2.359 3.586z" fill="#000"/><path d="M280.595 310.73l-164.508-94.934c-6.388-3.683-7.125-12.621-1.425-17.287l110.753-91.299c3.833-3.192 9.287-3.634 13.611-1.13l167.506 96.653c5.307 3.045 5.897 10.411 1.179 14.291l-112.129 92.429c-4.226 3.536-10.22 4.027-14.987 1.277z" fill="#91BFBF"/><path d="M287.18 314.61c-2.654 0-5.258-.688-7.616-2.014l-164.558-94.982a12.688 12.688 0 0 1-6.29-9.921c-.344-4.125 1.376-8.201 4.57-10.854l110.753-91.299c4.521-3.732 10.958-4.272 16.019-1.326l167.506 96.702a10.825 10.825 0 0 1 5.405 8.496 10.871 10.871 0 0 1-3.931 9.282l-112.08 92.429c-2.801 2.308-6.29 3.487-9.778 3.487zm-54.149-208.038c-2.26 0-4.471.737-6.289 2.259L115.988 200.13a8.304 8.304 0 0 0-3.046 7.219c.246 2.8 1.769 5.206 4.177 6.631l164.508 94.933c3.98 2.308 9.041 1.866 12.579-1.032l112.179-92.477c1.72-1.424 2.555-3.487 2.407-5.648-.196-2.21-1.375-4.076-3.292-5.206l-167.555-96.652a9.846 9.846 0 0 0-4.914-1.326z" fill="#000"/><path d="M282.708 299.729l-156.843-91.054c-1.425-.835-1.572-2.75-.295-3.83l105.693-87.714c1.523-1.228 3.636-1.425 5.306-.442l158.121 91.102c1.229.688 1.376 2.407.295 3.34L288.9 299.188a5.423 5.423 0 0 1-6.192.541z" fill="#fff"/><path d="M285.411 302.577a7.43 7.43 0 0 1-3.784-1.031l-156.843-91.004c-1.278-.737-2.064-2.014-2.211-3.487a4.613 4.613 0 0 1 1.572-3.782l105.692-87.714c2.162-1.817 5.258-2.062 7.715-.638l158.121 91.102c1.179.688 1.965 1.867 2.064 3.242.098 1.375-.443 2.701-1.474 3.536l-106.037 88.008a7.386 7.386 0 0 1-4.815 1.768zm-51.2-184.366c-.59 0-1.18.197-1.622.59l-105.692 87.713.049.344 156.843 91.005a3.346 3.346 0 0 0 3.784-.295l106.036-88.009-158.121-91.004a2.385 2.385 0 0 0-1.277-.344z" fill="#000"/><path d="M398.818 181.124v-11.836c0-.197-.148-.344-.344-.393l-29.531-8.202c-.049 0-.049-.049-.099-.049l-72.525-42.187a.369.369 0 0 0-.442 0l-25.404 14.684c-.098.05-.245.099-.344.05l-9.188-2.554c-.295-.099-.541.098-.541.393 0 2.357.05 11.099.05 11.344v.099c.147 1.522.982 2.996 2.505 3.929l93.507 54.366a13.18 13.18 0 0 0 13.316 0l26.435-15.273a5.105 5.105 0 0 0 2.556-4.273l.049-.098z" fill="#91BFBF"/><path d="M363.145 204.648c-2.703 0-5.356-.687-7.764-2.063l-93.506-54.366c-2.015-1.179-3.293-3.193-3.538-5.501 0-.196-.049-.491-.098-11.64 0-.785.343-1.522.982-2.013.639-.491 1.474-.639 2.261-.442l8.5 2.357 24.765-14.291a2.627 2.627 0 0 1 2.555 0l72.378 42.089 29.334 8.152c1.081.295 1.868 1.326 1.868 2.456v11.885l-.05.295c-.098 2.308-1.424 4.567-3.586 5.795l-26.436 15.274c-2.309 1.326-5.012 2.013-7.665 2.013zm-100.632-71.409c0 3.34.05 8.546.05 9.037.049.54.343 1.621 1.474 2.259l93.506 54.367a11.141 11.141 0 0 0 11.203 0l26.436-15.274a3.019 3.019 0 0 0 1.474-2.504h2.113-2.113v-10.51l-28.892-8.104-71.74-41.696-24.519 14.193c-.589.344-1.326.442-1.965.246l-7.027-2.014z" fill="#000"/><path d="M398.474 168.944l-29.531-8.202c-.049 0-.049-.049-.098-.049l-6.093-3.536v45.428c2.408.049 4.864-.491 7.076-1.768l26.435-15.274a5.101 5.101 0 0 0 2.555-4.272v-.099-11.835c0-.197-.147-.344-.344-.393z" fill="#000"/><path d="M363.145 204.648h-.491l-2.064-.049v-51.175l9.09 5.304 29.285 8.153c1.081.295 1.868 1.326 1.868 2.456v11.885c-.099 2.652-1.475 4.862-3.637 6.139l-26.435 15.273c-2.211 1.326-4.864 2.014-7.616 2.014zm1.72-43.857v39.486a10.782 10.782 0 0 0 3.882-1.375l26.435-15.274c.884-.54 1.425-1.424 1.474-2.505v-10.559l-28.892-8.103-2.899-1.67zM267.82 137.169s.737-1.965 1.621-4.47l-8.5-2.357c-.295-.098-.541.098-.541.393 0 2.357.05 11.099.05 11.345v.098c.147 1.522.982 2.996 2.505 3.929l4.865 2.848v-11.786z" fill="#000"/><path d="M269.933 152.639l-8.058-4.666c-2.015-1.179-3.293-3.192-3.538-5.5 0-.197-.049-.492-.098-11.64 0-.786.343-1.522.982-2.014.639-.491 1.474-.638 2.261-.442l10.662 2.996-.786 2.161c-.688 1.866-1.228 3.438-1.474 4.126v14.979h.049zm-7.42-19.645c0 3.34.05 8.545.05 9.037.049.54.343 1.62 1.474 2.259l1.719.982.148-8.84s.344-.933.835-2.309l-4.226-1.129z" fill="#000"/><path d="M356.708 189.08l-93.752-54.465c-3.44-1.965-3.44-6.925 0-8.89l26.681-15.421a12.832 12.832 0 0 1 12.873 0l93.753 54.465c3.439 1.965 3.439 6.925 0 8.89l-26.681 15.421a12.834 12.834 0 0 1-12.874 0z" fill="#fff"/><path d="M363.145 192.91c-2.604 0-5.209-.687-7.518-2.013l-93.752-54.465c-2.261-1.326-3.636-3.684-3.636-6.287 0-2.602 1.375-4.96 3.636-6.286l26.681-15.421c4.619-2.652 10.367-2.652 15.035 0l93.753 54.465c2.26 1.326 3.636 3.683 3.636 6.286 0 2.603-1.376 4.961-3.636 6.287l-26.681 15.421c-2.359 1.375-4.914 2.013-7.518 2.013zm-5.405-5.647c3.341 1.915 7.469 1.915 10.761 0l26.681-15.422a3.013 3.013 0 0 0 1.523-2.602c0-1.081-.541-2.063-1.523-2.603l-93.753-54.515c-3.341-1.915-7.468-1.915-10.76 0l-26.682 15.422a3.013 3.013 0 0 0-1.523 2.602c0 1.081.541 2.063 1.523 2.652l93.753 54.466z" fill="#000"/><path d="M177.704 205.532l81.763 46.853 52.723-43.759-81.173-47.344-53.313 44.25z" fill="#91BFBF"/><path d="M259.663 254.988l-85.644-49.161 56.752-47.098 85.104 49.603-56.212 46.656zm-78.225-49.8l77.783 44.643 49.284-40.91-77.292-45.036-49.775 41.303z" fill="#000"/><path d="M156.526 203.175l81.763 46.901 52.723-43.807-81.173-47.344-53.313 44.25z" fill="#fff"/><path d="M238.486 252.63l-85.645-49.161 56.752-47.098 85.105 49.603-56.212 46.656zm-78.226-49.799l77.783 44.643 49.284-40.911-77.291-45.035-49.776 41.303z" fill="#000"/><path d="M195.098 170.908l14.839 8.742a6.303 6.303 0 0 0 7.322-.638l26.189-22.248c1.769-1.522 1.573-4.322-.442-5.55l-14.544-8.938a6.297 6.297 0 0 0-7.42.589l-26.435 22.445c-1.818 1.522-1.572 4.42.491 5.598z" fill="#91BFBF"/><path d="M213.131 182.646a8.375 8.375 0 0 1-4.275-1.179l-14.839-8.742a5.477 5.477 0 0 1-2.702-4.321c-.148-1.768.589-3.536 1.965-4.715l26.485-22.493a8.436 8.436 0 0 1 9.876-.737l14.545 8.938a5.55 5.55 0 0 1 2.653 4.322c.147 1.817-.59 3.487-1.966 4.666l-26.189 22.247c-1.671 1.326-3.587 2.014-5.553 2.014zm12.039-39.191c-.983 0-1.917.344-2.703.982l-26.484 22.493c-.492.393-.492.933-.443 1.13 0 .196.099.736.639 1.031l14.839 8.742a4.311 4.311 0 0 0 4.865-.393l26.19-22.248c.491-.392.491-.933.442-1.129 0-.197-.098-.737-.639-1.031l-14.544-8.939c-.639-.442-1.425-.638-2.162-.638z" fill="#000"/><path d="M195.098 166.93l14.839 8.742a6.303 6.303 0 0 0 7.322-.638l26.189-22.248c1.769-1.522 1.573-4.322-.442-5.55l-14.544-8.938a6.297 6.297 0 0 0-7.42.589l-26.435 22.445c-1.818 1.522-1.572 4.371.491 5.598z" fill="#91BFBF"/><path d="M213.131 178.668a8.375 8.375 0 0 1-4.275-1.179l-14.839-8.742c-1.523-.933-2.555-2.504-2.702-4.321-.148-1.768.589-3.537 1.965-4.715l26.485-22.493a8.436 8.436 0 0 1 9.876-.737l14.545 8.938a5.55 5.55 0 0 1 2.653 4.322c.147 1.817-.59 3.487-1.966 4.666l-26.189 22.247c-1.671 1.326-3.587 2.014-5.553 2.014zm-17.001-13.555l14.839 8.742c1.524.933 3.489.737 4.865-.442l26.19-22.248c.491-.393.491-.933.442-1.129 0-.197-.098-.737-.639-1.032l-14.544-8.938c-1.573-.933-3.538-.786-4.914.393l-26.485 22.493c-.491.393-.491.933-.442 1.13.098.196.197.687.688 1.031z" fill="#000"/><path d="M264.872 273.748l14.839 8.742a6.301 6.301 0 0 0 7.321-.638l5.356-3.929c1.769-1.523 1.573-4.322-.442-5.55l-14.544-8.938a6.297 6.297 0 0 0-7.42.589l-5.651 4.126c-1.719 1.522-1.474 4.371.541 5.598z" fill="#91BFBF"/><path d="M282.954 285.486a8.55 8.55 0 0 1-4.324-1.179l-14.79-8.742a5.477 5.477 0 0 1-2.702-4.321c-.148-1.768.589-3.536 1.965-4.715l5.7-4.224c2.653-2.259 6.633-2.603 9.778-.638l14.545 8.938a5.55 5.55 0 0 1 2.653 4.322c.147 1.817-.59 3.487-1.966 4.666l-5.503 4.027c-1.523 1.228-3.39 1.866-5.356 1.866zm-8.795-20.872c-.983 0-1.916.343-2.703.982l-5.749 4.223c-.344.295-.344.835-.344 1.032 0 .196.099.736.639 1.031l14.839 8.742a4.311 4.311 0 0 0 4.865-.393l5.503-4.027c.344-.295.344-.835.344-1.031 0-.197-.098-.737-.639-1.032l-14.593-8.889c-.639-.442-1.425-.638-2.162-.638z" fill="#000"/><path d="M264.872 269.721l14.839 8.742a6.3 6.3 0 0 0 7.321-.638l5.356-3.929c1.769-1.522 1.572-4.322-.442-5.55l-14.545-8.938a6.296 6.296 0 0 0-7.419.589l-5.651 4.126c-1.72 1.522-1.474 4.42.541 5.598z" fill="#91BFBF"/><path d="M282.954 281.459a8.559 8.559 0 0 1-4.324-1.178l-14.839-8.742a5.56 5.56 0 0 1-2.703-4.322c-.147-1.768.59-3.536 1.966-4.715l5.749-4.224c2.653-2.259 6.633-2.602 9.778-.638l14.544 8.938a5.55 5.55 0 0 1 2.654 4.322c.147 1.817-.59 3.487-1.966 4.666l-5.503 4.027c-1.523 1.228-3.39 1.866-5.356 1.866zm-8.795-20.872c-.983 0-1.917.343-2.703.982l-5.749 4.224c-.344.294-.344.834-.344 1.031 0 .196.099.737.639 1.031l14.839 8.742c1.524.933 3.489.737 4.865-.393l5.503-4.027c.344-.295.344-.835.344-1.031 0-.197-.098-.737-.639-1.032l-14.544-8.938c-.688-.344-1.474-.589-2.211-.589z" fill="#000"/><path d="M254.504 190.357l14.839 8.742a6.303 6.303 0 0 0 7.322-.639l5.355-3.929c1.769-1.522 1.573-4.322-.442-5.549l-14.544-8.939a6.296 6.296 0 0 0-7.42.59l-5.651 4.125c-1.719 1.522-1.474 4.371.541 5.599z" fill="#91BFBF"/><path d="M272.586 202.095a8.55 8.55 0 0 1-4.324-1.179l-14.839-8.742a5.479 5.479 0 0 1-2.702-4.322c-.148-1.768.589-3.536 1.965-4.715l5.749-4.223c2.654-2.259 6.634-2.554 9.778-.639l14.545 8.939a5.547 5.547 0 0 1 2.653 4.321c.147 1.818-.59 3.487-1.965 4.666l-5.504 4.027c-1.523 1.228-3.39 1.867-5.356 1.867zm-8.795-20.873c-.983 0-1.916.344-2.702.982l-5.749 4.224c-.344.294-.344.835-.344 1.031 0 .197.098.737.638 1.032l14.84 8.741c1.523.934 3.488.737 4.864-.392l5.503-4.028c.344-.294.344-.835.344-1.031 0-.196-.098-.737-.638-1.031l-14.545-8.939a4.52 4.52 0 0 0-2.211-.589z" fill="#000"/><path d="M254.504 186.33l14.839 8.742a6.303 6.303 0 0 0 7.322-.639l5.355-3.929c1.769-1.522 1.573-4.322-.442-5.55l-14.544-8.938a6.297 6.297 0 0 0-7.42.589l-5.651 4.126c-1.719 1.522-1.474 4.42.541 5.599z" fill="#91BFBF"/><path d="M272.586 198.067a8.55 8.55 0 0 1-4.324-1.179l-14.839-8.741a5.48 5.48 0 0 1-2.702-4.322c-.148-1.768.589-3.536 1.965-4.715l5.749-4.224c2.654-2.259 6.634-2.553 9.778-.638l14.545 8.938a5.55 5.55 0 0 1 2.653 4.322c.147 1.817-.59 3.487-1.965 4.666l-5.504 4.027c-1.523 1.228-3.39 1.866-5.356 1.866zm-8.795-20.872c-.983 0-1.916.343-2.702.982l-5.749 4.223c-.344.295-.344.835-.344 1.032 0 .196.098.737.638 1.031l14.84 8.742a4.31 4.31 0 0 0 4.864-.393l5.503-4.027c.344-.295.344-.835.344-1.031 0-.197-.098-.737-.638-1.032l-14.594-8.889c-.639-.393-1.425-.638-2.162-.638zM333.764 219.119l-39.696 20.143 2.357 4.642 39.697-20.143-2.358-4.642zM349.277 211.297l-27.345 31.489 3.933 3.412 27.346-31.489-3.934-3.412z" fill="#000"/><path d="M368.206 269.378c-.737 0-1.327.638-1.278 1.375l3.784 18.908c0 2.259 2.211 4.518 6.633 5.648 2.457.589 5.012.589 7.469 0 4.422-1.08 6.633-3.34 6.633-5.648l3.784-18.908c.098-.737-.492-1.375-1.278-1.375h-25.747z" fill="#91BFBF"/><path d="M381.079 297.912c-1.425 0-2.849-.148-4.225-.491-5.061-1.228-8.108-4.028-8.255-7.465l-3.735-18.712c-.147-1.13.197-2.112.836-2.799.639-.688 1.572-1.13 2.506-1.13h25.747c.934 0 1.867.393 2.506 1.13.639.687.934 1.669.885 2.602l-3.735 18.909c-.147 3.437-3.194 6.188-8.255 7.465-1.425.294-2.85.491-4.275.491zm-11.891-26.423l3.587 18.172c0 1.179 1.573 2.701 5.061 3.585 2.113.54 4.374.54 6.486 0 3.489-.835 5.062-2.406 5.062-3.585l.049-.393 3.537-17.779h-23.782z" fill="#000"/><path d="M391.153 263.582c5.601 3.242 5.601 8.448 0 11.64-5.602 3.241-14.643 3.241-20.195 0-5.602-3.241-5.602-8.447 0-11.64 5.601-3.241 14.642-3.241 20.195 0z" fill="#91BFBF"/><path d="M381.08 279.789c-4.03 0-8.01-.884-11.154-2.701-3.391-1.964-5.258-4.665-5.258-7.661 0-2.996 1.867-5.697 5.258-7.662 6.24-3.634 16.067-3.634 22.308 0 3.39 1.965 5.257 4.666 5.257 7.662 0 2.996-1.867 5.697-5.257 7.661-3.145 1.768-7.174 2.701-11.154 2.701zm0-16.501c-3.293 0-6.585.687-9.042 2.112-1.965 1.129-3.144 2.602-3.144 3.978 0 1.375 1.13 2.848 3.144 3.978 4.914 2.848 13.169 2.848 18.083 0 1.965-1.13 3.144-2.603 3.144-3.978 0-1.376-1.13-2.849-3.144-3.978-2.457-1.425-5.749-2.112-9.041-2.112z" fill="#000"/><path d="M148.271 422.116c-1.572 5.992-2.113 12.229-1.67 18.417 0 0 11.35 5.206 19.752 1.179 8.403-4.077 15.724.54 16.265.785.54.246 22.602-3.192 22.75-2.652.147.59 5.307-9.38-2.457-12.867s-25.404-10.412-25.404-10.412l-9.286-3.192-15.871 4.567c-1.966.541-3.538 2.112-4.079 4.175z" fill="#fff"/><path d="M158.934 445.297c-6.781 0-12.874-2.751-13.218-2.898l-1.13-.54-.098-1.228a57.776 57.776 0 0 1 1.719-19.055c.688-2.751 2.85-4.912 5.553-5.697l16.51-4.764 9.925 3.438c.246.098 17.886 7.023 25.6 10.51 4.374 1.964 6.29 6.089 5.258 11.246-.393 2.063-1.425 5.599-3.587 5.648l-1.671.049v-.098c-2.604.245-8.205 1.031-12.185 1.571-8.992 1.228-8.992 1.228-9.729.934l-.492-.246c-4.815-2.505-9.68-2.75-14.102-.589-2.653 1.277-5.552 1.719-8.353 1.719zm-10.27-6.287c2.948 1.13 10.859 3.585 16.805.737 5.503-2.652 11.793-2.456 17.689.54 1.228-.098 4.766-.589 7.862-1.031 7.076-.982 11.006-1.523 13.218-1.621.54-1.277 1.228-3.732.638-5.746-.393-1.375-1.326-2.357-2.8-3.045-7.617-3.438-25.158-10.313-25.306-10.362l-8.549-2.947-15.233 4.371c-1.277.393-2.309 1.424-2.653 2.701-1.376 5.402-1.966 10.903-1.671 16.403z" fill="#000"/><path d="M149.647 403.944l1.72 11.64s4.373 6.875 13.07 4.518 2.703-21.462 2.703-21.462l-17.493 5.304z" fill="#D8B182"/><path d="M160.949 422.705c-5.848 0-9.877-3.634-11.351-5.943l-.246-.393-2.063-13.898 21.227-6.434.638 2.014c.443 1.375 4.177 13.751.59 20.332a7.78 7.78 0 0 1-4.717 3.831 17.406 17.406 0 0 1-4.078.491zm-7.568-7.907c.885 1.179 4.423 4.96 10.516 3.29.933-.245 1.621-.835 2.113-1.768 1.965-3.536.737-10.804-.344-15.028l-13.66 4.125 1.375 9.381z" fill="#000"/><path d="M188.219 309.846l-40.636 15.175c-1.572 5.746-2.555 12.524-1.572 19.498 2.555 17.68 1.818 43.316.393 60.064 0 0 8.943 10.902 23.045 1.031 0 0 9.631-69.395 18.082-93.264.295-.884.442-1.669.688-2.504z" fill="#000"/><path d="M157.951 411.851c-8.157 0-13.119-5.844-13.168-5.942l-.541-.688.049-.835c1.425-16.452 2.162-41.941-.393-59.573-.884-6.286-.344-13.112 1.622-20.381l.294-1.031 45.599-17.042-1.376 4.862c-.147.589-.295 1.179-.54 1.817-8.255 23.377-17.886 92.134-17.984 92.822l-.148.933-.737.54c-4.766 3.34-9.041 4.518-12.677 4.518zm-9.385-8.054c1.916 1.866 8.746 7.17 18.918.54 1.179-8.496 9.63-67.283 17.443-91.053l-35.624 13.309c-1.621 6.286-2.015 12.18-1.228 17.582 2.555 17.68 1.867 42.924.491 59.622zM190.713 421.858l-1.951 5.976 4.017 1.31 1.951-5.975-4.017-1.311zM182.874 419.489l-1.952 5.976 4.017 1.311 1.952-5.976-4.017-1.311zM176.174 416.279l-1.951 5.976 4.017 1.31 1.951-5.975-4.017-1.311z" fill="#000"/><path d="M205.368 439.796c.098.393 2.751-4.567 1.425-8.692-15.921 4.714-53.608 2.602-60.192 2.21a57.947 57.947 0 0 0 0 7.17s11.35 5.206 19.752 1.179c8.403-4.077 15.724.54 16.265.785.54.197 22.602-3.241 22.75-2.652z" fill="#91BFBF"/><path d="M158.885 445.297c-6.781 0-12.874-2.75-13.218-2.898l-1.13-.54-.099-1.228a54.089 54.089 0 0 1 0-7.465l.099-2.112 2.113.148c7.223.442 44.026 2.455 59.455-2.112l1.965-.59.639 1.965c1.474 4.616-.835 9.724-1.769 10.755l-.835.934-1.376-.295c-1.72.049-8.599.982-13.218 1.621-8.943 1.227-8.992 1.227-9.729.933l-.491-.246c-4.816-2.505-9.68-2.75-14.102-.589-2.605 1.277-5.504 1.719-8.304 1.719zm-10.27-6.287c2.948 1.13 10.859 3.586 16.805.737 5.503-2.652 11.792-2.455 17.689.54 1.228-.098 4.717-.589 7.862-1.031 7.075-.982 11.006-1.522 13.217-1.621.393-.884.836-2.406.836-3.929-15.773 3.684-46.238 2.358-56.458 1.768 0 1.277 0 2.456.049 3.536z" fill="#000"/><path d="M99.724 516.067l-5.06-8.349 55.032-33.151a19.386 19.386 0 0 0 9.238-19.448l-7.911-54.22 9.679-1.424 7.911 54.22c1.72 11.688-3.734 23.18-13.856 29.221l-55.033 33.151zM21.008 469.017l-5.061-8.349 57.047-34.378c6.044-3.634 9.778-9.97 10.073-16.993l1.965-52.451 9.779.393-1.966 52.451c-.393 10.314-5.896 19.694-14.79 24.998l-57.047 34.329z" fill="#000"/><path d="M186.745 381.992v-10.609c0-.196-.099-.294-.295-.343l-26.436-7.367c-.049 0-.049 0-.098-.049l-64.958-37.767a.544.544 0 0 0-.393 0L32.16 361.365c-.098.049-.196.049-.294.049l-8.206-2.309c-.246-.049-.492.099-.492.393 0 2.112.05 9.921.05 10.166v.05c.147 1.375.884 2.701 2.21 3.487l83.778 48.719a11.81 11.81 0 0 0 11.94 0l63.337-36.049c1.474-.835 2.211-2.308 2.261-3.781v-.098z" fill="#91BFBF"/><path d="M115.153 425.652c-2.457 0-4.865-.638-7.076-1.915l-83.68-48.67c-1.866-1.081-3.045-2.947-3.291-5.108-.05-.442-.05-7.465-.05-10.461 0-.785.345-1.522.983-2.013a2.402 2.402 0 0 1 2.211-.393l7.518 2.112 61.765-35.164a2.534 2.534 0 0 1 2.506 0l64.762 37.668 26.189 7.318a2.476 2.476 0 0 1 1.818 2.406V382.09l-.049.294c-.098 2.161-1.326 4.224-3.341 5.354l-63.337 36.097a14.02 14.02 0 0 1-6.928 1.817zm-89.87-63.845c0 2.995.048 7.366.048 7.808.05.442.295 1.326 1.18 1.867l83.728 48.67a9.768 9.768 0 0 0 9.828 0l63.336-36.098c1.032-.589 1.18-1.62 1.229-2.062h2.113-2.113v-9.233l-25.797-7.318-64.074-37.227-62.256 35.459-1.179-.197-6.044-1.669z" fill="#000"/><path d="M30.049 360.922l-6.388-1.768c-.246-.049-.492.099-.492.393 0 2.112.05 9.921.05 10.166v.049c.147 1.376.884 2.702 2.21 3.487l4.57 2.652v-14.979h.05z" fill="#000"/><path d="M32.161 379.585l-7.763-4.518c-1.867-1.081-3.046-2.947-3.292-5.108-.05-.442-.05-7.465-.05-10.461 0-.786.345-1.522.983-2.013a2.378 2.378 0 0 1 2.211-.393l7.911 2.21v20.283zm-6.879-17.779c0 2.996.05 7.367.05 7.809.049.442.294 1.326 1.179 1.867l1.425.834v-9.724l-2.654-.786zM186.45 371.039l-26.436-7.366c-.049 0-.049 0-.098-.049l-45.156 33.003v26.864c2.162.049 4.373-.442 6.289-1.572l63.337-36.048c1.474-.835 2.211-2.308 2.26-3.781v-.099-10.608c.099-.147 0-.294-.196-.344z" fill="#000"/><path d="M115.202 425.652h-.442l-2.064-.049v-30.008l47.122-34.427 1.032.54 26.239 7.318a2.476 2.476 0 0 1 1.818 2.406V382.09c-.099 2.455-1.376 4.518-3.342 5.648l-63.336 36.097c-2.162 1.178-4.57 1.817-7.027 1.817zm1.72-27.945v23.525a10.498 10.498 0 0 0 3.145-1.13l63.336-36.097c1.032-.589 1.18-1.621 1.229-2.063v-9.233l-24.274-6.777-43.436 31.775z" fill="#000"/><path d="M109.404 411.458L25.479 362.69c-3.047-1.768-3.047-6.188 0-7.956l63.533-36.195a11.545 11.545 0 0 1 11.547 0l83.925 48.768c3.047 1.768 3.047 6.188 0 7.956l-63.582 36.245a11.34 11.34 0 0 1-11.498-.05z" fill="#fff"/><path d="M115.153 415.142c-2.359 0-4.717-.639-6.83-1.817l-83.925-48.768c-2.113-1.228-3.341-3.389-3.341-5.845a6.663 6.663 0 0 1 3.34-5.795l63.584-36.195a13.701 13.701 0 0 1 13.659.049l83.925 48.768c2.113 1.228 3.342 3.389 3.342 5.844a6.66 6.66 0 0 1-3.342 5.795l-63.582 36.196a14.03 14.03 0 0 1-6.83 1.768zM94.81 319.128c-1.621 0-3.243.442-4.717 1.277l-63.582 36.146c-1.13.639-1.229 1.719-1.229 2.161 0 .442.099 1.523 1.229 2.161l83.925 48.768c2.899 1.67 6.486 1.67 9.434 0l63.583-36.195c1.13-.639 1.228-1.719 1.228-2.161 0-.442-.098-1.523-1.228-2.161l-83.925-48.768a9.528 9.528 0 0 0-4.718-1.228z" fill="#000"/><path d="M154.118 203.421l10.614-6.238a23.106 23.106 0 0 1 13.119-3.094c5.946.393 9.926 1.523 12.972 6.68l.295 2.504-10.417 3.291-.344 1.424 3.39 1.424s-3.046 9.921-21.865 7.563c-17.247-2.259-7.764-13.554-7.764-13.554z" fill="#D8B182"/><path d="M167.434 219.333c-1.769 0-3.685-.098-5.749-.393-6.437-.786-10.367-2.996-11.743-6.483-1.966-4.96 2.407-10.264 2.604-10.461l.54-.442 10.614-6.237a24.733 24.733 0 0 1 14.299-3.389c6.436.442 11.154 1.867 14.642 7.662l.246.393.59 4.665-8.698 2.751 1.622.687-.541 1.817c-.196.442-3.144 9.43-18.426 9.43zm-11.891-14.292c-.884 1.179-2.457 3.929-1.67 5.943.737 1.866 3.685 3.241 8.304 3.781 11.891 1.474 16.755-2.111 18.573-4.42l-2.85-1.178 1.032-4.322 9.877-3.094-.05-.295c-2.555-4.027-5.65-4.911-11.055-5.255A20.545 20.545 0 0 0 165.813 199l-10.27 6.041z" fill="#000"/><path d="M144.34 207.497l5.749-3.045c.885-.491 1.916-.393 2.703.197 1.818 1.424 5.159 4.518 7.124 9.429.492 1.228-.196 2.652-1.425 3.143l-6.486 2.75a2.532 2.532 0 0 1-3.095-.884l-5.454-7.907c-.885-1.227-.442-2.946.884-3.683z" fill="#000"/><path d="M151.023 222.329a4.712 4.712 0 0 1-3.833-2.014l-5.454-7.907a4.766 4.766 0 0 1-.688-3.732c.295-1.277 1.179-2.358 2.31-2.996l5.749-3.045c1.621-.884 3.586-.688 5.011.393 1.966 1.571 5.651 4.96 7.764 10.313.884 2.259-.246 4.911-2.555 5.894l-6.486 2.75c-.59.196-1.229.344-1.818.344zm.295-16.109c-.099 0-.148.049-.246.049l-5.749 3.045a.298.298 0 0 0-.197.246c0 .098-.049.196.05.343l5.454 7.907c.098.148.344.246.491.148l6.486-2.75c.197-.099.344-.295.295-.443-1.769-4.42-4.815-7.268-6.437-8.545-.049.049-.098 0-.147 0z" fill="#000"/><path d="M78.252 201.603c1.425 3.929-2.064-4.96 0 0C84 215.453 90.88 230.53 90.88 230.53s16.51-7.317 28.646-11.246c10.761-3.487 19.753-9.43 21.62-10.707.246-.196.541-.196.836-.147 1.867.589 8.844 3.192 9.286 11.247 0 .343-.098.687-.393.933-4.275 3.536-41.962 34.476-69.97 40.124 0 0-16.166-13.407-24.126-38.504-8.01-25.047 18.082-30.105 21.473-20.627z" fill="#91BFBF"/><path d="M80.365 263.043l-.787-.639c-.688-.54-16.755-14.095-24.814-39.486-5.011-15.716 2.408-24.359 10.22-27.011 5.357-1.768 10.663-.786 13.513 2.161.64.392 1.032 1.178 1.425 2.062.099.197.197.442.295.688 4.472 10.804 9.68 22.444 11.695 26.913 4.717-2.063 17.247-7.318 26.926-10.461 10.565-3.438 19.409-9.282 21.08-10.461a2.987 2.987 0 0 1 2.653-.392c4.914 1.473 10.368 5.746 10.81 13.162.049 1.031-.344 2.013-1.13 2.652-4.275 3.536-42.405 34.82-70.904 40.615l-.982.197zM70.34 199.246c-1.278 0-2.654.197-4.03.688-6.338 2.112-11.596 8.938-7.566 21.707 6.731 21.118 19.507 33.887 22.75 36.834 26.632-5.942 61.863-34.378 67.611-39.142-.589-5.697-5.159-7.956-7.272-8.693-2.604 1.719-11.35 7.318-21.669 10.657-11.891 3.88-28.253 11.1-28.45 11.149l-1.916.835-.885-1.916c-.049-.147-6.535-14.291-12.087-27.65-.344-.54-.639-1.276-.885-1.964-.049-.049-.049-.147-.098-.246-.983-1.424-3.046-2.259-5.503-2.259z" fill="#000"/><path d="M227.97 447.163a56.638 56.638 0 0 0 1.278 18.417s12.038 3.389 19.704-1.965c7.665-5.304 15.625-1.915 16.215-1.817.589.148 21.816-6.728 22.013-6.188.245.54 3.734-10.068-4.472-12.327-8.205-2.21-26.73-6.286-26.73-6.286l-9.68-1.719-14.937 7.023c-1.916.982-3.194 2.799-3.391 4.862z" fill="#fff"/><path d="M237.601 468.772c-4.815 0-8.648-1.031-8.943-1.13l-1.228-.343-.295-1.228c-1.474-6.287-1.916-12.72-1.277-19.105.245-2.799 2.014-5.304 4.569-6.532l15.577-7.317 10.318 1.817c.295.049 18.77 4.125 26.927 6.335 4.619 1.277 7.174 5.01 6.977 10.314-.098 2.112-.54 5.746-2.604 6.139l-1.671.294-.049-.049c-2.506.639-7.96 2.309-11.792 3.438-8.648 2.652-8.698 2.603-9.435 2.456l-.491-.148c-5.159-1.719-9.975-1.178-14.004 1.621-3.882 2.701-8.55 3.438-12.579 3.438zm-6.633-4.96c3.046.638 11.301 1.817 16.706-1.916 5.012-3.487 11.252-4.272 17.542-2.259 1.179-.295 4.57-1.326 7.616-2.259 6.83-2.063 10.614-3.241 12.776-3.683.343-1.326.589-3.831-.295-5.747-.59-1.276-1.671-2.16-3.243-2.553-8.059-2.21-26.436-6.238-26.632-6.238l-8.894-1.571-14.348 6.728c-1.228.59-2.064 1.768-2.162 3.094-.491 5.501-.196 11.001.934 16.404z" fill="#000"/><path d="M225.219 429.827l3.587 11.246s5.454 6.09 13.611 2.358c8.157-3.733-.786-21.61-.786-21.61l-16.412 8.006z" fill="#D8B182"/><path d="M237.159 446.77c-4.717 0-8.353-2.456-9.975-4.273l-.294-.344-4.275-13.407 19.949-9.725.934 1.867c.638 1.326 6.289 12.916 3.783 19.988-.737 2.063-2.113 3.635-4.078 4.519-2.064.933-4.128 1.375-6.044 1.375zm-6.486-6.827c1.081 1.032 5.159 4.175 10.908 1.572.885-.393 1.474-1.081 1.818-2.063 1.376-3.831-1.031-10.805-2.702-14.783l-12.825 6.287 2.801 8.987z" fill="#000"/><path d="M53.094 338.723s25.06 32.856 47.122 40.027c13.316 4.321 38.081 3.83 57.981-9.823 0 0 19.704-12.572 31.251-23.328.54-.491 1.425-.098 1.375.639-.245 5.451 1.524 23.082 9.385 35.065 9.828 14.93 18.427 35.852 24.225 51.617 0 0 12.726 6.09 21.325-8.84 0 0-20.736-66.94-23.242-92.085-1.572-15.765-10.564-23.082-17.05-26.324-3.587-1.768-7.616-2.357-11.547-1.768l-6.339.933c-11.154 1.67-22.16 4.469-32.724 8.447l-51.053 18.958-50.709 6.482z" fill="#000"/><path d="M230.673 436.26c-4.078 0-7.026-1.375-7.125-1.375l-.786-.393-.295-.786c-8.156-22.149-16.264-39.388-24.027-51.175-6.978-10.608-9.435-25.538-9.729-33.346-11.646 10.264-28.647 21.118-29.384 21.609-19.114 13.113-44.567 14.979-59.75 10.019-22.406-7.269-47.122-39.388-48.154-40.763l-2.21-2.898 54.098-6.876 50.807-18.908c10.712-3.978 21.866-6.875 33.168-8.545l6.338-.933c4.521-.688 8.943 0 12.825 1.964 7.419 3.733 16.608 11.591 18.229 27.994 2.457 24.654 22.947 91.004 23.144 91.692l.295.884-.443.786c-5.257 8.987-11.989 11.05-17.001 11.05zm-4.57-4.96c2.555.884 10.958 2.799 17.346-7.515-2.605-8.398-20.687-67.823-23.045-91.593-1.425-14.488-9.435-21.413-15.872-24.654-3.095-1.572-6.682-2.112-10.318-1.523l-6.339.933a160.368 160.368 0 0 0-32.332 8.3l-51.495 19.105-46.974 5.942c6.633 8.104 26.386 30.744 43.781 36.392 11.497 3.733 35.967 4.273 56.113-9.528.246-.147 19.753-12.621 31.005-23.131a2.94 2.94 0 0 1 3.244-.54c1.081.491 1.768 1.62 1.67 2.799-.246 5.009 1.474 22.297 9.041 33.789 7.911 11.983 16.019 29.172 24.175 51.224z" fill="#000"/><path d="M191.56 345.747l-4.225-.295c.049-.442.786-10.755 6.781-17.336l3.144 2.848c-5.012 5.501-5.7 14.685-5.7 14.783z" fill="#91BFBF"/><path d="M269.983 441.457l-1.313 6.097 4.131.889 1.313-6.097-4.131-.889zM261.882 440.173l-1.312 6.098 4.131.888 1.312-6.098-4.131-.888zM254.811 437.867l-1.312 6.097 4.131.888 1.312-6.097-4.131-.888z" fill="#000"/><path d="M286.885 455.659c.147.344 1.671-3.978.491-7.711-20.833 8.055-58.816 11.787-59.455 11.836.246 1.965.541 3.88 1.032 5.795 0 0 12.039 3.389 19.704-1.964 7.665-5.304 15.625-1.915 16.215-1.817.59.147 21.767-6.679 22.013-6.139z" fill="#91BFBF"/><path d="M237.355 468.772c-4.815 0-8.648-1.031-8.942-1.13l-1.18-.343-.295-1.228c-.442-1.768-.737-3.684-1.031-5.992l-.295-2.161 2.162-.196c1.572-.148 38.621-3.88 58.865-11.689l2.113-.835.688 2.161c1.032 3.192.541 9.479-1.72 10.314l-1.867.736-.147-.343c-2.506.638-7.96 2.308-11.793 3.437-8.648 2.652-8.697 2.603-9.434 2.456l-.492-.147c-5.159-1.719-9.974-1.179-14.004 1.62-3.93 2.603-8.598 3.34-12.628 3.34zm-6.584-4.96c3.096.638 11.302 1.817 16.707-1.916 5.011-3.487 11.252-4.272 17.541-2.259 1.18-.295 4.57-1.326 7.616-2.259 6.83-2.063 10.614-3.241 12.776-3.683.147-.737.344-1.768.295-2.898-18.377 6.434-47.171 9.921-55.377 10.854.147.786.295 1.522.442 2.161z" fill="#000"/><path d="M146.846 303.854s14.987 35.508 14.987 55.202c0 0-14.643 31.923-51.004 29.025-15.871-1.277-45.353-16.944-58.227-33.249-5.16-6.532-.049-30.4-1.769-38.553l-18.868-85.896s-6.683-24.163 4.963-36.638a10.51 10.51 0 0 1 5.994-3.143c5.504-.835 22.603 3.585 21.768 3.389-12.923-3.34 37.294 15.814 37.294 15.814l17.984 14.635 17.149 65.663 9.729 13.751z" fill="#91BFBF"/><path d="M115.399 390.389c-1.524 0-3.145-.049-4.767-.196-15.87-1.277-46.04-16.747-59.7-34.035-3.636-4.616-2.949-15.175-2.31-25.341.393-5.746.737-11.198.099-14.046L29.9 230.825c-.245-.933-6.83-25.342 5.454-38.553 1.868-2.014 4.472-3.34 7.224-3.782 2.604-.393 15.527 1.376 21.226 3.144.443.098.934.196 1.327.294l-.049.148c.737.294 1.18.589 1.376.834l.393.688c7.026 3.094 24.42 9.872 35.771 14.242l.59.344 18.524 15.078 17.345 65.908 9.729 13.849c.639 1.474 15.184 36.147 15.184 56.037v.442l-.197.442c-.196.295-14.446 30.449-48.399 30.449zM44.593 192.616c-.54 0-.983.049-1.376.098-1.818.295-3.538 1.13-4.766 2.456-10.663 11.492-4.52 34.427-4.471 34.623l18.917 86.044c.737 3.438.393 8.89-.049 15.225-.54 8.497-1.228 19.105 1.425 22.444 12.628 16.06 41.766 31.235 56.703 32.463 32.627 2.603 46.877-23.623 48.744-27.404-.246-18.368-13.513-50.782-14.741-53.729l-9.926-14.242-16.952-64.975-17.198-13.997c-27.762-10.608-36.803-14.291-39.505-16.305-4.62-1.031-12.628-2.701-16.805-2.701zM243.41 208.53L233.179 233l4.806 2.007 10.231-24.47-4.806-2.007z" fill="#000"/><path d="M215.981 243.692s4.668-9.528 9.975-12.769c3.98-2.406 6.732.786 7.862 2.554.393.589 1.081.786 1.769.54l11.694-4.813c1.376-.54 2.949-.098 3.735 1.13 1.572 2.357 3.194 6.875-.246 13.407-5.307 10.117-24.961 12.524-24.961 12.524l-9.828-12.573z" fill="#D8B182"/><path d="M224.875 258.475l-11.4-14.488.59-1.179c.197-.393 5.012-10.117 10.81-13.653 3.685-2.259 7.665-1.178 10.417 2.701l11.203-4.616c2.309-.933 4.963-.148 6.339 1.915 1.67 2.505 3.881 7.907-.148 15.52-5.749 10.951-25.747 13.505-26.583 13.653l-1.228.147zm-6.388-15.028l8.206 10.461c4.128-.688 18.131-3.536 22.21-11.247 2.85-5.451 1.769-9.086.344-11.247-.246-.393-.737-.491-1.18-.343l-11.694 4.813a3.525 3.525 0 0 1-4.324-1.376c-2.26-3.536-4.226-2.308-4.963-1.866-3.439 2.161-6.928 7.76-8.599 10.805z" fill="#000"/><path d="M209.102 248.702l5.455-4.47a2.694 2.694 0 0 1 2.948-.343c2.26 1.129 6.486 3.732 9.581 8.545.787 1.228.344 2.849-.835 3.683l-6.338 4.322c-1.082.737-2.556.639-3.489-.294l-7.518-7.318c-1.179-1.179-1.081-3.094.196-4.125z" fill="#000"/><path d="M218.34 262.993c-1.228 0-2.457-.442-3.39-1.375l-7.518-7.318a4.958 4.958 0 0 1-1.474-3.683 4.876 4.876 0 0 1 1.769-3.585l5.454-4.469c1.474-1.228 3.538-1.474 5.208-.639 2.457 1.228 7.027 4.077 10.417 9.282 1.376 2.161.737 5.059-1.425 6.581l-6.338 4.322c-.787.639-1.72.884-2.703.884zm-7.911-12.671a.6.6 0 0 0-.246.492c0 .098 0 .294.197.491l7.518 7.317c.196.197.54.246.786.049l6.339-4.321c.245-.197.393-.541.245-.786-2.85-4.371-6.682-6.778-8.746-7.809-.246-.098-.491 0-.639.098l-5.454 4.469z" fill="#000"/><path d="M109.847 226.896c2.014-2.554 5.257-3.29 8.255-2.505a9.242 9.242 0 0 1 3.98 2.259c3.243 3.193 8.648 9.234 13.856 17.926 8.059 13.457 25.895 38.357 25.895 38.357s14.79-10.363 25.895-16.6c9.877-5.501 17.542-13.064 19.114-14.734.197-.196.492-.294.786-.294 1.917.196 9.336 1.424 11.351 9.282.098.294 0 .638-.197.884-3.341 4.125-32.233 39.289-57.981 51.666-1.719.834-3.832.442-5.208-.835-7.272-6.778-29.629-28.436-40.145-47.59-12.677-23.033-9.336-32.954-5.699-37.718l.098-.098z" fill="#91BFBF"/><path d="M158.836 315.788c-1.671 0-3.391-.638-4.668-1.866-6.781-6.335-29.826-28.583-40.587-48.129-10.024-18.221-11.891-31.678-5.552-40.027l.147-.196c2.457-3.094 6.437-4.322 10.466-3.241a10.923 10.923 0 0 1 4.914 2.799c3.636 3.585 9.041 9.724 14.151 18.319 6.683 11.197 20.441 30.695 24.617 36.49 4.226-2.947 15.478-10.559 24.372-15.52 9.68-5.402 17.247-12.916 18.672-14.34a2.897 2.897 0 0 1 2.457-.933c5.159.491 11.35 3.634 13.217 10.902.246.983 0 2.014-.589 2.751-3.243 4.027-32.529 39.633-58.669 52.255-.983.491-1.966.736-2.948.736zm-48.989-88.892l1.572 1.424c-5.258 6.876-3.292 18.81 5.896 35.41 10.466 19.006 33.069 40.812 39.752 47.049.786.737 1.916.933 2.85.491 24.568-11.836 52.33-45.085 56.9-50.683-1.671-5.501-6.634-6.827-8.796-7.122-2.211 2.211-9.729 9.381-19.212 14.685-10.908 6.09-25.6 16.354-25.748 16.452l-1.719 1.179-1.229-1.719c-.196-.245-18.033-25.096-25.993-38.504-4.914-8.25-10.073-14.046-13.513-17.483a6.489 6.489 0 0 0-3.046-1.719c-2.359-.639-4.668.049-6.044 1.768l-1.67-1.228zm1.621 1.326l-1.671-1.326 1.671 1.326z" fill="#000"/><path d="M163.848 293.541l-4.079-1.228c.934-3.045.295-7.514-.049-8.988l4.128-.884c.098.246 1.425 6.434 0 11.1z" fill="#000"/><path d="M115.448 360.382l-12.776-63.501a14.652 14.652 0 0 0-7.075-9.823l-78.275-44.839c-.982-.54-2.112-.786-3.046-.589-6.78.785-10.76 6.924-11.449 8.103-.049.098 0 .246.098.344l9.042 5.402.737-.344 10.27 53.925a14.503 14.503 0 0 0 6.78 9.675h.049l59.16 22.985c.05 0 .099.049.099.098l5.749 7.219s.049.05.049.099l7.665 23.377c.049.098.098.147.246.147 1.474 0 12.235-.344 12.824-8.987l.049-.688c.099-.54-.049-2.063-.196-2.603z" fill="#fff"/><path d="M101.198 374.772l-.688-1.621-7.567-23.033-5.208-6.532-59.111-23.083c-3.98-2.357-6.83-6.384-7.715-11.05l-10.023-52.157-9.042-5.402a2.39 2.39 0 0 1-.835-3.241c.835-1.376 5.307-8.251 13.021-9.135 1.229-.295 2.9 0 4.324.835l78.226 44.839a16.887 16.887 0 0 1 8.107 11.246l12.776 63.502c.049.344.393 2.358.196 3.389l-.049.442c-.59 8.005-8.402 10.903-14.938 10.952l-1.474.049zM14.276 252.14l10.81 56.576c.639 3.438 2.752 6.483 5.798 8.251l59.406 23.034.442.491 6.142 7.956 7.223 22.051c2.998-.245 8.992-1.424 9.385-6.974l.05-.687c.049-.442-.05-1.523-.148-2.014l-12.775-63.502c-.688-3.536-2.9-6.581-6.044-8.398l-78.274-44.888c-.64-.344-1.229-.393-1.524-.344-4.422.541-7.468 3.585-9.04 5.599l6.387 3.831 2.162-.982z" fill="#000"/><path d="M115.645 363.82l.049-.687c.098-.492-.099-2.014-.197-2.603l-12.775-63.502a14.651 14.651 0 0 0-2.604-5.844c-3.686 3.732-9.14 5.844-9.14 5.844s-11.252 6.581-12.235 6.974c-.983.393-18.72 18.319-19.458 20.283-.147.393.148 2.799.737 6.385l28.99 11.246c.05 0 .099.049.099.098l5.749 7.22s.049.049.049.098l7.665 23.377c.049.099.099.197.246.148 1.425-.049 12.186-.393 12.825-9.037z" fill="#000"/><path d="M101.248 374.919l-.688-1.621-7.567-23.082-5.209-6.532-29.678-11.541-.197-1.179c-.983-6.09-.884-6.728-.639-7.416.934-2.456 19.164-20.873 20.638-21.511.737-.344 6.731-3.782 11.94-6.827l.295-.147c.049 0 5.06-2.013 8.353-5.353l1.72-1.768 1.474 1.964c1.523 2.014 2.506 4.273 2.997 6.68l12.776 63.501c0 .049.393 2.259.196 3.389v.442c-.589 8.054-8.402 10.903-14.937 10.952l-1.474.049zm-39.359-45.821l28.401 11.05.442.54 6.093 7.858 7.272 22.051c2.949-.245 8.992-1.424 9.386-6.974l.049-.687c.049-.442-.049-1.523-.148-2.014l-12.775-63.502a10.85 10.85 0 0 0-1.032-2.995c-3.243 2.603-6.88 4.125-7.715 4.469-3.292 1.915-10.465 6.09-12.136 6.925-2.113 1.62-16.412 16.207-18.377 19.055.049.491.147 1.621.54 4.224zM20.762 244.184l-3.44-1.965c-.982-.54-2.112-.786-3.046-.589-6.78.785-10.76 6.924-11.449 8.103-.049.098 0 .246.098.344l4.914 2.947c1.966-1.326 2.26-2.259 2.26-2.259s3.39-3.635 10.663-6.581z" fill="#000"/><path d="M7.937 255.528l-6.78-4.027-.64-1.817.492-.982c.836-1.375 5.307-8.251 13.021-9.135 1.229-.295 2.9 0 4.324.835l7.174 4.125-4.029 1.621c-5.749 2.308-8.894 5.107-9.729 5.893-.393.639-1.18 1.621-2.8 2.751l-1.033.736zm-2.21-6.237l1.965 1.179c.344-.344.442-.541.442-.541l.147-.491.246-.147c.147-.147 2.555-2.75 7.616-5.353-.59-.295-1.08-.344-1.376-.246-4.422.54-7.468 3.635-9.04 5.599z" fill="#000"/><path d="M106.8 367.601L93.779 302.97c-.835-4.076-3.341-7.563-6.978-9.626L8.478 248.456c-3.145-1.817-6.928.933-6.24 4.469l11.89 62.421c.787 4.077 3.244 7.613 6.83 9.675l79.553 47.05c3.144 1.866 6.977-.884 6.289-4.47z" fill="#91BFBF"/><path d="M102.672 374.772c-1.13 0-2.211-.295-3.242-.884l-79.552-47.099a16.537 16.537 0 0 1-7.813-11.099L.125 253.269c-.492-2.456.491-4.911 2.555-6.335 2.064-1.474 4.668-1.572 6.83-.344l78.323 44.888a16.428 16.428 0 0 1 7.96 11.05l13.022 64.631c.491 2.505-.492 4.961-2.556 6.434-1.031.786-2.309 1.179-3.587 1.179zM6.365 249.978c-.59 0-1.081.295-1.228.393-.246.197-1.081.884-.836 2.112l11.891 62.421c.64 3.438 2.801 6.483 5.798 8.251l79.552 47.049c1.081.639 2.015.099 2.31-.098.245-.196 1.081-.884.835-2.112l-13.021-64.631a12.208 12.208 0 0 0-5.946-8.251L7.397 250.273a2.07 2.07 0 0 0-1.032-.295z" fill="#000"/><path d="M97.71 424.08c-2.26 0-4.472-.589-6.535-1.719-4.325-2.406-6.929-6.826-6.929-11.737 0-6.876-.737-13.752-2.26-20.431l-12.923-58.247c-2.702-12.278-10.564-22.837-21.522-28.976l-3.685-2.062c-2.162-1.228-4.668-1.081-6.633.393-2.015 1.473-2.9 3.781-2.359 6.237l11.646 55.349a104.068 104.068 0 0 1 2.21 21.363v.59c0 1.964 1.327 2.897 1.917 3.241.59.295 2.064.933 3.734-.098l5.16 8.3c-4.226 2.603-9.336 2.75-13.66.295-4.324-2.407-6.928-6.827-6.928-11.738v-.59c0-6.482-.688-12.965-2.015-19.35l-11.645-55.398c-1.327-6.188 1.031-12.376 6.142-16.108 5.11-3.733 11.694-4.126 17.197-1.032l3.686 2.063c13.365 7.514 22.946 20.43 26.288 35.36l12.922 58.247a102.26 102.26 0 0 1 2.506 22.542c0 1.965 1.327 2.898 1.917 3.242.59.295 2.063.933 3.734-.098l5.159 8.3c-2.211 1.375-4.668 2.062-7.124 2.062z" fill="#000"/><path d="M66.655 189.718l28.205 12.376s12.873.393 10.515 12.475c0 0-18.279 12.622-40.489-3.929-22.946-17.14 1.77-20.922 1.77-20.922z" fill="#fff"/><path d="M88.423 221.199c-7.076 0-15.674-2.063-24.814-8.889-8.157-6.09-11.596-11.345-10.417-16.06 1.67-6.679 11.94-8.447 13.12-8.594l.59-.099 28.4 12.475c1.572.147 6.977.835 10.122 4.813 2.113 2.652 2.752 6.041 1.966 10.166l-.148.835-.688.491c-.098.049-7.321 4.862-18.131 4.862zm-22.062-29.271c-2.605.541-8.304 2.259-9.041 5.354-.394 1.571.245 5.205 8.844 11.639 18.475 13.751 33.757 6.385 37.295 4.322.295-2.407-.099-4.371-1.229-5.795-2.407-3.045-7.37-3.242-7.42-3.242l-.785-.196-27.664-12.082z" fill="#000"/><path d="M68.326 172.775s2.113 16.747-1.67 22.984c6.387 9.135 17.492 11.983 27.712 7.514.639-.295 1.327-.589 1.966-.933.147-.098.196-.246.098-.344-1.18-1.129-6.633-7.317-2.506-20.479l-12.923-13.604-12.677 4.862z" fill="#D8B182"/><path d="M84.787 207.497c-7.764 0-15.085-3.684-19.851-10.461l-.787-1.13.737-1.178c2.801-4.617 1.966-17.189 1.376-21.659l-.196-1.62 15.527-5.992 14.79 15.519-.393 1.179c-3.784 11.983.983 17.386 1.965 18.319l.787.737-.099 1.227a2.436 2.436 0 0 1-1.228 1.768c-.688.393-1.425.737-2.113 1.032-3.538 1.522-7.076 2.259-10.515 2.259zM69.16 195.563c5.798 7.416 15.134 9.724 24.175 5.893-2.014-3.045-4.57-9.331-1.769-19.399l-11.104-11.689-9.828 3.782c.443 4.322 1.18 15.323-1.474 21.413z" fill="#000"/><path d="M85.966 184.267s4.816 7.268 21.08 2.308c0 0 12.235-21.757 3.243-41.892h-19.36l-22.603 9.576 7.37 23.083 10.27 6.925z" fill="#D8B182"/><path d="M96.825 190.455c-7.763 0-11.301-3.389-12.284-4.568l-10.613-7.121-8.157-25.636 24.765-10.51h21.128l.541 1.277c9.336 20.872-2.801 42.874-3.341 43.808l-.393.736-.836.246c-4.275 1.277-7.862 1.768-10.81 1.768zm-9.09-7.367c.246.344 4.373 5.599 17.886 1.768 1.916-3.782 9.876-21.462 3.292-38.013H91.42l-20.44 8.644 6.535 20.529 10.22 7.072zM91.42 219.775l-4.029-1.228c2.162-6.974-2.899-11.492-2.948-11.541l2.8-3.193c.246.197 7.125 6.336 4.177 15.962zM58.352 203.568l-3.145-2.849c.196-.245 5.012-5.451 11.94-6.335l.54 4.175c-5.405.736-9.286 4.96-9.335 5.009z" fill="#000"/><path d="M357.691 360.676s-3.145-7.514-15.429-9.036c-.934-.246-2.015-.098-3.194.589l-32.184 18.368c-3.243 1.866-5.897 6.925-5.897 11.296v10.608l-.54 64.435c0 1.178.344 2.062.884 2.603 0 0 4.177 5.697 13.906 8.398 4.913 1.375 16.657-50.684 26.583-66.35l-.492.491c1.966-1.13 3.587-4.224 3.587-6.876v-17.778l9.238-12.033 3.538-4.715z" fill="#91BFBF"/><path d="M315.581 469.999a3.35 3.35 0 0 1-.934-.147c-9.582-2.652-14.2-8.104-14.987-9.086-.638-.688-1.375-1.964-1.375-3.978l.54-75.043c0-5.108 3.047-10.854 6.978-13.113l32.184-18.368c1.916-1.129 3.538-1.08 4.619-.835 13.316 1.719 16.903 9.97 17.05 10.314l.491 1.129-13.07 17.091v17.042c0 3.094-1.621 6.385-3.832 8.153-4.619 7.71-9.68 23.475-14.201 37.374-7.42 22.886-9.925 29.467-13.463 29.467zm25.796-116.395c-.344 0-.786.147-1.277.393l-32.185 18.368c-2.604 1.522-4.815 5.844-4.815 9.429v10.608l-.54 64.435c0 .688.196 1.031.245 1.081l.246.245c.049.049 3.734 4.911 12.137 7.416 2.162-2.554 6.387-15.618 9.827-26.275 3.587-11.148 7.567-23.426 11.449-32.119l-6.879 3.978 10.711-11.197.099.049c1.179-.737 2.456-2.996 2.456-5.01V376.49l12.334-16.109c-1.229-1.768-4.57-5.402-12.137-6.63l-.147.148-1.229-.344c-.098.049-.196.049-.295.049z" fill="#000"/><path d="M317.988 383.022c7.272 1.523 27.762-4.174 27.762-4.174l-.786-.982v-.639l9.238-12.032 3.538-4.666s-2.605-7.465-14.938-8.987l-.491-.05c-.934-.294-2.015-.098-3.194.59l-32.184 18.368c-1.769 1.031-3.342 2.995-4.423 5.255.049.098 8.255 5.795 15.478 7.317z" fill="#fff"/><path d="M321.035 385.38c-1.327 0-2.506-.098-3.489-.295-7.763-1.62-16.362-7.612-16.657-7.956l-.983-1.031.639-1.326c1.327-2.799 3.194-5.01 5.258-6.188l32.184-18.368c1.965-1.13 3.587-1.081 4.668-.835l.344.049c13.463 1.67 16.559 10.019 16.657 10.363l.393 1.08-12.628 16.649 2.113 2.505-3.194.884c-1.867.491-16.559 4.469-25.305 4.469zm-15.773-10.363c2.604 1.67 8.206 4.912 13.169 5.943 4.913 1.031 17.64-1.768 24.421-3.487v-.933l12.382-16.158c-1.13-1.817-4.422-5.599-12.726-6.679l-.836-.147c-.393-.099-.933 0-1.572.392l-32.185 18.368c-.933.491-1.867 1.425-2.653 2.701z" fill="#000"/><path d="M352.826 360.038l-32.184 18.368c-3.243 1.866-5.897 6.925-5.897 11.296v10.608l-.54 64.435c0 2.652 1.621 3.88 3.587 2.701l36.803-21.02c1.965-1.129 3.587-4.224 3.587-6.876l.54-64.434v-10.609c0-4.321-2.653-6.335-5.896-4.469z" fill="#000"/><path d="M316.416 469.951a3.945 3.945 0 0 1-1.965-.54c-1.475-.835-2.31-2.554-2.31-4.764l.541-75.043c0-5.108 3.046-10.854 6.977-13.113l32.184-18.368c2.113-1.228 4.226-1.326 5.995-.295 1.965 1.13 3.096 3.536 3.096 6.581v10.608l-.541 64.435c0 3.438-2.014 7.171-4.668 8.693l-36.803 21.02c-.835.54-1.72.786-2.506.786zm38.769-108.488c-.492 0-1.032.294-1.278.442l-32.184 18.367c-2.605 1.523-4.816 5.845-4.816 9.43v10.608l-.54 64.435c0 .54.098.884.196 1.031.05-.049.148-.049.246-.147l36.803-21.02c1.18-.688 2.555-2.996 2.555-5.058l.541-75.043c0-1.768-.541-2.653-.983-2.947-.246-.049-.393-.098-.54-.098z" fill="#000"/><path d="M317.497 414.257a4.2 4.2 0 0 1-1.474-.245c-1.278-.442-2.31-1.474-2.85-2.849l3.931-1.571c.098.245.245.393.295.442.098.049.344 0 .835-.246l34.887-19.89c1.326-.786 2.653-2.75 3.194-4.813l4.078 1.08c-.884 3.242-2.85 6.041-5.159 7.416l-34.887 19.891c-1.081.54-2.064.785-2.85.785z" fill="#91BFBF"/><path d="M341.23 410.182l-6.437 3.732c-.737.442-1.327-.049-1.327-.982v-14.194c0-.982.59-2.111 1.327-2.504l6.437-3.733c.737-.442 1.327.049 1.327.982v14.194c0 .933-.59 2.062-1.327 2.505z" fill="#000"/><path d="M334.253 416.173c-.492 0-.983-.098-1.376-.393-.983-.54-1.523-1.62-1.523-2.897v-14.194c0-1.719.982-3.585 2.358-4.371l6.437-3.732c.983-.54 2.113-.59 2.997-.049.983.54 1.524 1.62 1.524 2.897v14.194c0 1.719-.983 3.585-2.359 4.371l-6.437 3.732c-.54.295-1.081.442-1.621.442zm6.191-20.774l-4.57 2.652c-.049.049-.246.442-.246.687v12.278l4.57-2.652c.098-.098.295-.491.295-.736v-12.229h-.049zM352.59 363.826l-33.039 18.924 2.101 3.664 33.039-18.924-2.101-3.664zM352.181 437.84l-33.039 18.924 2.101 3.664 33.039-18.924-2.101-3.664zM391.644 147.04v-12.916c0-.197-.098-.295-.295-.344l-46.434 4.174c-.049 0-.049 0-.098-.049l-4.275-25.587a.544.544 0 0 0-.393 0L297.4 136.825c-.098.049-.196.049-.294.049l-8.157-2.259c-.246-.049-.491.098-.491.393 0 2.062 0 12.277.049 12.523v.049c.147 1.375.884 2.701 2.211 3.487l43.043 24.949c3.686 2.112 8.206 2.161 11.842 0l43.683-25.047c1.474-.835 2.211-2.308 2.26-3.782l.098-.147z" fill="#91BFBF"/><path d="M339.805 179.65a14.33 14.33 0 0 1-7.027-1.866l-43.092-24.998c-1.867-1.081-3.047-2.947-3.243-5.108-.049-.294-.049-.343-.049-9.675v-3.143c0-.786.344-1.522.982-2.013.639-.492 1.425-.639 2.211-.442l7.469 2.062 42.11-24.163c.786-.442 1.769-.442 2.506 0l.835.491 4.128 24.704 44.96-4.028.393.099a2.475 2.475 0 0 1 1.818 2.406v12.966l-.049.294c-.099 2.112-1.327 4.175-3.292 5.353l-43.683 25.048a12.91 12.91 0 0 1-6.977 2.013zm-49.186-42.482v.884c0 3.635 0 8.791.049 9.283.05.392.246 1.276 1.18 1.817l43.043 24.948a9.581 9.581 0 0 0 9.729 0l43.683-25.047c1.031-.589 1.179-1.62 1.228-2.013h2.113-2.113v-11.001l-44.812 4.027-.983-.393-.836-.491-3.93-23.77-41.226 23.623-1.179-.197-5.946-1.67z" fill="#000"/><path d="M391.398 133.78l-46.434 4.174c-.049 0-.049 0-.098-.049l-5.454 15.814v23.819c2.162.05 4.324-.442 6.289-1.571l43.682-25.047c1.474-.835 2.211-2.308 2.261-3.782v-.098-12.916a.268.268 0 0 0-.246-.344z" fill="#000"/><path d="M339.805 179.65h-.442l-2.064-.049.147-26.569 6.241-18.172 1.719.884 46.189-4.125.393.098a2.477 2.477 0 0 1 1.818 2.407v12.965c-.099 2.407-1.327 4.469-3.342 5.648l-43.682 25.047a13.874 13.874 0 0 1-6.977 1.866zm1.769-25.587v21.216a9.746 9.746 0 0 0 3.095-1.129l43.683-25.047c1.031-.59 1.179-1.621 1.228-2.014v-11.001l-43.142 3.88-4.864 14.095zM295.14 140.36s.639-1.718 1.425-3.978l-7.567-2.111c-.246-.05-.492.098-.492.392 0 2.112 0 12.278.05 12.524v.049c.147 1.375.884 2.701 2.211 3.487l4.324 2.505V140.36h.049z" fill="#000"/><path d="M297.204 156.961l-7.518-4.371c-1.867-1.081-3.047-2.947-3.243-5.108-.049-.295-.049-.344-.049-9.675v-3.143c0-.786.344-1.523.982-2.014.639-.491 1.425-.638 2.211-.442l9.729 2.701-.786 2.161c-.589 1.621-1.081 2.996-1.326 3.635v16.256zm-6.585-19.989v.884c0 3.634 0 8.791.049 9.282.05.393.246 1.277 1.18 1.817l1.179.688.147-9.97s.246-.687.639-1.817l-3.194-.884z" fill="#000"/><path d="M334.056 163.149l-43.24-25.097c-3.047-1.768-3.047-6.188 0-7.907l43.879-25.194a11.361 11.361 0 0 1 11.448 0l43.241 25.096c3.046 1.768 3.046 6.188 0 7.907l-43.879 25.195a11.368 11.368 0 0 1-11.449 0z" fill="#fff"/><path d="M339.805 166.832c-2.359 0-4.717-.59-6.83-1.817l-43.24-25.096c-2.113-1.228-3.341-3.389-3.341-5.796 0-2.406 1.277-4.567 3.341-5.795l43.879-25.194c4.176-2.407 9.385-2.407 13.61 0l43.241 25.096c2.112 1.228 3.341 3.389 3.341 5.795 0 2.407-1.278 4.568-3.341 5.795l-43.879 25.195c-2.113 1.178-4.423 1.817-6.781 1.817zm.59-61.292c-1.622 0-3.243.393-4.668 1.228l-43.879 25.194c-1.081.639-1.229 1.719-1.229 2.112 0 .442.099 1.474 1.229 2.112l43.24 25.096a9.325 9.325 0 0 0 9.336 0l43.879-25.194c1.081-.639 1.228-1.719 1.228-2.112 0-.442-.098-1.473-1.228-2.112l-43.241-25.096c-1.424-.786-3.046-1.228-4.667-1.228z" fill="#000"/><path d="M388.548 177.391l-108.984-75.288c-2.359-1.376-4.275-5.01-4.275-8.153l-10.368-83.146c0-3.144 12.284-9.823 14.643-8.497l116.895 67.48c2.359 1.375 4.275 5.01 4.275 8.152v88.402c0 3.143-9.827 12.376-12.186 11.05z" fill="#fff"/><path d="M389.138 179.601a3.289 3.289 0 0 1-1.622-.393l-.147-.098-109.034-75.289c-2.899-1.669-5.159-5.942-5.159-9.871l-10.368-82.9c0-3.095 3.882-5.943 7.174-7.859 2.85-1.67 8.058-4.223 10.614-2.75L397.54 67.97c2.998 1.719 5.307 6.09 5.307 9.97v88.401c0 3.781-6.781 10.117-10.368 12.18-.54.294-1.916 1.08-3.341 1.08zM267.034 10.853l10.319 82.802c0 2.652 1.523 5.599 3.193 6.581l108.739 75.092c2.359-.589 8.992-7.023 9.238-9.036V77.939c0-2.357-1.474-5.304-3.194-6.286L278.483 4.173c-1.868-.196-10.466 4.617-11.449 6.68z" fill="#000"/><path d="M386.091 176.998l-116.895-67.431c-2.359-1.375-4.275-5.009-4.275-8.152V13.013c0-3.143 1.916-4.567 4.275-3.241l116.895 67.48c2.359 1.375 4.275 5.009 4.275 8.152v88.402c0 3.143-1.916 4.567-4.275 3.192z" fill="#91BFBF"/><path d="M387.811 179.65a5.335 5.335 0 0 1-2.751-.786l-116.945-67.479c-3.047-1.768-5.307-6.041-5.307-9.97V13.014c0-2.407.934-4.371 2.555-5.255 1.425-.835 3.243-.737 4.914.245l116.895 67.48c2.998 1.719 5.307 6.09 5.307 9.97v88.401c0 2.406-.933 4.371-2.555 5.255a4.501 4.501 0 0 1-2.113.54zm-.688-4.469c.393.246.639.246.688.246.049-.05.393-.442.393-1.621V85.404c0-2.357-1.474-5.304-3.194-6.286l-116.895-67.48c-.393-.245-.639-.245-.688-.245-.049.049-.393.442-.393 1.62v88.402c0 2.357 1.474 5.304 3.194 6.286l116.895 67.48z" fill="#000"/><path d="M377.788 161.626L277.5 103.772c-1.228-.687-2.211-2.603-2.211-4.223V26.863c0-1.62.983-2.357 2.211-1.67l100.288 57.854c1.228.688 2.211 2.603 2.211 4.224v72.685c-.049 1.621-1.032 2.358-2.211 1.67z" fill="#000"/><path d="M41 200.5c-5.1-.388-5.613-20.42-1.785-23.803 8.625-7.612 19.036-10.761 20.504-20.665 1.713-11.302 5.785-26.034 17.268-33.103 11.432-7.071 37.299-2.34 41.513 6.071 4.214 8.411 3.394 13.433 1.5 17.5-4.208 9.116-5.403 8.622-5.403 8.622L109 146.5s-9.396-1.73-14 9.532c-2.176 5.261 5.234 23.451-1 30.968-10.04 12.114-17 35-37.5 16L41 200.5z" fill="#100B0B"/><path d="M373 95.117L347.279 110l-8.13-21.276-13.597 8.444-6.562-9.493-16.592 9.111-5.848-6.869-12.456 6.344L283 93.305l14.501-7.442 5.562 6.965 16.926-9.302 6.133 8.872L340.813 83l8.51 21.419 22.298-12.785" fill="#F29383"/></svg>