<svg width="30" height="30" viewBox="0 0 30 30" fill="none" xmlns="http://www.w3.org/2000/svg">
<path fill-rule="evenodd" clip-rule="evenodd" d="M15 0C6.71573 0 0 6.71573 0 15C0 23.2843 6.71573 30 15 30C23.2843 30 30 23.2843 30 15C30 6.71573 23.2843 0 15 0ZM7.20099 12.4238H10.6003V22.6374H7.20099V12.4238ZM10.8242 9.26419C10.8022 8.26275 10.086 7.5 8.92315 7.5C7.76026 7.5 7 8.26275 7 9.26419C7 10.2449 7.73779 11.0296 8.87902 11.0296H8.90074C10.086 11.0296 10.8242 10.2449 10.8242 9.26419ZM18.9457 12.1836C21.1826 12.1836 22.8596 13.6437 22.8596 16.7808L22.8595 22.637H19.4603V17.1727C19.4603 15.8002 18.9684 14.8637 17.7378 14.8637C16.7987 14.8637 16.2393 15.495 15.9936 16.1049C15.9037 16.3234 15.8817 16.6279 15.8817 16.9332V22.6373H12.4819C12.4819 22.6373 12.5267 13.3821 12.4819 12.4237H15.8817V13.8704C16.3328 13.1749 17.1409 12.1836 18.9457 12.1836Z" fill="white"/>
</svg>
