<svg width="366" height="308" viewBox="0 0 366 308" fill="none" xmlns="http://www.w3.org/2000/svg">
<g clip-path="url(#clip0)">
<path d="M324.95 50.3096C324.95 48.7734 324.566 47.2373 324.566 45.7011L339.912 31.1076C340.296 30.7236 340.296 29.9555 339.912 29.5714L303.849 8.83328C303.082 8.44924 301.164 7.29712 301.164 7.29712C289.27 1.15248 273.541 1.53652 256.277 9.21732C208.704 30.3395 168.805 95.6263 168.805 149.008C168.805 173.586 177.245 190.868 191.057 199.317H191.44C191.824 199.317 224.818 218.519 230.572 221.975C230.956 222.359 231.723 221.975 231.723 221.591L239.396 205.462L232.107 201.237C237.094 199.701 241.698 197.397 247.069 194.325C248.22 193.556 249.371 192.788 250.906 192.02C254.742 200.085 254.742 213.527 253.591 226.968C253.208 229.656 254.358 231.192 255.893 231.96L292.723 253.083C293.107 253.467 293.874 253.083 293.874 252.699L297.711 242.33L295.792 198.549H275.843L312.289 115.212C321.881 93.7061 326.484 70.6637 324.95 50.3096Z" fill="#F39483"/>
<path d="M292.723 256.155C291.956 256.155 291.572 256.155 290.805 255.771L254.359 234.649C252.057 233.881 250.139 231.576 250.522 226.968C251.673 213.526 251.289 202.773 249.371 196.245C248.988 196.245 248.604 196.629 248.604 196.629C245.535 198.549 242.082 200.085 239.013 201.621L243.616 204.309L234.409 222.743C234.025 223.511 233.258 224.28 232.107 224.664C230.956 225.048 230.189 224.664 229.038 224.28L225.201 221.975C199.881 207.382 190.289 202.005 189.906 201.621C174.56 192.404 166.12 173.586 166.12 148.624C166.12 94.09 207.554 27.2671 254.742 6.14489C272.006 -1.53591 288.887 -2.30399 301.931 4.22469C301.931 4.22469 304.233 5.37681 305 6.14489L340.679 26.883C341.83 27.6511 342.214 28.4192 342.598 29.5713C342.598 30.7234 342.214 31.8756 341.447 32.6436L327.252 46.085C327.252 47.2372 327.635 48.3893 327.635 49.5414C329.17 69.8955 324.95 92.9379 314.975 116.364L280.063 195.861H298.094L300.013 242.714L296.176 253.467C295.793 254.619 295.025 255.387 293.874 255.771C293.491 255.771 293.107 256.155 292.723 256.155ZM251.673 187.796L253.208 190.484C257.044 197.781 257.811 210.07 256.277 226.968C256.277 228.12 256.277 228.888 256.661 228.888L257.428 229.272L291.956 249.242L294.642 241.561L293.107 201.237H271.623L309.988 114.06C319.579 91.4018 323.799 69.5115 322.264 49.9254C322.264 48.3893 321.881 46.8531 321.881 45.317L321.497 43.7808L335.692 30.7234L301.931 11.1374C301.164 10.3693 299.245 9.60125 299.245 9.60125C287.736 3.45661 272.774 4.22469 257.044 11.5214C211.39 31.8756 171.491 96.3943 171.491 149.008C171.491 171.666 178.78 188.564 192.208 197.013C192.975 197.397 217.145 211.222 227.503 217.367L229.805 218.519L235.56 206.614L225.201 200.853L230.956 198.933C235.56 197.397 240.547 195.093 245.151 192.404C246.302 191.636 247.453 190.868 248.604 190.1L251.673 187.796Z" fill="black"/>
<path d="M310.371 120.589L312.673 115.596C321.88 93.7061 326.868 70.6637 324.95 50.3096C324.95 48.7734 324.566 47.2373 324.566 45.7011L339.912 31.1076C340.296 30.7236 340.296 29.9555 339.912 29.5714L303.849 8.83328C303.082 8.44924 301.163 7.29712 301.163 7.29712C289.27 1.15248 273.541 1.53652 256.277 9.21732C235.943 18.4343 216.761 36.1001 201.799 57.2223L310.371 120.589Z" fill="white"/>
<path d="M311.522 124.813L197.195 58.3746L199.113 55.6863C214.843 33.0279 234.793 15.7461 254.742 6.52916C272.006 -1.15163 288.887 -1.91971 301.931 4.60897C301.931 4.60897 304.233 5.76109 305 6.52916L341.063 27.2673C342.214 28.0354 342.598 28.8035 342.981 29.9556C342.981 31.1077 342.598 32.2598 341.83 33.0279L327.635 46.4693C327.635 47.6214 328.019 48.7736 328.019 49.9257C329.554 70.2798 325.333 93.3222 315.359 116.749L311.522 124.813ZM205.252 56.4544L308.837 116.749L309.604 114.444C319.195 91.786 323.415 69.8958 321.881 50.3097C321.881 48.7736 321.497 47.2374 321.497 45.7012L321.113 44.1651L335.692 30.7237L301.931 11.5217C301.164 10.7536 299.245 9.60148 299.245 9.60148C287.736 3.84089 272.774 4.60897 257.044 11.5217C238.629 19.9706 220.214 35.7162 205.252 56.4544Z" fill="black"/>
<path d="M350.271 137.487C359.478 115.597 364.466 92.5544 362.547 72.2003C359.095 31.8761 329.937 14.5943 293.491 31.1081C246.302 52.2302 206.403 117.901 206.403 171.283C206.403 221.208 241.315 241.562 284.667 216.599C285.818 215.831 286.969 215.063 288.503 214.295C292.34 222.36 292.34 235.801 291.189 249.243C290.422 256.539 298.478 255.387 301.931 247.707L350.271 137.487Z" fill="black"/>
<path d="M294.642 256.539C294.258 256.539 293.491 256.539 293.107 256.155C290.805 255.387 288.12 253.083 288.887 248.474C290.038 235.033 289.654 224.28 287.736 217.751C287.352 217.751 286.969 218.135 286.969 218.135C265.101 230.809 244.384 232.729 229.038 223.512C213.308 214.295 204.868 195.477 204.868 170.514C204.868 115.981 246.302 49.1577 293.491 28.0355C311.906 19.5866 329.17 19.5866 342.598 27.2674C356.025 35.3322 364.465 51.0779 366.384 71.432C367.151 92.1701 362.931 115.213 352.956 138.639L304.616 248.474C302.315 253.467 298.094 256.539 294.642 256.539ZM289.654 209.686L291.189 212.375C295.025 219.671 295.793 231.961 294.258 248.858C294.258 250.011 294.258 250.779 294.642 250.779C294.642 250.779 295.025 250.779 295.409 250.779C296.56 250.395 298.478 248.858 299.629 246.17L347.969 136.335C357.56 113.676 361.78 91.7861 360.245 72.2001C358.711 53.3821 351.038 39.1726 339.145 32.2599C327.252 25.3472 311.522 25.7312 295.025 33.028C249.371 53.7661 209.472 118.285 209.472 170.898C209.472 193.941 217.145 211.222 230.956 219.287C244.767 227.352 263.566 225.432 283.516 213.911C284.667 213.143 285.818 212.375 286.969 211.607L289.654 209.686Z" fill="black"/>
<path d="M258.195 141.712C258.195 150.161 252.057 160.53 244.767 165.138C237.478 169.363 231.34 165.906 231.34 157.457C231.34 149.009 237.478 138.639 244.767 134.031C252.057 129.807 258.195 133.263 258.195 141.712Z" fill="black"/>
<path d="M238.629 169.746C236.711 169.746 235.176 169.362 233.641 168.594C230.189 166.674 228.27 162.834 228.27 157.457C228.27 147.856 234.792 136.719 243.233 131.726C247.836 129.038 252.057 128.654 255.509 130.958C258.962 132.879 260.88 136.719 260.88 142.095C260.88 151.696 254.358 162.834 245.918 167.826C243.616 168.978 240.931 169.746 238.629 169.746ZM250.522 135.183C248.987 135.183 247.453 135.567 245.918 136.719C239.396 140.175 234.025 149.776 234.025 157.457C234.025 160.529 234.792 162.834 236.711 163.602C238.245 164.37 240.931 164.37 243.233 162.834C249.755 158.993 255.126 149.392 255.126 142.095C255.126 139.023 254.358 136.719 252.44 135.951C252.057 135.183 251.289 135.183 250.522 135.183Z" fill="#F39483"/>
<path d="M298.478 118.669C298.478 127.117 292.339 137.487 285.05 142.095C277.761 146.319 271.622 142.863 271.622 134.414C271.622 125.965 277.761 115.596 285.05 110.988C292.339 106.379 298.478 109.836 298.478 118.669Z" fill="black"/>
<path d="M279.296 146.32C277.377 146.32 275.843 145.936 274.308 145.168C270.855 143.248 268.937 139.407 268.937 134.031C268.937 124.43 275.459 113.292 283.899 108.3C288.503 105.612 292.723 105.228 296.176 107.532C299.629 109.452 301.547 113.292 301.547 118.669C301.547 128.27 295.025 139.407 286.585 144.4C283.899 145.552 281.597 146.32 279.296 146.32ZM291.189 111.756C289.654 111.756 288.119 112.14 286.585 113.292C280.063 117.133 274.692 126.734 274.692 134.031C274.692 137.103 275.459 139.407 277.377 140.175C278.912 140.943 281.597 140.943 283.899 139.407C290.421 135.567 295.792 125.966 295.792 118.669C295.792 115.597 295.025 113.292 293.107 112.524C292.723 111.756 291.956 111.756 291.189 111.756Z" fill="#F39483"/>
<path d="M338.377 95.2428C338.377 103.692 332.239 114.061 324.95 118.669C317.66 122.894 311.522 119.437 311.522 110.988C311.522 102.54 317.66 92.1705 324.95 87.562C332.622 83.3376 338.377 86.7939 338.377 95.2428Z" fill="black"/>
<path d="M319.195 123.277C317.277 123.277 315.742 122.893 314.207 122.125C310.755 120.205 308.836 116.365 308.836 110.988C308.836 101.387 315.358 90.2499 323.799 85.2574C328.402 82.5691 332.623 82.1851 336.075 84.4893C339.528 86.4095 341.446 90.2499 341.446 95.6265C341.446 105.227 334.924 116.365 326.484 121.357C324.182 122.509 321.497 123.277 319.195 123.277ZM331.088 88.7138C329.553 88.7138 328.019 89.0978 326.484 90.2499C319.962 94.0903 314.591 103.691 314.591 110.988C314.591 114.06 315.358 116.365 317.277 117.133C318.811 117.901 321.497 117.901 323.799 116.365C330.321 112.524 335.692 102.923 335.692 95.6265C335.692 92.5542 334.924 90.2499 333.006 89.4818C332.623 88.7138 331.855 88.7138 331.088 88.7138Z" fill="#F39483"/>
<path d="M169.573 159.376L207.554 181.267L169.573 159.376Z" fill="#F39483"/>
<path d="M171.353 156.902L168.484 161.896L206.394 183.725L209.264 178.731L171.353 156.902Z" fill="black"/>
<path d="M258.579 8.06494L296.56 29.9552L258.579 8.06494Z" fill="#F39483"/>
<path d="M260.174 5.7821L257.305 10.7754L295.215 32.6044L298.084 27.6111L260.174 5.7821Z" fill="black"/>
<path d="M69.0565 83.7212L158.446 32.2598C162.283 29.9556 165.736 32.2599 165.736 37.6364V78.3446C165.736 83.7212 162.667 89.8658 158.446 92.1701L148.088 97.9307C147.321 102.539 143.868 114.444 132.358 120.973C131.591 121.357 131.207 120.973 131.591 120.205C132.742 117.517 134.277 111.756 132.742 106.764L69.0565 144.015C65.22 146.32 61.7672 144.015 61.7672 138.639V97.5466C62.1509 92.1701 65.22 86.0254 69.0565 83.7212Z" fill="#F39483"/>
<path d="M66.371 147.087C65.2201 147.087 64.4528 146.703 63.3018 146.319C60.9999 145.167 59.849 142.095 59.849 138.639V97.5463C59.849 91.4017 63.6855 84.4889 68.2892 81.8007L69.4402 83.7209L68.2892 81.8007L157.296 30.3393C159.597 28.8032 162.283 28.8032 164.201 29.9553C166.503 31.1074 167.654 34.1797 167.654 37.6361V78.3443C167.654 84.4889 163.818 91.4017 159.214 94.0899L150.006 99.8505C148.855 105.611 144.635 116.748 133.509 123.277C132.358 124.045 131.208 123.661 130.44 122.893C129.673 122.125 129.289 120.973 129.673 119.437C130.44 117.9 131.208 114.06 131.208 110.22L70.2075 145.935C69.0565 146.703 67.522 147.087 66.371 147.087ZM161.132 33.4116C160.365 33.4116 159.597 33.7957 159.214 33.7957L70.2075 85.6411C66.7547 87.5613 64.0691 92.9378 64.0691 97.5463V138.255C64.0691 140.175 64.4528 141.711 65.6037 142.095C66.371 142.479 67.522 142.095 68.2892 141.711L134.66 103.307L135.428 105.995C136.195 109.452 135.811 113.292 135.428 116.364C143.101 110.22 145.786 101.003 146.553 97.1623L146.937 96.0101L158.063 89.4815C161.516 87.5613 164.201 82.1847 164.201 77.5762V37.6361C164.201 35.7159 163.818 34.1797 162.667 33.7957C161.899 33.7957 161.516 33.4116 161.132 33.4116Z" fill="white"/>
<path d="M143.142 62.6252L82.3348 97.7578L84.6363 101.749L145.443 66.6166L143.142 62.6252Z" fill="white"/>
<path d="M143.079 76.4677L82.2721 111.6L84.5735 115.592L145.38 80.4591L143.079 76.4677Z" fill="white"/>
<path d="M22.6351 33.7953L76.3458 3.45614C80.1823 1.1519 83.6351 3.45614 83.6351 8.8327V26.4985C83.6351 31.8751 80.5659 38.0197 76.3458 40.324L63.6854 47.6207C62.5345 52.2292 59.0817 64.1344 47.9559 70.6631C47.1886 71.0472 46.8049 70.6631 47.1886 69.895C48.3395 67.2068 49.4905 61.8302 48.3395 56.8377L22.6351 71.0472C18.7987 73.3514 15.3458 71.0472 15.3458 65.6706V48.0048C15.3458 42.2442 18.7987 36.0995 22.6351 33.7953Z" fill="#F39483"/>
<path d="M19.9496 74.1194C18.7987 74.1194 18.0314 73.7354 16.8804 73.3513C14.5786 72.1992 13.4276 69.1269 13.4276 65.6705V48.0047C13.4276 41.86 17.2641 34.9473 21.8679 32.259L75.5786 1.91989C77.8804 0.383726 80.566 0.383726 82.4842 1.53585C84.7861 2.68797 85.937 5.76029 85.937 9.21664V26.8825C85.937 33.0271 82.1006 39.9398 77.4968 42.6281L65.6037 49.5408C64.4528 54.9174 60.2326 66.4386 49.1069 72.9673C47.9559 73.7354 46.805 73.3513 46.0377 72.5832C45.2704 71.8152 44.8867 70.663 45.2704 69.1269C46.0377 67.5907 46.805 63.7503 46.805 60.294L23.7861 72.9673C22.6352 73.7354 21.1006 74.1194 19.9496 74.1194ZM23.7861 35.7154C20.3333 37.6356 17.6477 43.0122 17.6477 47.6206V65.2865C17.6477 67.2067 18.0314 68.7428 19.1823 69.1269C19.9496 69.5109 21.1006 69.1269 21.8679 68.7428L50.2578 52.9972L51.0251 55.6855C51.7924 59.1418 51.4087 62.9822 51.0251 66.0546C58.6981 59.9099 60.9999 51.077 62.1509 47.2366L62.5345 46.0845L76.3458 38.0196C79.7987 36.0994 82.4842 30.7229 82.4842 26.1144V8.44856C82.4842 6.52837 82.1006 4.9922 80.9496 4.60817C80.1823 4.22412 79.0314 4.60816 78.2641 4.9922L23.7861 35.7154Z" fill="white"/>
<path d="M9.59107 305.695C5.75459 308 2.30176 305.695 2.30176 300.319V224.279C2.30176 218.902 5.37094 212.758 9.59107 210.454L98.5974 158.992C102.434 156.688 105.887 158.992 105.887 164.369V240.409C105.887 245.785 102.817 251.93 98.5974 254.234L43.3521 286.109C42.2011 292.638 43.7357 296.479 44.503 298.399C44.8867 298.783 44.503 299.935 43.7357 300.319C32.2263 306.848 28.7735 298.783 28.0062 295.326L9.59107 305.695Z" fill="#F39483"/>
<path d="M32.2266 304.16C29.541 303.007 27.6228 300.703 26.8555 298.399L10.7423 307.616" fill="white"/>
<path d="M3.45283 308C1.15094 306.848 0 303.776 0 300.319V224.279C0 218.135 3.83648 211.222 8.44025 208.534L9.5912 210.454L8.44025 208.534L97.4465 157.072C99.7484 155.536 102.434 155.536 104.352 156.688C106.654 157.841 107.805 160.913 107.805 164.369V240.409C107.805 246.554 103.969 253.466 99.3648 256.155L44.8868 287.646C44.1195 293.407 45.6541 296.479 46.0377 297.247C46.4214 298.015 46.4214 298.783 46.4214 299.551C46.0377 300.703 45.6541 301.471 44.5031 301.856" fill="white"/>
<path d="M8.44012 303.776L29.5407 291.87L30.308 294.559C30.6917 295.711 31.8426 299.167 34.1445 299.935C36.0628 300.703 38.7483 300.319 42.2011 298.399C41.0502 296.479 39.8992 292.255 41.0502 285.726L41.4338 284.574L97.4464 251.93C100.899 250.01 103.585 244.634 103.585 240.025V164.369C103.585 162.449 103.201 160.913 102.05 160.529C101.667 160.529 101.667 160.529 101.283 160.529C100.516 160.529 99.7483 160.913 99.3646 160.913L10.742 212.374C7.28917 214.294 4.60364 219.671 4.60364 224.279V300.319C4.60364 302.24 4.98729 303.776 6.13823 304.16" fill="#F39483"/>
<path d="M83.2965 192.112L22.4827 227.238L24.7836 231.23L85.5974 196.104L83.2965 192.112Z" fill="white"/>
<path d="M83.222 205.948L22.4153 241.081L24.7167 245.072L85.5235 209.94L83.222 205.948Z" fill="white"/>
<path d="M83.1588 219.791L22.3521 254.924L24.6535 258.915L85.4602 223.782L83.1588 219.791Z" fill="white"/>
<path d="M83.2876 233.967L22.4808 269.099L24.7823 273.091L85.589 237.958L83.2876 233.967Z" fill="white"/>
</g>
<defs>
<clipPath id="clip0">
<rect width="366" height="308" fill="white"/>
</clipPath>
</defs>
</svg>
