<svg width="414" height="517" viewBox="0 0 414 517" fill="none" xmlns="http://www.w3.org/2000/svg">
<path d="M140.606 204.501H130.828V165.309C130.828 157.55 134.218 150.134 140.114 145.075L182.224 108.88C186.106 105.54 191.364 104.804 196.032 106.915C200.7 109.027 203.55 113.545 203.55 118.653V149.839H193.771V118.653C193.771 116.836 192.494 116.05 191.953 115.805C191.413 115.559 189.988 115.117 188.612 116.296L146.502 152.491C142.768 155.733 140.606 160.398 140.606 165.309V204.501Z" fill="black"/>
<path d="M310.225 448.587L305.311 440.14L366.339 404.435C372.235 400.899 375.92 394.417 375.92 387.492V231.611H385.699V387.492C385.699 397.805 380.195 407.529 371.351 412.834L310.225 448.587Z" fill="black"/>
<path d="M129.501 358.172L124.587 349.725L199.766 305.721C205.663 302.184 209.348 295.702 209.348 288.777V132.896H219.126V288.777C219.126 299.09 213.623 308.815 204.778 314.119L129.501 358.172Z" fill="black"/>
<path d="M395.673 299.925C395.673 299.876 395.673 290.005 395.673 288.089C395.673 287.893 395.526 287.746 395.329 287.696L365.798 279.495C365.749 279.495 365.749 279.446 365.7 279.446L293.125 237.258C292.978 237.16 292.831 237.16 292.683 237.258L267.329 251.894C267.231 251.943 267.083 251.992 266.985 251.943L257.796 249.389C257.502 249.291 257.256 249.487 257.256 249.782C257.256 252.139 257.305 260.881 257.305 261.127V261.225C257.452 262.748 258.288 264.27 259.811 265.154L353.318 319.521C357.445 321.927 362.506 321.927 366.634 319.521L393.069 304.247C394.69 303.314 395.575 301.644 395.624 299.974L395.673 299.925Z" fill="#91BFBF"/>
<path d="M360 323.401C357.298 323.401 354.644 322.713 352.237 321.338L258.73 266.971C256.715 265.793 255.438 263.779 255.192 261.471C255.143 261.176 255.143 261.029 255.094 250.813V249.831C255.094 248.996 255.438 248.26 256.126 247.768C256.764 247.277 257.6 247.13 258.386 247.326L266.886 249.684L291.651 235.392C292.437 234.95 293.42 234.95 294.206 235.392L366.584 277.481L395.87 285.634C397 285.928 397.737 286.911 397.737 288.089V290.889C397.737 294.474 397.737 299.925 397.737 299.974L397.688 300.269C397.589 302.577 396.263 304.836 394.101 306.064L367.665 321.338C365.356 322.713 362.653 323.401 360 323.401ZM259.369 252.041C259.369 255.381 259.418 260.587 259.418 261.078C259.467 261.618 259.762 262.698 260.892 263.337L354.399 317.704C357.838 319.717 362.162 319.717 365.602 317.704L392.037 302.43C392.921 301.89 393.462 301.006 393.511 299.925H395.624H393.511C393.511 299.729 393.511 294.425 393.511 290.938V289.415L364.619 281.214L292.929 239.567L268.41 253.76C267.82 254.104 267.083 254.202 266.444 254.006L259.369 252.041Z" fill="black"/>
<path d="M395.329 287.697L365.798 279.495C365.749 279.495 365.749 279.495 365.7 279.446L359.607 275.91V321.338C362.014 321.387 364.471 320.847 366.633 319.57L393.069 304.296C394.69 303.363 395.575 301.693 395.624 300.024V299.925C395.624 299.876 395.624 290.005 395.624 288.089C395.673 287.893 395.525 287.746 395.329 287.697Z" fill="black"/>
<path d="M360 323.45C359.852 323.45 359.705 323.45 359.509 323.45L357.445 323.401V272.226L366.535 277.53L395.82 285.683C396.901 285.977 397.688 287.009 397.688 288.138V290.938C397.688 294.523 397.688 299.974 397.688 300.023C397.589 302.675 396.213 304.885 394.051 306.162L367.616 321.436C365.405 322.713 362.752 323.45 360 323.45ZM361.72 279.544V319.03C363.095 318.833 364.422 318.342 365.601 317.655L392.037 302.381C392.921 301.841 393.462 300.957 393.511 299.876C393.511 299.631 393.511 294.376 393.511 290.839V289.317L364.619 281.263L361.72 279.544Z" fill="black"/>
<path d="M353.514 307.832L259.811 253.367C256.371 251.403 256.371 246.443 259.811 244.478L286.492 229.057C290.472 226.749 295.386 226.749 299.366 229.057L393.118 283.571C396.558 285.536 396.558 290.496 393.118 292.46L366.437 307.881C362.457 310.19 357.543 310.141 353.514 307.832Z" fill="white"/>
<path d="M360 311.712C357.396 311.712 354.792 311.025 352.482 309.699L258.73 255.184C256.47 253.858 255.094 251.501 255.094 248.898C255.094 246.295 256.47 243.938 258.73 242.612L285.411 227.191C290.03 224.539 295.779 224.539 300.447 227.191L394.199 281.656C396.459 282.982 397.835 285.339 397.835 287.942C397.835 290.545 396.459 292.902 394.199 294.228L367.518 309.65C365.159 311.025 362.604 311.712 360 311.712ZM354.595 306.015C357.936 307.931 362.064 307.931 365.356 306.015L392.037 290.594C392.971 290.054 393.56 289.072 393.56 287.991C393.56 286.911 393.02 285.928 392.037 285.388L298.285 230.923C294.993 229.008 290.865 229.008 287.524 230.923L260.843 246.344C259.909 246.885 259.32 247.867 259.32 248.947C259.32 250.028 259.86 251.01 260.843 251.55L354.595 306.015Z" fill="black"/>
<path d="M410.709 209.019L395.231 208.97L232.54 115.117L119.477 208.282H110.78L111.517 220.413H111.566C111.763 223.802 113.532 227.092 116.824 229.007L281.333 323.941C286.099 326.691 292.094 326.2 296.319 322.713L408.449 230.284C410.512 228.565 411.495 226.208 411.544 223.802L410.758 209.117C410.807 209.068 410.758 209.019 410.709 209.019Z" fill="#91BFBF"/>
<path d="M287.917 327.772C285.264 327.772 282.659 327.084 280.301 325.758L115.743 230.825C112.401 228.909 110.141 225.57 109.601 221.788L109.552 221.739L109.453 220.511L108.569 206.121L118.74 206.171L232.344 112.514L395.82 206.858L412.773 206.956L412.92 209.019L413.706 223.654C413.608 227.043 412.232 229.892 409.824 231.856L297.695 324.285C294.894 326.593 291.406 327.772 287.917 327.772ZM113.581 219.038L113.679 220.266C113.826 223.163 115.35 225.668 117.856 227.141L282.364 322.075C286.344 324.383 291.406 323.941 294.943 321.043L407.073 228.615C408.547 227.436 409.382 225.668 409.431 223.703L408.743 211.131L394.592 211.082L394.101 210.787L232.737 117.671L120.214 210.394H113.04L113.581 219.038Z" fill="black"/>
<path d="M296.319 322.713L408.448 230.284C410.512 228.565 411.495 226.208 411.544 223.802L410.758 209.117C410.758 209.068 410.709 209.019 410.66 209.019L395.182 208.97L387.074 204.304L304.181 259.752L288.113 292.755V325.66C291.061 325.611 293.961 324.677 296.319 322.713Z" fill="black"/>
<path d="M286 327.821V292.264L302.559 258.278L387.074 201.849L395.82 206.907L412.773 206.957L412.92 209.068L413.706 223.704C413.608 227.092 412.232 229.941 409.824 231.905L297.695 324.334C295.042 326.495 291.651 327.723 288.163 327.772L286 327.821ZM290.226 293.246V323.352C291.995 323.008 293.617 322.222 294.992 321.093L407.122 228.664C408.596 227.485 409.431 225.717 409.48 223.753L408.792 211.18L394.641 211.131L387.222 206.858L305.852 261.176L290.226 293.246Z" fill="black"/>
<path d="M121.295 206.858L119.821 208.086H111.124L111.861 220.217H111.91C112.107 223.606 113.876 226.896 117.168 228.811L117.463 228.271L135.741 239.96L121.295 206.858Z" fill="black"/>
<path d="M134.562 241.679L118.151 231.218L117.905 231.709L116.038 230.628C112.696 228.713 110.436 225.373 109.896 221.592L109.846 221.543L109.748 220.315L108.864 205.925L119.035 205.974L119.919 205.238L122.622 208.479L120.558 210.198H113.384L114.023 220.069C114.121 222.23 115.006 224.195 116.48 225.619L116.726 225.226L136.921 238.093L134.562 241.679Z" fill="black"/>
<path d="M280.595 310.73L116.087 215.796C109.699 212.113 108.962 203.175 114.662 198.509L225.415 107.21C229.248 104.018 234.702 103.576 239.026 106.08L406.532 202.733C411.839 205.778 412.429 213.144 407.711 217.024L295.582 309.453C291.356 312.989 285.362 313.48 280.595 310.73Z" fill="#91BFBF"/>
<path d="M287.18 314.61C284.526 314.61 281.922 313.922 279.564 312.596L115.006 217.614C111.419 215.551 109.06 211.819 108.716 207.693C108.372 203.568 110.092 199.492 113.286 196.839L224.039 105.54C228.56 101.808 234.997 101.268 240.058 104.214L407.564 200.916C410.66 202.684 412.674 205.876 412.969 209.412C413.264 212.948 411.79 216.435 409.038 218.694L296.958 311.123C294.157 313.431 290.668 314.61 287.18 314.61ZM233.031 106.572C230.771 106.572 228.56 107.309 226.742 108.831L115.988 200.13C113.826 201.898 112.696 204.55 112.942 207.349C113.188 210.149 114.711 212.555 117.119 213.98L281.627 308.913C285.607 311.221 290.668 310.779 294.206 307.881L406.385 215.404C408.105 213.98 408.94 211.917 408.792 209.756C408.596 207.546 407.417 205.68 405.5 204.55L237.945 107.898C236.422 107.014 234.702 106.572 233.031 106.572Z" fill="black"/>
<path d="M282.708 299.729L125.865 208.675C124.44 207.84 124.293 205.925 125.57 204.845L231.263 117.131C232.786 115.903 234.899 115.706 236.569 116.689L394.69 207.791C395.919 208.479 396.066 210.198 394.985 211.131L288.9 299.188C287.131 300.662 284.674 300.858 282.708 299.729Z" fill="white"/>
<path d="M285.411 302.577C284.084 302.577 282.807 302.234 281.627 301.546L124.784 210.542C123.506 209.805 122.72 208.528 122.573 207.055C122.474 205.63 123.064 204.206 124.145 203.273L229.837 115.559C231.999 113.742 235.095 113.497 237.552 114.921L395.673 206.023C396.852 206.711 397.638 207.89 397.737 209.265C397.835 210.64 397.294 211.966 396.263 212.801L290.226 300.809C288.85 301.988 287.131 302.577 285.411 302.577ZM234.211 118.211C233.621 118.211 233.031 118.408 232.589 118.801L126.897 206.514L126.946 206.858L283.789 297.863C284.969 298.55 286.492 298.452 287.573 297.568L393.609 209.559L235.488 118.555C235.095 118.31 234.653 118.211 234.211 118.211Z" fill="black"/>
<path d="M398.818 181.124C398.818 181.075 398.818 171.203 398.818 169.288C398.818 169.091 398.67 168.944 398.474 168.895L368.943 160.693C368.894 160.693 368.894 160.644 368.844 160.644L296.319 118.457C296.172 118.359 296.024 118.359 295.877 118.457L270.473 133.141C270.375 133.191 270.228 133.24 270.129 133.191L260.941 130.637C260.646 130.538 260.4 130.735 260.4 131.03C260.4 133.387 260.45 142.129 260.45 142.374V142.473C260.597 143.995 261.432 145.469 262.955 146.402L356.462 200.768C360.59 203.175 365.651 203.175 369.778 200.768L396.213 185.495C397.835 184.562 398.719 182.892 398.769 181.222L398.818 181.124Z" fill="#91BFBF"/>
<path d="M363.145 204.648C360.442 204.648 357.789 203.961 355.381 202.585L261.875 148.219C259.86 147.04 258.582 145.026 258.337 142.718C258.337 142.522 258.288 142.227 258.239 131.078C258.239 130.293 258.582 129.556 259.221 129.065C259.86 128.574 260.695 128.426 261.482 128.623L269.982 130.98L294.747 116.689C295.533 116.247 296.516 116.247 297.302 116.689L369.68 158.778L399.014 166.93C400.095 167.225 400.882 168.256 400.882 169.386V172.185C400.882 175.77 400.882 181.222 400.882 181.271L400.832 181.566C400.734 183.874 399.408 186.133 397.246 187.361L370.81 202.635C368.501 203.961 365.798 204.648 363.145 204.648ZM262.513 133.239C262.513 136.579 262.563 141.785 262.563 142.276C262.612 142.816 262.906 143.897 264.037 144.535L357.543 198.902C360.983 200.916 365.307 200.916 368.746 198.902L395.182 183.628C396.066 183.088 396.607 182.204 396.656 181.124H398.769H396.656C396.656 180.927 396.656 175.623 396.656 172.136V170.614L367.764 162.51L296.024 120.814L271.505 135.007C270.916 135.351 270.179 135.449 269.54 135.253L262.513 133.239Z" fill="black"/>
<path d="M398.474 168.944L368.943 160.742C368.894 160.742 368.894 160.693 368.845 160.693L362.752 157.157V202.585C365.16 202.634 367.616 202.094 369.828 200.817L396.263 185.543C397.885 184.61 398.769 182.94 398.818 181.271V181.172C398.818 181.123 398.818 171.252 398.818 169.337C398.818 169.14 398.671 168.993 398.474 168.944Z" fill="black"/>
<path d="M363.145 204.648C362.998 204.648 362.85 204.648 362.654 204.648L360.59 204.599V153.424L369.68 158.728L398.965 166.881C400.046 167.176 400.833 168.207 400.833 169.337V172.136C400.833 175.721 400.833 181.173 400.833 181.222C400.734 183.874 399.358 186.084 397.196 187.361L370.761 202.634C368.55 203.96 365.897 204.648 363.145 204.648ZM364.865 160.791V200.277C366.241 200.081 367.567 199.59 368.747 198.902L395.182 183.628C396.066 183.088 396.607 182.204 396.656 181.123C396.656 180.878 396.656 175.623 396.656 172.087V170.564L367.764 162.461L364.865 160.791Z" fill="black"/>
<path d="M267.82 137.169C267.82 137.169 268.557 135.204 269.441 132.699L260.941 130.342C260.646 130.244 260.4 130.44 260.4 130.735C260.4 133.092 260.45 141.834 260.45 142.08V142.178C260.597 143.7 261.432 145.174 262.955 146.107L267.82 148.955V137.169Z" fill="black"/>
<path d="M269.933 152.639L261.875 147.973C259.86 146.794 258.582 144.781 258.337 142.473C258.337 142.276 258.288 141.981 258.239 130.833C258.239 130.047 258.582 129.311 259.221 128.819C259.86 128.328 260.695 128.181 261.482 128.377L272.144 131.373L271.358 133.534C270.67 135.4 270.13 136.972 269.884 137.66V152.639H269.933ZM262.513 132.994C262.513 136.334 262.563 141.539 262.563 142.031C262.612 142.571 262.906 143.651 264.037 144.29L265.756 145.272L265.904 136.432C265.904 136.432 266.248 135.499 266.739 134.123L262.513 132.994Z" fill="black"/>
<path d="M356.708 189.08L262.956 134.615C259.516 132.65 259.516 127.69 262.956 125.725L289.637 110.304C293.617 107.996 298.53 107.996 302.51 110.304L396.263 164.769C399.702 166.734 399.702 171.694 396.263 173.659L369.582 189.08C365.602 191.388 360.688 191.388 356.708 189.08Z" fill="white"/>
<path d="M363.145 192.91C360.541 192.91 357.936 192.223 355.627 190.897L261.875 136.432C259.614 135.106 258.239 132.748 258.239 130.145C258.239 127.543 259.614 125.185 261.875 123.859L288.556 108.438C293.175 105.786 298.923 105.786 303.591 108.438L397.344 162.903C399.604 164.229 400.98 166.586 400.98 169.189C400.98 171.792 399.604 174.15 397.344 175.476L370.663 190.897C368.304 192.272 365.749 192.91 363.145 192.91ZM357.74 187.263C361.081 189.178 365.209 189.178 368.501 187.263L395.182 171.841C396.115 171.301 396.705 170.319 396.705 169.239C396.705 168.158 396.164 167.176 395.182 166.636L301.429 112.121C298.088 110.206 293.961 110.206 290.669 112.121L263.987 127.543C263.054 128.083 262.464 129.065 262.464 130.145C262.464 131.226 263.005 132.208 263.987 132.797L357.74 187.263Z" fill="black"/>
<path d="M177.704 205.532L259.467 252.385L312.19 208.626L231.017 161.282L177.704 205.532Z" fill="#91BFBF"/>
<path d="M259.663 254.988L174.019 205.827L230.771 158.729L315.875 208.332L259.663 254.988ZM181.438 205.188L259.221 249.831L308.505 208.921L231.213 163.885L181.438 205.188Z" fill="black"/>
<path d="M156.526 203.175L238.289 250.076L291.012 206.269L209.839 158.925L156.526 203.175Z" fill="white"/>
<path d="M238.486 252.63L152.841 203.469L209.593 156.371L294.698 205.974L238.486 252.63ZM160.26 202.831L238.043 247.474L287.327 206.563L210.036 161.528L160.26 202.831Z" fill="black"/>
<path d="M195.098 170.908L209.937 179.65C212.247 181.025 215.195 180.78 217.259 179.012L243.448 156.764C245.217 155.242 245.021 152.442 243.006 151.214L228.462 142.276C226.152 140.852 223.155 141.048 221.042 142.865L194.607 165.31C192.789 166.832 193.035 169.73 195.098 170.908Z" fill="#91BFBF"/>
<path d="M213.131 182.646C211.657 182.646 210.183 182.253 208.856 181.467L194.017 172.725C192.445 171.792 191.462 170.221 191.315 168.404C191.167 166.636 191.904 164.868 193.28 163.689L219.765 141.196C222.566 138.838 226.546 138.544 229.641 140.459L244.186 149.397C245.709 150.33 246.692 151.902 246.839 153.719C246.986 155.536 246.249 157.206 244.873 158.385L218.684 180.632C217.013 181.958 215.097 182.646 213.131 182.646ZM225.17 143.455C224.187 143.455 223.253 143.799 222.467 144.437L195.983 166.93C195.491 167.323 195.491 167.863 195.54 168.06C195.54 168.256 195.639 168.796 196.179 169.091L211.018 177.833C212.542 178.717 214.507 178.57 215.883 177.44L242.073 155.192C242.564 154.8 242.564 154.259 242.515 154.063C242.515 153.866 242.417 153.326 241.876 153.032L227.332 144.093C226.693 143.651 225.907 143.455 225.17 143.455Z" fill="black"/>
<path d="M195.098 166.93L209.937 175.672C212.247 177.047 215.195 176.802 217.259 175.034L243.448 152.786C245.217 151.264 245.021 148.464 243.006 147.236L228.462 138.298C226.152 136.874 223.155 137.07 221.042 138.887L194.607 161.332C192.789 162.854 193.035 165.703 195.098 166.93Z" fill="#91BFBF"/>
<path d="M213.131 178.668C211.657 178.668 210.183 178.275 208.856 177.489L194.017 168.747C192.494 167.814 191.462 166.243 191.315 164.426C191.167 162.658 191.904 160.889 193.28 159.711L219.765 137.218C222.566 134.86 226.546 134.566 229.641 136.481L244.186 145.419C245.709 146.352 246.692 147.924 246.839 149.741C246.986 151.558 246.249 153.228 244.873 154.407L218.684 176.654C217.013 177.98 215.097 178.668 213.131 178.668ZM196.13 165.113L210.969 173.855C212.493 174.788 214.458 174.592 215.834 173.413L242.024 151.165C242.515 150.772 242.515 150.232 242.466 150.036C242.466 149.839 242.368 149.299 241.827 149.004L227.283 140.066C225.71 139.133 223.745 139.28 222.369 140.459L195.884 162.952C195.393 163.345 195.393 163.885 195.442 164.082C195.54 164.278 195.639 164.769 196.13 165.113Z" fill="black"/>
<path d="M264.872 273.748L279.711 282.49C282.021 283.865 284.969 283.62 287.032 281.852L292.388 277.923C294.157 276.4 293.961 273.601 291.946 272.373L277.402 263.435C275.092 262.011 272.095 262.207 269.982 264.024L264.331 268.15C262.612 269.672 262.857 272.521 264.872 273.748Z" fill="#91BFBF"/>
<path d="M282.954 285.486C281.48 285.486 279.957 285.093 278.63 284.307L263.84 275.565C262.268 274.632 261.285 273.061 261.138 271.244C260.99 269.476 261.727 267.708 263.103 266.529L268.803 262.305C271.456 260.046 275.436 259.702 278.581 261.667L293.126 270.605C294.649 271.538 295.632 273.11 295.779 274.927C295.926 276.744 295.189 278.414 293.813 279.593L288.31 283.62C286.787 284.848 284.92 285.486 282.954 285.486ZM274.159 264.614C273.176 264.614 272.243 264.957 271.456 265.596L265.707 269.819C265.363 270.114 265.363 270.654 265.363 270.851C265.363 271.047 265.462 271.587 266.002 271.882L280.841 280.624C282.365 281.508 284.33 281.361 285.706 280.231L291.209 276.204C291.553 275.909 291.553 275.369 291.553 275.173C291.553 274.976 291.455 274.436 290.914 274.141L276.321 265.252C275.682 264.81 274.896 264.614 274.159 264.614Z" fill="black"/>
<path d="M264.872 269.721L279.711 278.463C282.02 279.839 284.968 279.593 287.032 277.825L292.388 273.896C294.157 272.374 293.96 269.574 291.946 268.346L277.401 259.408C275.092 257.984 272.095 258.18 269.982 259.997L264.331 264.123C262.611 265.645 262.857 268.543 264.872 269.721Z" fill="#91BFBF"/>
<path d="M282.954 281.459C281.48 281.459 279.957 281.066 278.63 280.281L263.791 271.539C262.219 270.605 261.236 268.985 261.088 267.217C260.941 265.449 261.678 263.681 263.054 262.502L268.803 258.278C271.456 256.019 275.436 255.676 278.581 257.64L293.125 266.578C294.649 267.511 295.631 269.083 295.779 270.9C295.926 272.717 295.189 274.387 293.813 275.566L288.31 279.593C286.787 280.821 284.92 281.459 282.954 281.459ZM274.159 260.587C273.176 260.587 272.242 260.93 271.456 261.569L265.707 265.793C265.363 266.087 265.363 266.627 265.363 266.824C265.363 267.02 265.462 267.561 266.002 267.855L280.841 276.597C282.365 277.53 284.33 277.334 285.706 276.204L291.209 272.177C291.553 271.882 291.553 271.342 291.553 271.146C291.553 270.949 291.455 270.409 290.914 270.114L276.37 261.176C275.682 260.832 274.896 260.587 274.159 260.587Z" fill="black"/>
<path d="M254.504 190.357L269.343 199.099C271.653 200.474 274.601 200.228 276.665 198.46L282.02 194.531C283.789 193.009 283.593 190.209 281.578 188.982L267.034 180.043C264.724 178.619 261.727 178.815 259.614 180.633L253.963 184.758C252.244 186.28 252.489 189.129 254.504 190.357Z" fill="#91BFBF"/>
<path d="M272.586 202.095C271.112 202.095 269.589 201.702 268.262 200.916L253.423 192.174C251.851 191.241 250.868 189.669 250.721 187.852C250.573 186.084 251.31 184.316 252.686 183.137L258.435 178.914C261.089 176.655 265.069 176.36 268.213 178.275L282.758 187.214C284.281 188.147 285.264 189.718 285.411 191.535C285.558 193.353 284.821 195.022 283.446 196.201L277.942 200.228C276.419 201.456 274.552 202.095 272.586 202.095ZM263.791 181.222C262.808 181.222 261.875 181.566 261.089 182.204L255.34 186.428C254.996 186.722 254.996 187.263 254.996 187.459C254.996 187.656 255.094 188.196 255.634 188.491L270.474 197.232C271.997 198.166 273.962 197.969 275.338 196.84L280.841 192.812C281.185 192.518 281.185 191.977 281.185 191.781C281.185 191.585 281.087 191.044 280.547 190.75L266.002 181.811C265.314 181.418 264.528 181.222 263.791 181.222Z" fill="black"/>
<path d="M254.504 186.33L269.343 195.072C271.653 196.447 274.601 196.201 276.665 194.433L282.02 190.504C283.789 188.982 283.593 186.182 281.578 184.954L267.034 176.016C264.724 174.592 261.727 174.788 259.614 176.605L253.963 180.731C252.244 182.253 252.489 185.151 254.504 186.33Z" fill="#91BFBF"/>
<path d="M272.586 198.067C271.112 198.067 269.589 197.674 268.262 196.888L253.423 188.147C251.851 187.213 250.868 185.642 250.721 183.825C250.573 182.057 251.31 180.289 252.686 179.11L258.435 174.886C261.089 172.627 265.069 172.333 268.213 174.248L282.758 183.186C284.281 184.119 285.264 185.691 285.411 187.508C285.558 189.325 284.821 190.995 283.446 192.174L277.942 196.201C276.419 197.429 274.552 198.067 272.586 198.067ZM263.791 177.195C262.808 177.195 261.875 177.538 261.089 178.177L255.34 182.4C254.996 182.695 254.996 183.235 254.996 183.432C254.996 183.628 255.094 184.169 255.634 184.463L270.474 193.205C271.997 194.089 273.962 193.942 275.338 192.812L280.841 188.785C281.185 188.49 281.185 187.95 281.185 187.754C281.185 187.557 281.087 187.017 280.547 186.722L265.953 177.833C265.314 177.44 264.528 177.195 263.791 177.195Z" fill="black"/>
<path d="M333.764 219.119L294.068 239.262L296.425 243.904L336.122 223.761L333.764 219.119Z" fill="black"/>
<path d="M349.277 211.297L321.932 242.786L325.865 246.198L353.211 214.709L349.277 211.297Z" fill="black"/>
<path d="M368.206 269.378C367.469 269.378 366.879 270.016 366.928 270.753L370.712 289.661C370.712 291.92 372.923 294.179 377.345 295.309C379.802 295.898 382.357 295.898 384.814 295.309C389.236 294.229 391.447 291.969 391.447 289.661L395.231 270.753C395.329 270.016 394.739 269.378 393.953 269.378H368.206Z" fill="#91BFBF"/>
<path d="M381.079 297.912C379.654 297.912 378.23 297.764 376.854 297.421C371.793 296.193 368.746 293.393 368.599 289.956L364.864 271.244C364.717 270.114 365.061 269.132 365.7 268.445C366.339 267.757 367.272 267.315 368.206 267.315H393.953C394.887 267.315 395.82 267.708 396.459 268.445C397.098 269.132 397.393 270.114 397.344 271.047L393.609 289.956C393.462 293.393 390.415 296.144 385.354 297.421C383.929 297.715 382.504 297.912 381.079 297.912ZM369.188 271.489L372.775 289.661C372.775 290.84 374.348 292.362 377.836 293.246C379.949 293.786 382.21 293.786 384.322 293.246C387.811 292.411 389.384 290.84 389.384 289.661L389.433 289.268L392.97 271.489H369.188Z" fill="black"/>
<path d="M391.153 263.582C396.754 266.824 396.754 272.03 391.153 275.222C385.551 278.463 376.51 278.463 370.958 275.222C365.356 271.981 365.356 266.775 370.958 263.582C376.559 260.341 385.6 260.341 391.153 263.582Z" fill="#91BFBF"/>
<path d="M381.08 279.789C377.05 279.789 373.07 278.905 369.926 277.088C366.535 275.124 364.668 272.423 364.668 269.427C364.668 266.431 366.535 263.73 369.926 261.765C376.166 258.131 385.993 258.131 392.234 261.765C395.624 263.73 397.491 266.431 397.491 269.427C397.491 272.423 395.624 275.124 392.234 277.088C389.089 278.856 385.06 279.789 381.08 279.789ZM381.08 263.288C377.787 263.288 374.495 263.975 372.038 265.4C370.073 266.529 368.894 268.002 368.894 269.378C368.894 270.753 370.024 272.226 372.038 273.356C376.952 276.204 385.207 276.204 390.121 273.356C392.086 272.226 393.265 270.753 393.265 269.378C393.265 268.002 392.135 266.529 390.121 265.4C387.664 263.975 384.372 263.288 381.08 263.288Z" fill="black"/>
<path d="M148.271 422.116C146.699 428.108 146.158 434.345 146.601 440.533C146.601 440.533 157.951 445.739 166.353 441.712C174.756 437.635 182.077 442.252 182.618 442.497C183.158 442.743 205.22 439.305 205.368 439.845C205.515 440.435 210.675 430.465 202.911 426.978C195.147 423.491 177.507 416.566 177.507 416.566L168.221 413.374L152.35 417.941C150.384 418.482 148.812 420.053 148.271 422.116Z" fill="white"/>
<path d="M158.934 445.297C152.153 445.297 146.06 442.546 145.716 442.399L144.586 441.859L144.488 440.631C143.996 434.197 144.586 427.764 146.207 421.576C146.895 418.825 149.057 416.664 151.76 415.879L168.27 411.115L178.195 414.553C178.441 414.651 196.081 421.576 203.795 425.063C208.169 427.027 210.085 431.152 209.053 436.309C208.66 438.372 207.628 441.908 205.466 441.957L203.795 442.006V441.908C201.191 442.153 195.59 442.939 191.61 443.479C182.618 444.707 182.618 444.707 181.881 444.413L181.389 444.167C176.574 441.662 171.709 441.417 167.287 443.578C164.634 444.855 161.735 445.297 158.934 445.297ZM148.664 439.01C151.612 440.14 159.523 442.595 165.469 439.747C170.972 437.095 177.262 437.291 183.158 440.287C184.386 440.189 187.924 439.698 191.02 439.256C198.096 438.274 202.026 437.733 204.238 437.635C204.778 436.358 205.466 433.903 204.876 431.889C204.483 430.514 203.55 429.532 202.076 428.844C194.459 425.406 176.918 418.531 176.77 418.482L168.221 415.535L152.988 419.906C151.711 420.299 150.679 421.33 150.335 422.607C148.959 428.009 148.369 433.51 148.664 439.01Z" fill="black"/>
<path d="M149.647 403.944L151.367 415.584C151.367 415.584 155.74 422.459 164.437 420.102C173.134 417.745 167.14 398.64 167.14 398.64L149.647 403.944Z" fill="#D8B182"/>
<path d="M160.949 422.705C155.101 422.705 151.072 419.071 149.598 416.762L149.352 416.369L147.289 402.471L168.516 396.037L169.154 398.051C169.597 399.426 173.331 411.802 169.744 418.383C168.712 420.298 167.041 421.624 165.027 422.214C163.602 422.558 162.226 422.705 160.949 422.705ZM153.381 414.798C154.266 415.977 157.804 419.758 163.897 418.088C164.83 417.843 165.518 417.253 166.01 416.32C167.975 412.784 166.747 405.516 165.666 401.292L152.006 405.417L153.381 414.798Z" fill="black"/>
<path d="M188.219 309.846L147.583 325.021C146.011 330.767 145.028 337.545 146.011 344.519C148.566 362.199 147.829 387.835 146.404 404.583C146.404 404.583 155.347 415.485 169.449 405.614C169.449 405.614 179.08 336.219 187.531 312.35C187.826 311.466 187.973 310.681 188.219 309.846Z" fill="black"/>
<path d="M157.951 411.851C149.794 411.851 144.832 406.007 144.783 405.909L144.242 405.221L144.291 404.386C145.716 387.934 146.453 362.445 143.898 344.813C143.014 338.527 143.554 331.701 145.52 324.432L145.814 323.401L191.413 306.359L190.037 311.221C189.89 311.81 189.742 312.4 189.497 313.038C181.242 336.415 171.611 405.172 171.513 405.86L171.365 406.793L170.628 407.333C165.862 410.673 161.587 411.851 157.951 411.851ZM148.566 403.797C150.482 405.663 157.312 410.967 167.484 404.337C168.663 395.841 177.114 337.054 184.927 313.284L149.303 326.593C147.682 332.879 147.288 338.773 148.075 344.175C150.63 361.855 149.942 387.099 148.566 403.797Z" fill="black"/>
<path d="M190.713 421.858L188.762 427.834L192.779 429.144L194.73 423.169L190.713 421.858Z" fill="black"/>
<path d="M182.874 419.489L180.922 425.465L184.939 426.776L186.891 420.8L182.874 419.489Z" fill="black"/>
<path d="M176.174 416.279L174.223 422.255L178.24 423.565L180.191 417.59L176.174 416.279Z" fill="black"/>
<path d="M205.368 439.796C205.466 440.189 208.119 435.229 206.793 431.104C190.872 435.818 153.185 433.706 146.601 433.314C146.453 435.72 146.453 438.126 146.601 440.484C146.601 440.484 157.951 445.69 166.353 441.663C174.756 437.586 182.077 442.203 182.618 442.448C183.158 442.645 205.22 439.207 205.368 439.796Z" fill="#91BFBF"/>
<path d="M158.885 445.297C152.104 445.297 146.011 442.547 145.667 442.399L144.537 441.859L144.438 440.631C144.291 438.372 144.242 435.916 144.438 433.166L144.537 431.054L146.65 431.202C153.873 431.644 190.676 433.657 206.105 429.09L208.07 428.5L208.709 430.465C210.183 435.081 207.874 440.189 206.94 441.22L206.105 442.154L204.729 441.859C203.009 441.908 196.13 442.841 191.511 443.48C182.568 444.707 182.519 444.707 181.782 444.413L181.291 444.167C176.475 441.662 171.611 441.417 167.189 443.578C164.584 444.855 161.685 445.297 158.885 445.297ZM148.615 439.01C151.563 440.14 159.474 442.596 165.42 439.747C170.923 437.095 177.212 437.292 183.109 440.287C184.337 440.189 187.826 439.698 190.971 439.256C198.046 438.274 201.977 437.734 204.188 437.635C204.581 436.751 205.024 435.229 205.024 433.706C189.251 437.39 158.786 436.064 148.566 435.474C148.566 436.751 148.566 437.93 148.615 439.01Z" fill="black"/>
<path d="M99.7241 516.067L94.6631 507.718L149.696 474.567C156.428 470.54 160.064 462.879 158.934 455.119L151.023 400.899L160.702 399.475L168.613 453.695C170.333 465.383 164.879 476.875 154.757 482.916L99.7241 516.067Z" fill="black"/>
<path d="M21.0076 469.017L15.9465 460.668L72.9939 426.29C79.0377 422.656 82.7721 416.32 83.0669 409.297L85.0324 356.846L94.8105 357.239L92.8451 409.69C92.452 420.004 86.9487 429.384 78.055 434.688L21.0076 469.017Z" fill="black"/>
<path d="M186.745 381.992C186.745 381.942 186.745 373.102 186.745 371.383C186.745 371.187 186.646 371.089 186.45 371.04L160.014 363.673C159.965 363.673 159.965 363.673 159.916 363.624L94.9578 325.857C94.8595 325.808 94.6629 325.808 94.5647 325.857L32.1614 361.365C32.0631 361.414 31.9649 361.414 31.8666 361.414L23.6608 359.105C23.4151 359.056 23.1694 359.204 23.1694 359.498C23.1694 361.61 23.2186 369.419 23.2186 369.664V369.714C23.366 371.089 24.103 372.415 25.4297 373.201L109.207 421.92C112.893 424.08 117.462 424.08 121.147 421.92L184.484 385.871C185.958 385.036 186.695 383.563 186.745 382.09V381.992Z" fill="#91BFBF"/>
<path d="M115.153 425.652C112.696 425.652 110.288 425.014 108.077 423.737L24.3979 375.067C22.5307 373.986 21.3515 372.12 21.1058 369.959C21.0566 369.517 21.0566 362.494 21.0566 359.498C21.0566 358.713 21.4006 357.976 22.0394 357.485C22.6781 356.994 23.5135 356.846 24.2505 357.092L31.7684 359.204L93.5329 324.04C94.3191 323.598 95.2527 323.598 96.0388 324.04L160.801 361.708L186.99 369.026C188.071 369.321 188.808 370.303 188.808 371.432V373.937C188.808 377.179 188.808 382.041 188.808 382.09L188.759 382.384C188.661 384.545 187.433 386.608 185.418 387.738L122.081 423.835C120.017 425.014 117.61 425.652 115.153 425.652ZM25.2824 361.807C25.2824 364.802 25.3315 369.173 25.3315 369.615C25.3806 370.057 25.6263 370.941 26.5108 371.482L110.239 420.152C113.286 421.92 117.02 421.92 120.067 420.152L183.403 384.054C184.435 383.465 184.583 382.434 184.632 381.992H186.745H184.632C184.632 381.795 184.632 377.08 184.632 373.937V372.759L158.835 365.441L94.7613 328.214L32.5054 363.673L31.3262 363.476L25.2824 361.807Z" fill="black"/>
<path d="M30.0485 360.922L23.6608 359.154C23.4151 359.105 23.1694 359.253 23.1694 359.547C23.1694 361.659 23.2186 369.468 23.2186 369.713V369.762C23.366 371.138 24.103 372.464 25.4297 373.249L29.9994 375.901V360.922H30.0485Z" fill="black"/>
<path d="M32.1615 379.585L24.3979 375.067C22.5307 373.986 21.3515 372.12 21.1058 369.959C21.0566 369.517 21.0566 362.494 21.0566 359.498C21.0566 358.712 21.4006 357.976 22.0394 357.485C22.6781 356.994 23.4643 356.846 24.2505 357.092L32.1615 359.302V379.585ZM25.2824 361.806C25.2824 364.802 25.3315 369.173 25.3315 369.615C25.3806 370.057 25.6263 370.941 26.5108 371.482L27.9357 372.316V362.592L25.2824 361.806Z" fill="black"/>
<path d="M186.45 371.039L160.014 363.673C159.965 363.673 159.965 363.673 159.916 363.624L114.76 396.627V423.491C116.922 423.54 119.133 423.049 121.049 421.919L184.386 385.871C185.86 385.036 186.597 383.563 186.646 382.09V381.991C186.646 381.942 186.646 373.102 186.646 371.383C186.745 371.236 186.646 371.089 186.45 371.039Z" fill="black"/>
<path d="M115.202 425.652C115.055 425.652 114.907 425.652 114.76 425.652L112.696 425.603V395.595L159.818 361.168L160.85 361.708L187.089 369.026C188.17 369.321 188.907 370.303 188.907 371.432V373.937C188.907 377.178 188.907 382.041 188.907 382.09C188.808 384.545 187.531 386.608 185.565 387.738L122.229 423.835C120.067 425.013 117.659 425.652 115.202 425.652ZM116.922 397.707V421.232C118.003 421.035 119.084 420.643 120.067 420.102L183.403 384.005C184.435 383.416 184.583 382.384 184.632 381.942C184.632 381.746 184.632 377.031 184.632 373.888V372.709L160.358 365.932L116.922 397.707Z" fill="black"/>
<path d="M109.404 411.458L25.4787 362.69C22.4322 360.922 22.4322 356.502 25.4787 354.734L89.0121 318.539C92.5991 316.476 96.9722 316.476 100.559 318.539L184.484 367.307C187.531 369.075 187.531 373.495 184.484 375.263L120.902 411.508C117.364 413.57 112.942 413.57 109.404 411.458Z" fill="white"/>
<path d="M115.153 415.142C112.794 415.142 110.436 414.503 108.323 413.325L24.3979 364.557C22.2851 363.329 21.0566 361.168 21.0566 358.712C21.0566 356.306 22.3342 354.096 24.3979 352.917L87.9805 316.722C92.2062 314.315 97.4147 314.315 101.64 316.771L185.565 365.539C187.678 366.767 188.907 368.928 188.907 371.383C188.907 373.79 187.629 376 185.565 377.178L121.983 413.374C119.87 414.552 117.511 415.142 115.153 415.142ZM94.8104 319.128C93.1889 319.128 91.5674 319.57 90.0933 320.405L26.5108 356.551C25.3806 357.19 25.2824 358.27 25.2824 358.712C25.2824 359.154 25.3806 360.235 26.5108 360.873L110.436 409.641C113.335 411.311 116.922 411.311 119.87 409.641L183.453 373.446C184.583 372.807 184.681 371.727 184.681 371.285C184.681 370.843 184.583 369.762 183.453 369.124L99.5275 320.356C98.0534 319.521 96.4319 319.128 94.8104 319.128Z" fill="black"/>
<path d="M154.118 203.421L164.732 197.183C168.712 194.875 173.232 193.795 177.851 194.089C183.797 194.482 187.777 195.612 190.823 200.769L191.118 203.273L180.701 206.564L180.357 207.988L183.747 209.412C183.747 209.412 180.701 219.333 161.882 216.975C144.635 214.716 154.118 203.421 154.118 203.421Z" fill="#D8B182"/>
<path d="M167.434 219.333C165.665 219.333 163.749 219.235 161.685 218.94C155.248 218.154 151.318 215.944 149.942 212.457C147.976 207.497 152.349 202.193 152.546 201.996L153.086 201.554L163.7 195.317C168.024 192.763 172.987 191.585 177.999 191.928C184.435 192.37 189.153 193.795 192.641 199.59L192.887 199.983L193.477 204.648L184.779 207.399L186.401 208.086L185.86 209.903C185.664 210.345 182.716 219.333 167.434 219.333ZM155.543 205.041C154.659 206.22 153.086 208.97 153.873 210.984C154.61 212.85 157.558 214.225 162.177 214.765C174.068 216.239 178.932 212.654 180.75 210.345L177.9 209.167L178.932 204.845L188.809 201.751L188.759 201.456C186.204 197.429 183.109 196.545 177.704 196.201C173.527 195.906 169.4 196.889 165.813 199L155.543 205.041Z" fill="black"/>
<path d="M144.34 207.497L150.089 204.452C150.974 203.961 152.005 204.059 152.792 204.649C154.61 206.073 157.951 209.167 159.916 214.078C160.408 215.306 159.72 216.73 158.491 217.221L152.005 219.971C150.875 220.463 149.598 220.07 148.91 219.087L143.456 211.18C142.571 209.953 143.014 208.234 144.34 207.497Z" fill="black"/>
<path d="M151.023 222.329C149.549 222.329 148.075 221.592 147.19 220.315L141.736 212.408C140.999 211.328 140.753 209.953 141.048 208.676C141.343 207.399 142.227 206.318 143.358 205.68L149.107 202.635C150.728 201.751 152.693 201.947 154.118 203.028C156.084 204.599 159.769 207.988 161.882 213.341C162.766 215.6 161.636 218.252 159.327 219.235L152.841 221.985C152.251 222.181 151.612 222.329 151.023 222.329ZM151.318 206.22C151.219 206.22 151.17 206.269 151.072 206.269L145.323 209.314C145.176 209.363 145.126 209.511 145.126 209.56C145.126 209.658 145.077 209.756 145.176 209.903L150.63 217.81C150.728 217.958 150.974 218.056 151.121 217.958L157.607 215.208C157.804 215.109 157.951 214.913 157.902 214.765C156.133 210.345 153.087 207.497 151.465 206.22C151.416 206.269 151.367 206.22 151.318 206.22Z" fill="black"/>
<path d="M78.2517 201.603C79.6766 205.532 76.188 196.643 78.2517 201.603C84.0006 215.453 90.8797 230.53 90.8797 230.53C90.8797 230.53 107.39 223.213 119.526 219.284C130.287 215.797 139.279 209.854 141.146 208.577C141.392 208.381 141.687 208.381 141.982 208.43C143.849 209.019 150.826 211.622 151.268 219.677C151.268 220.02 151.17 220.364 150.875 220.61C146.6 224.146 108.913 255.086 80.9051 260.734C80.9051 260.734 64.7392 247.327 56.7791 222.23C48.7698 197.183 74.8613 192.125 78.2517 201.603Z" fill="#91BFBF"/>
<path d="M80.3646 263.043L79.5784 262.404C78.8905 261.864 62.8229 248.309 54.7645 222.918C49.7526 207.202 57.1722 198.559 64.9849 195.907C70.3408 194.139 75.6475 195.121 78.4974 198.068C79.1362 198.46 79.5293 199.246 79.9224 200.13C80.0206 200.327 80.1189 200.572 80.2172 200.818C84.6886 211.622 89.8971 223.262 91.9117 227.731C96.6288 225.668 109.159 220.413 118.838 217.27C129.403 213.832 138.247 207.988 139.918 206.809C140.704 206.269 141.638 206.122 142.571 206.417C147.485 207.89 152.939 212.163 153.381 219.579C153.43 220.61 153.037 221.592 152.251 222.231C147.976 225.767 109.846 257.051 81.3473 262.846L80.3646 263.043ZM70.3408 199.246C69.0632 199.246 67.6874 199.443 66.3116 199.934C59.973 202.046 54.7154 208.872 58.7446 221.641C65.4763 242.759 78.2517 255.528 81.4947 258.475C108.127 252.533 143.358 224.097 149.106 219.333C148.517 213.636 143.947 211.377 141.834 210.64C139.23 212.359 130.484 217.958 120.165 221.297C108.274 225.177 91.9117 232.397 91.7151 232.446L89.7988 233.281L88.9143 231.365C88.8652 231.218 82.3792 217.074 76.8268 203.715C76.4828 203.175 76.188 202.439 75.9423 201.751C75.8932 201.702 75.8932 201.604 75.844 201.505C74.8613 200.081 72.7976 199.246 70.3408 199.246Z" fill="black"/>
<path d="M227.97 447.163C227.381 453.351 227.823 459.539 229.248 465.58C229.248 465.58 241.286 468.969 248.952 463.615C256.617 458.311 264.577 461.7 265.167 461.798C265.756 461.946 286.983 455.07 287.18 455.61C287.425 456.15 290.914 445.542 282.708 443.283C274.503 441.073 255.978 436.997 255.978 436.997L246.298 435.278L231.361 442.301C229.445 443.283 228.167 445.1 227.97 447.163Z" fill="white"/>
<path d="M237.601 468.772C232.786 468.772 228.953 467.741 228.658 467.642L227.43 467.299L227.135 466.071C225.661 459.784 225.219 453.351 225.858 446.966C226.103 444.167 227.872 441.662 230.427 440.434L246.004 433.117L256.322 434.934C256.617 434.983 275.092 439.059 283.249 441.269C287.868 442.546 290.423 446.279 290.226 451.583C290.128 453.695 289.686 457.329 287.622 457.722L285.951 458.016L285.902 457.967C283.396 458.606 277.942 460.276 274.11 461.405C265.462 464.057 265.412 464.008 264.675 463.861L264.184 463.713C259.025 461.994 254.209 462.535 250.18 465.334C246.298 468.035 241.63 468.772 237.601 468.772ZM230.968 463.812C234.014 464.45 242.269 465.629 247.674 461.896C252.686 458.409 258.926 457.624 265.216 459.637C266.395 459.342 269.786 458.311 272.832 457.378C279.662 455.315 283.446 454.137 285.608 453.695C285.951 452.369 286.197 449.864 285.313 447.948C284.723 446.672 283.642 445.788 282.07 445.395C274.011 443.185 255.634 439.157 255.438 439.157L246.544 437.586L232.196 444.314C230.968 444.904 230.132 446.082 230.034 447.408C229.543 452.909 229.838 458.409 230.968 463.812Z" fill="black"/>
<path d="M225.219 429.827L228.806 441.073C228.806 441.073 234.26 447.163 242.417 443.431C250.574 439.698 241.631 421.821 241.631 421.821L225.219 429.827Z" fill="#D8B182"/>
<path d="M237.159 446.77C232.442 446.77 228.806 444.314 227.184 442.497L226.89 442.153L222.615 428.746L242.564 419.021L243.498 420.888C244.136 422.214 249.787 433.804 247.281 440.876C246.544 442.939 245.168 444.511 243.203 445.395C241.139 446.328 239.075 446.77 237.159 446.77ZM230.673 439.943C231.754 440.975 235.832 444.118 241.581 441.515C242.466 441.122 243.055 440.434 243.399 439.452C244.775 435.621 242.368 428.647 240.697 424.669L227.872 430.956L230.673 439.943Z" fill="black"/>
<path d="M53.094 338.723C53.094 338.723 78.1536 371.579 100.216 378.75C113.532 383.071 138.297 382.58 158.197 368.927C158.197 368.927 177.901 356.355 189.448 345.599C189.988 345.108 190.873 345.501 190.823 346.238C190.578 351.689 192.347 369.32 200.208 381.303C210.036 396.233 218.635 417.155 224.433 432.92C224.433 432.92 237.159 439.01 245.758 424.08C245.758 424.08 225.022 357.14 222.516 331.995C220.944 316.23 211.952 308.913 205.466 305.671C201.879 303.903 197.85 303.314 193.919 303.903L187.58 304.836C176.426 306.506 165.42 309.305 154.856 313.283L103.803 332.241L53.094 338.723Z" fill="black"/>
<path d="M230.673 436.26C226.595 436.26 223.647 434.885 223.548 434.885L222.762 434.492L222.467 433.706C214.311 411.557 206.203 394.318 198.44 382.531C191.462 371.923 189.005 356.993 188.711 349.185C177.065 359.449 160.064 370.303 159.327 370.794C140.213 383.907 114.76 385.773 99.577 380.813C77.1708 373.544 52.4552 341.425 51.4233 340.05L49.2122 337.152L103.311 330.276L154.118 311.368C164.83 307.39 175.984 304.493 187.286 302.823L193.624 301.89C198.145 301.202 202.567 301.89 206.449 303.854C213.868 307.587 223.057 315.445 224.678 331.848C227.135 356.502 247.625 422.852 247.822 423.54L248.117 424.424L247.674 425.21C242.417 434.197 235.685 436.26 230.673 436.26ZM226.103 431.3C228.658 432.184 237.061 434.099 243.449 423.785C240.844 415.387 222.762 355.962 220.404 332.192C218.979 317.704 210.969 310.779 204.532 307.538C201.437 305.966 197.85 305.426 194.214 306.015L187.875 306.948C176.869 308.569 166.009 311.368 155.543 315.248L104.048 334.353L57.074 340.295C63.7074 348.399 83.4603 371.039 100.855 376.687C112.352 380.42 136.822 380.96 156.968 367.159C157.214 367.012 176.721 354.538 187.973 344.028C188.858 343.193 190.135 342.996 191.217 343.488C192.298 343.979 192.985 345.108 192.887 346.287C192.641 351.296 194.361 368.584 201.928 380.076C209.839 392.059 217.947 409.248 226.103 431.3Z" fill="black"/>
<path d="M191.56 345.747L187.335 345.452C187.384 345.01 188.121 334.697 194.116 328.116L197.26 330.964C192.248 336.465 191.56 345.649 191.56 345.747Z" fill="#91BFBF"/>
<path d="M269.983 441.457L268.67 447.554L272.801 448.443L274.114 442.346L269.983 441.457Z" fill="black"/>
<path d="M261.882 440.173L260.57 446.271L264.701 447.159L266.013 441.061L261.882 440.173Z" fill="black"/>
<path d="M254.811 437.867L253.499 443.964L257.63 444.852L258.942 438.755L254.811 437.867Z" fill="black"/>
<path d="M286.885 455.659C287.032 456.003 288.556 451.681 287.376 447.948C266.543 456.003 228.56 459.735 227.921 459.784C228.167 461.749 228.462 463.664 228.953 465.579C228.953 465.579 240.992 468.968 248.657 463.615C256.322 458.311 264.282 461.7 264.872 461.798C265.462 461.945 286.639 455.119 286.885 455.659Z" fill="#91BFBF"/>
<path d="M237.355 468.772C232.54 468.772 228.707 467.741 228.413 467.642L227.233 467.299L226.938 466.071C226.496 464.303 226.201 462.387 225.907 460.079L225.612 457.918L227.774 457.722C229.346 457.574 266.395 453.842 286.639 446.033L288.752 445.198L289.44 447.359C290.472 450.551 289.981 456.838 287.72 457.673L285.853 458.409L285.706 458.066C283.2 458.704 277.746 460.374 273.913 461.503C265.265 464.155 265.216 464.106 264.479 463.959L263.987 463.812C258.828 462.093 254.013 462.633 249.983 465.432C246.053 468.035 241.385 468.772 237.355 468.772ZM230.771 463.812C233.867 464.45 242.073 465.629 247.478 461.896C252.489 458.409 258.73 457.624 265.019 459.637C266.199 459.342 269.589 458.311 272.635 457.378C279.465 455.315 283.249 454.137 285.411 453.695C285.558 452.958 285.755 451.927 285.706 450.797C267.329 457.231 238.535 460.718 230.329 461.651C230.476 462.437 230.624 463.173 230.771 463.812Z" fill="black"/>
<path d="M146.846 303.854C146.846 303.854 161.833 339.362 161.833 359.056C161.833 359.056 147.19 390.979 110.829 388.081C94.9579 386.804 65.476 371.137 52.6022 354.832C47.4429 348.3 52.5531 324.432 50.8333 316.279L31.9649 230.383C31.9649 230.383 25.2824 206.22 36.9277 193.745C38.5001 192.076 40.6621 190.946 42.9224 190.602C48.4256 189.767 65.5251 194.187 64.6898 193.991C51.7669 190.651 101.984 209.805 101.984 209.805L119.968 224.44L137.117 290.103L146.846 303.854Z" fill="#91BFBF"/>
<path d="M115.399 390.389C113.875 390.389 112.254 390.34 110.632 390.193C94.7614 388.916 64.5916 373.446 50.9317 356.158C47.2956 351.542 47.9835 340.983 48.6223 330.817C49.0154 325.071 49.3593 319.619 48.7206 316.771L29.9013 230.825C29.6556 229.892 23.0713 205.483 35.3554 192.272C37.2226 190.258 39.8269 188.932 42.5785 188.49C45.1827 188.097 58.1056 189.866 63.8054 191.634C64.2477 191.732 64.739 191.83 65.1321 191.928L65.083 192.076C65.82 192.37 66.2623 192.665 66.4588 192.91L66.8519 193.598C73.8784 196.692 91.2727 203.47 102.623 207.84L103.213 208.184L121.737 223.262L139.082 289.17L148.811 303.019C149.45 304.493 163.995 339.166 163.995 359.056V359.498L163.798 359.94C163.602 360.235 149.352 390.389 115.399 390.389ZM44.5931 192.616C44.0526 192.616 43.6104 192.665 43.2173 192.714C41.3992 193.009 39.6794 193.844 38.451 195.17C27.7884 206.662 33.9305 229.597 33.9796 229.793L52.8971 315.837C53.6342 319.275 53.2902 324.727 52.848 331.062C52.3075 339.559 51.6196 350.167 54.273 353.506C66.901 369.566 96.0389 384.741 110.976 385.969C143.603 388.572 157.853 362.346 159.72 358.565C159.474 340.197 146.207 307.783 144.979 304.836L135.053 290.594L118.101 225.619L100.903 211.622C73.1414 201.014 64.1003 197.331 61.3978 195.317C56.7789 194.286 48.7697 192.616 44.5931 192.616Z" fill="black"/>
<path d="M243.41 208.53L233.179 233L237.985 235.007L248.216 210.537L243.41 208.53Z" fill="black"/>
<path d="M215.981 243.692C215.981 243.692 220.649 234.164 225.956 230.923C229.936 228.517 232.688 231.709 233.818 233.477C234.211 234.066 234.899 234.263 235.587 234.017L247.281 229.204C248.657 228.664 250.23 229.106 251.016 230.334C252.588 232.691 254.21 237.209 250.77 243.741C245.463 253.858 225.809 256.265 225.809 256.265L215.981 243.692Z" fill="#D8B182"/>
<path d="M224.875 258.475L213.475 243.987L214.065 242.808C214.262 242.415 219.077 232.691 224.875 229.155C228.56 226.896 232.54 227.977 235.292 231.856L246.495 227.24C248.804 226.307 251.458 227.092 252.834 229.155C254.504 231.66 256.715 237.062 252.686 244.675C246.937 255.626 226.939 258.18 226.103 258.328L224.875 258.475ZM218.487 243.447L226.693 253.908C230.821 253.22 244.824 250.372 248.903 242.661C251.753 237.21 250.672 233.575 249.247 231.414C249.001 231.021 248.51 230.923 248.067 231.071L236.373 235.884C234.801 236.522 232.983 235.982 232.049 234.508C229.789 230.972 227.823 232.2 227.086 232.642C223.647 234.803 220.158 240.402 218.487 243.447Z" fill="black"/>
<path d="M209.102 248.702L214.557 244.232C215.392 243.545 216.522 243.397 217.505 243.889C219.765 245.018 223.991 247.621 227.086 252.434C227.873 253.662 227.43 255.283 226.251 256.117L219.913 260.439C218.831 261.176 217.357 261.078 216.424 260.145L208.906 252.827C207.727 251.648 207.825 249.733 209.102 248.702Z" fill="black"/>
<path d="M218.34 262.993C217.112 262.993 215.883 262.551 214.95 261.618L207.432 254.3C206.449 253.318 205.909 251.992 205.958 250.617C206.007 249.242 206.646 247.916 207.727 247.032L213.181 242.563C214.655 241.335 216.719 241.089 218.389 241.924C220.846 243.152 225.416 246.001 228.806 251.206C230.182 253.367 229.543 256.265 227.381 257.787L221.043 262.109C220.256 262.748 219.323 262.993 218.34 262.993ZM210.429 250.322C210.233 250.47 210.183 250.666 210.183 250.814C210.183 250.912 210.183 251.108 210.38 251.305L217.898 258.622C218.094 258.819 218.438 258.868 218.684 258.671L225.023 254.35C225.268 254.153 225.416 253.809 225.268 253.564C222.418 249.193 218.586 246.786 216.522 245.755C216.276 245.657 216.031 245.755 215.883 245.853L210.429 250.322Z" fill="black"/>
<path d="M109.847 226.896C111.861 224.342 115.104 223.606 118.102 224.391C119.576 224.784 120.952 225.57 122.082 226.65C125.325 229.843 130.73 235.884 135.938 244.576C143.997 258.033 161.833 282.933 161.833 282.933C161.833 282.933 176.623 272.57 187.728 266.333C197.605 260.832 205.27 253.269 206.842 251.599C207.039 251.403 207.334 251.305 207.628 251.305C209.545 251.501 216.964 252.729 218.979 260.587C219.077 260.881 218.979 261.225 218.782 261.471C215.441 265.596 186.549 300.76 160.801 313.137C159.082 313.971 156.969 313.579 155.593 312.302C148.321 305.524 125.964 283.866 115.448 264.712C102.771 241.679 106.112 231.758 109.749 226.994C109.749 226.994 109.798 226.945 109.847 226.896Z" fill="#91BFBF"/>
<path d="M158.836 315.788C157.165 315.788 155.445 315.15 154.168 313.922C147.387 307.587 124.342 285.339 113.581 265.793C103.557 247.572 101.69 234.115 108.029 225.766L108.176 225.57C110.633 222.476 114.613 221.248 118.642 222.329C120.509 222.82 122.229 223.802 123.556 225.128C127.192 228.713 132.597 234.852 137.707 243.447C144.39 254.644 158.148 274.142 162.324 279.937C166.55 276.99 177.802 269.378 186.696 264.417C196.376 259.015 203.943 251.501 205.368 250.077C206.007 249.389 206.891 249.045 207.825 249.144C212.984 249.635 219.175 252.778 221.042 260.046C221.288 261.029 221.042 262.06 220.453 262.797C217.21 266.824 187.924 302.43 161.784 315.052C160.801 315.543 159.818 315.788 158.836 315.788ZM109.847 226.896L111.419 228.32C106.161 235.196 108.127 247.13 117.315 263.73C127.781 282.736 150.384 304.542 157.067 310.779C157.853 311.516 158.983 311.712 159.917 311.27C184.485 299.434 212.247 266.185 216.817 260.587C215.146 255.086 210.183 253.76 208.021 253.465C205.81 255.676 198.292 262.846 188.809 268.15C177.901 274.24 163.209 284.504 163.061 284.602L161.342 285.781L160.113 284.062C159.917 283.817 142.08 258.966 134.12 245.558C129.206 237.308 124.047 231.512 120.607 228.075C119.772 227.24 118.74 226.65 117.561 226.356C115.202 225.717 112.893 226.405 111.517 228.124L109.847 226.896ZM111.468 228.222L109.797 226.896L111.468 228.222Z" fill="black"/>
<path d="M163.848 293.541L159.769 292.313C160.703 289.268 160.064 284.799 159.72 283.325L163.848 282.441C163.946 282.687 165.273 288.875 163.848 293.541Z" fill="black"/>
<path d="M115.448 360.382L102.672 296.881C101.837 292.755 99.282 289.17 95.5967 287.058L17.3224 242.219C16.3397 241.679 15.2095 241.433 14.2759 241.63C7.4951 242.415 3.51505 248.554 2.82714 249.733C2.778 249.831 2.82714 249.979 2.92541 250.077L11.9665 255.479L12.7036 255.135L22.9731 309.06C23.7593 313.088 26.2161 316.624 29.7539 318.735H29.803L88.9633 341.72C89.0125 341.72 89.0616 341.769 89.0616 341.818L94.8106 349.037C94.8106 349.037 94.8597 349.087 94.8597 349.136L102.525 372.513C102.574 372.611 102.623 372.66 102.771 372.66C104.245 372.66 115.006 372.316 115.595 363.673L115.644 362.985C115.743 362.445 115.595 360.922 115.448 360.382Z" fill="white"/>
<path d="M101.198 374.772L100.51 373.151L92.9435 350.118L87.735 343.586L28.6239 320.503C24.6438 318.146 21.7939 314.119 20.9094 309.453L10.8856 257.296L1.84449 251.894C0.714356 251.206 0.370401 249.782 1.00918 248.653C1.84449 247.277 6.31591 240.402 14.0303 239.518C15.2587 239.223 16.9294 239.518 18.3543 240.353L96.5796 285.192C100.756 287.598 103.704 291.675 104.687 296.438L117.463 359.94C117.512 360.284 117.856 362.298 117.659 363.329L117.61 363.771C117.02 371.776 109.208 374.674 102.672 374.723L101.198 374.772ZM14.276 252.14L25.086 308.716C25.7248 312.154 27.8377 315.199 30.8841 316.967L90.2901 340.001L90.7323 340.492L96.8744 348.448L104.097 370.499C107.095 370.254 113.089 369.075 113.482 363.525L113.532 362.838C113.581 362.396 113.482 361.315 113.384 360.824L100.609 297.322C99.9208 293.786 97.7097 290.741 94.565 288.924L16.2906 244.036C15.6518 243.692 15.0622 243.643 14.7674 243.692C10.3451 244.233 7.29864 247.277 5.72627 249.291L12.114 253.122L14.276 252.14Z" fill="black"/>
<path d="M115.645 363.82L115.694 363.133C115.792 362.641 115.595 361.119 115.497 360.53L102.722 297.028C102.28 294.867 101.395 292.903 100.118 291.184C96.4323 294.916 90.9781 297.028 90.9781 297.028C90.9781 297.028 79.7259 303.609 78.7432 304.002C77.7604 304.395 60.0222 322.321 59.2851 324.285C59.1377 324.678 59.4325 327.084 60.0222 330.67L89.0127 341.916C89.0618 341.916 89.111 341.965 89.111 342.014L94.8599 349.234C94.8599 349.234 94.909 349.283 94.909 349.332L102.574 372.709C102.623 372.808 102.673 372.906 102.82 372.857C104.245 372.808 115.006 372.464 115.645 363.82Z" fill="black"/>
<path d="M101.248 374.919L100.56 373.298L92.9927 350.216L87.7842 343.684L58.1058 332.143L57.9092 330.964C56.9265 324.874 57.0248 324.236 57.2705 323.548C58.2041 321.092 76.4337 302.675 77.9078 302.037C78.6448 301.693 84.6395 298.255 89.8479 295.21L90.1427 295.063C90.1919 295.063 95.2038 293.05 98.4959 289.71L100.216 287.942L101.69 289.906C103.213 291.92 104.196 294.179 104.687 296.586L117.463 360.087C117.463 360.136 117.856 362.346 117.659 363.476V363.918C117.07 371.972 109.257 374.821 102.722 374.87L101.248 374.919ZM61.8893 329.098L90.2902 340.148L90.7324 340.688L96.8253 348.546L104.097 370.597C107.046 370.352 113.089 369.173 113.483 363.623L113.532 362.936C113.581 362.494 113.483 361.413 113.384 360.922L100.609 297.42C100.412 296.389 100.068 295.358 99.5769 294.425C96.3339 297.028 92.6978 298.55 91.8625 298.894C88.5704 300.809 81.3965 304.984 79.7258 305.819C77.6129 307.439 63.3142 322.026 61.3488 324.874C61.3979 325.365 61.4962 326.495 61.8893 329.098Z" fill="black"/>
<path d="M20.7619 244.184L17.3224 242.219C16.3397 241.679 15.2095 241.433 14.2759 241.63C7.4951 242.415 3.51505 248.554 2.82714 249.733C2.778 249.831 2.82714 249.979 2.92541 250.077L7.83905 253.024C9.80451 251.698 10.0993 250.765 10.0993 250.765C10.0993 250.765 13.4897 247.13 20.7619 244.184Z" fill="black"/>
<path d="M7.93742 255.528L1.1566 251.501L0.517822 249.684L1.00919 248.702C1.84451 247.327 6.31592 240.451 14.0303 239.567C15.2588 239.272 16.9294 239.567 18.3543 240.402L25.5283 244.527L21.4991 246.148C15.7501 248.456 12.6054 251.255 11.7701 252.041C11.377 252.68 10.5908 253.662 8.96929 254.792L7.93742 255.528ZM5.72628 249.291L7.69174 250.47C8.0357 250.126 8.13397 249.929 8.13397 249.929L8.28138 249.438L8.52706 249.291C8.67447 249.144 11.0822 246.541 16.1432 243.938C15.5536 243.643 15.0622 243.594 14.7674 243.692C10.3451 244.232 7.29865 247.327 5.72628 249.291Z" fill="black"/>
<path d="M106.8 367.601L93.7788 302.97C92.9435 298.894 90.4375 295.407 86.8014 293.344L8.47796 248.456C5.33323 246.639 1.54972 249.389 2.23763 252.925L14.1286 315.346C14.9148 319.423 17.3717 322.959 20.9586 325.021L100.511 372.071C103.655 373.937 107.488 371.187 106.8 367.601Z" fill="#91BFBF"/>
<path d="M102.672 374.772C101.542 374.772 100.461 374.477 99.4295 373.888L19.8776 326.789C15.7993 324.383 12.9493 320.307 12.0649 315.69L0.124724 253.269C-0.36664 250.813 0.616089 248.358 2.67982 246.934C4.74355 245.46 7.34778 245.362 9.50978 246.59L87.8333 291.478C91.9607 293.835 94.8598 297.863 95.7934 302.528L108.815 367.159C109.306 369.664 108.323 372.12 106.259 373.593C105.228 374.379 103.95 374.772 102.672 374.772ZM6.36505 249.978C5.77541 249.978 5.28405 250.273 5.13664 250.371C4.89096 250.568 4.05564 251.255 4.30132 252.483L16.1923 314.904C16.8311 318.342 18.9931 321.387 21.9904 323.155L101.542 370.204C102.623 370.843 103.557 370.303 103.852 370.106C104.097 369.91 104.933 369.222 104.687 367.994L91.6659 303.363C90.978 299.876 88.816 296.88 85.7204 295.112L7.39692 250.273C7.05296 250.077 6.70901 249.978 6.36505 249.978Z" fill="black"/>
<path d="M97.7097 424.08C95.4494 424.08 93.2383 423.491 91.1745 422.361C86.8505 419.955 84.2463 415.535 84.2463 410.624C84.2463 403.748 83.5092 396.872 81.986 390.193L69.0631 331.946C66.3606 319.668 58.4988 309.109 47.5414 302.97L43.8561 300.908C41.6941 299.68 39.1882 299.827 37.2227 301.301C35.2081 302.774 34.3237 305.082 34.8642 307.538L46.5095 362.887C47.9836 369.91 48.7206 377.08 48.7206 384.25V384.84C48.7206 386.804 50.0473 387.737 50.637 388.081C51.2266 388.376 52.7007 389.014 54.3713 387.983L59.5307 396.283C55.3049 398.886 50.1947 399.033 45.8707 396.578C41.5467 394.171 38.9425 389.751 38.9425 384.84V384.25C38.9425 377.768 38.2546 371.285 36.9279 364.9L25.2825 309.502C23.9559 303.314 26.3144 297.126 31.4246 293.394C36.5348 289.661 43.1191 289.268 48.6224 292.362L52.3076 294.425C65.6727 301.939 75.2543 314.855 78.5956 329.785L91.5185 388.032C93.1891 395.399 94.0244 403.011 94.0244 410.574C94.0244 412.539 95.3511 413.472 95.9408 413.816C96.5304 414.111 98.0045 414.749 99.6751 413.718L104.834 422.018C102.623 423.393 100.166 424.08 97.7097 424.08Z" fill="black"/>
<path d="M66.6554 189.718L94.8597 202.094C94.8597 202.094 107.733 202.487 105.375 214.569C105.375 214.569 87.0962 227.191 64.8865 210.64C41.9398 193.5 66.6554 189.718 66.6554 189.718Z" fill="white"/>
<path d="M88.423 221.199C81.3474 221.199 72.7485 219.136 63.6091 212.31C55.4524 206.22 52.0129 200.965 53.1922 196.25C54.8628 189.571 65.1323 187.803 66.3116 187.656L66.9012 187.557L95.3021 200.032C96.8745 200.179 102.279 200.867 105.424 204.845C107.537 207.497 108.176 210.886 107.39 215.011L107.242 215.846L106.554 216.337C106.456 216.386 99.233 221.199 88.423 221.199ZM66.3607 191.928C63.7565 192.469 58.0567 194.187 57.3196 197.282C56.9265 198.853 57.5653 202.487 66.1642 208.921C84.6395 222.672 99.9209 215.306 103.459 213.243C103.754 210.836 103.36 208.872 102.23 207.448C99.8227 204.403 94.8599 204.206 94.8107 204.206L94.0246 204.01L66.3607 191.928Z" fill="black"/>
<path d="M68.3259 172.775C68.3259 172.775 70.4388 189.522 66.6553 195.759C73.043 204.894 84.1478 207.742 94.3682 203.273C95.007 202.978 95.6949 202.684 96.3337 202.34C96.4811 202.242 96.5302 202.094 96.4319 201.996C95.2527 200.867 89.7985 194.679 93.926 181.517L81.0031 167.913L68.3259 172.775Z" fill="#D8B182"/>
<path d="M84.7867 207.497C77.0232 207.497 69.7018 203.813 64.9356 197.036L64.1494 195.906L64.8865 194.728C67.6872 190.111 66.8519 177.539 66.2623 173.069L66.0657 171.449L81.5928 165.457L96.3829 180.976L95.9898 182.155C92.2063 194.138 96.9726 199.541 97.9553 200.474L98.7415 201.211L98.6432 202.438C98.5449 203.175 98.0536 203.863 97.4148 204.206C96.7269 204.599 95.9898 204.943 95.3019 205.238C91.7641 206.76 88.2263 207.497 84.7867 207.497ZM69.1613 195.563C74.9594 202.979 84.2953 205.287 93.3365 201.456C91.3219 198.411 88.7668 192.125 91.5675 182.057L80.4627 170.368L70.6354 174.15C71.0776 178.472 71.8147 189.473 69.1613 195.563Z" fill="black"/>
<path d="M85.9662 184.267C85.9662 184.267 90.7815 191.535 107.046 186.575C107.046 186.575 119.281 164.818 110.289 144.683H90.9289L68.3262 154.259L75.6966 177.342L85.9662 184.267Z" fill="#D8B182"/>
<path d="M96.8252 190.455C89.0617 190.455 85.5238 187.066 84.5411 185.887L73.9276 178.766L65.771 153.13L90.5358 142.62H111.664L112.205 143.897C121.541 164.769 109.404 186.771 108.864 187.705L108.471 188.441L107.635 188.687C103.36 189.964 99.7734 190.455 96.8252 190.455ZM87.735 183.088C87.9807 183.432 92.1081 188.687 105.621 184.856C107.537 181.074 115.497 163.394 108.913 146.843H91.4202L70.9795 155.487L77.5146 176.016L87.735 183.088Z" fill="black"/>
<path d="M91.4202 219.775L87.3911 218.547C89.5531 211.573 84.492 207.055 84.4429 207.006L87.2436 203.813C87.4893 204.01 94.3684 210.149 91.4202 219.775Z" fill="black"/>
<path d="M58.3515 203.568L55.2068 200.719C55.4033 200.474 60.2187 195.268 67.1469 194.384L67.6874 198.559C62.2824 199.295 58.4007 203.519 58.3515 203.568Z" fill="black"/>
<path d="M357.691 360.676C357.691 360.676 354.546 353.162 342.262 351.64C341.328 351.394 340.247 351.542 339.068 352.229L306.884 370.597C303.641 372.463 300.987 377.522 300.987 381.893V385.527V392.501L300.447 456.936C300.447 458.114 300.791 458.998 301.331 459.539C301.331 459.539 305.508 465.236 315.237 467.937C320.15 469.312 331.894 417.253 341.82 401.587L341.328 402.078C343.294 400.948 344.915 397.854 344.915 395.202V377.424L354.153 365.391L357.691 360.676Z" fill="#91BFBF"/>
<path d="M315.581 469.999C315.286 469.999 314.991 469.95 314.647 469.852C305.065 467.2 300.447 461.748 299.66 460.766C299.022 460.078 298.285 458.802 298.285 456.788L298.825 381.745C298.825 376.637 301.872 370.891 305.803 368.632L337.987 350.264C339.903 349.135 341.525 349.184 342.606 349.429C355.922 351.148 359.509 359.399 359.656 359.743L360.147 360.872L347.077 377.963V395.005C347.077 398.099 345.456 401.39 343.245 403.158C338.626 410.868 333.565 426.633 329.044 440.532C321.624 463.418 319.119 469.999 315.581 469.999ZM341.377 353.604C341.033 353.604 340.591 353.751 340.1 353.997L307.915 372.365C305.311 373.887 303.1 378.209 303.1 381.794V392.402L302.56 456.837C302.56 457.525 302.756 457.868 302.805 457.918L303.051 458.163C303.1 458.212 306.785 463.074 315.188 465.579C317.35 463.025 321.575 449.961 325.015 439.304C328.602 428.156 332.582 415.878 336.464 407.185L329.585 411.163L340.296 399.966L340.395 400.015C341.574 399.278 342.851 397.019 342.851 395.005V376.49L355.185 360.381C353.956 358.613 350.615 354.979 343.048 353.751L342.901 353.899L341.672 353.555C341.574 353.604 341.476 353.604 341.377 353.604Z" fill="black"/>
<path d="M317.988 383.022C325.26 384.545 345.75 378.848 345.75 378.848L344.964 377.866V377.227L354.202 365.195L357.74 360.529C357.74 360.529 355.135 353.064 342.802 351.542L342.311 351.492C341.377 351.198 340.296 351.394 339.117 352.082L306.933 370.45C305.164 371.481 303.591 373.445 302.51 375.705C302.559 375.803 310.765 381.5 317.988 383.022Z" fill="white"/>
<path d="M321.035 385.38C319.708 385.38 318.529 385.282 317.546 385.085C309.783 383.465 301.184 377.473 300.889 377.129L299.906 376.098L300.545 374.772C301.872 371.973 303.739 369.762 305.803 368.584L337.987 350.216C339.952 349.086 341.574 349.135 342.655 349.381L342.999 349.43C356.462 351.1 359.558 359.449 359.656 359.793L360.049 360.873L347.421 377.522L349.534 380.027L346.34 380.911C344.473 381.402 329.781 385.38 321.035 385.38ZM305.262 375.017C307.866 376.687 313.468 379.929 318.431 380.96C323.344 381.991 336.071 379.192 342.852 377.473V376.54L355.234 360.382C354.104 358.565 350.812 354.783 342.508 353.703L341.672 353.556C341.279 353.457 340.739 353.556 340.1 353.948L307.915 372.316C306.982 372.807 306.048 373.741 305.262 375.017Z" fill="black"/>
<path d="M352.826 360.038L320.642 378.406C317.399 380.272 314.745 385.331 314.745 389.702V393.336V400.31L314.205 464.745C314.205 467.397 315.826 468.625 317.792 467.446L354.595 446.426C356.56 445.297 358.182 442.202 358.182 439.55L358.722 375.116V368.142V364.507C358.722 360.186 356.069 358.172 352.826 360.038Z" fill="black"/>
<path d="M316.416 469.951C315.728 469.951 315.04 469.754 314.451 469.411C312.976 468.576 312.141 466.857 312.141 464.647L312.682 389.604C312.682 384.496 315.728 378.75 319.659 376.491L351.843 358.123C353.956 356.895 356.069 356.797 357.838 357.828C359.803 358.958 360.934 361.364 360.934 364.409V375.017L360.393 439.452C360.393 442.89 358.379 446.623 355.725 448.145L318.922 469.165C318.087 469.705 317.202 469.951 316.416 469.951ZM355.185 361.463C354.693 361.463 354.153 361.757 353.907 361.905L321.723 380.272C319.118 381.795 316.907 386.117 316.907 389.702V400.31L316.367 464.745C316.367 465.285 316.465 465.629 316.563 465.776C316.613 465.727 316.711 465.727 316.809 465.629L353.612 444.609C354.792 443.921 356.167 441.613 356.167 439.551L356.708 364.508C356.708 362.74 356.167 361.855 355.725 361.561C355.479 361.512 355.332 361.463 355.185 361.463Z" fill="black"/>
<path d="M317.497 414.257C316.907 414.257 316.416 414.159 316.023 414.012C314.745 413.57 313.713 412.538 313.173 411.163L317.104 409.592C317.202 409.837 317.349 409.985 317.399 410.034C317.497 410.083 317.743 410.034 318.234 409.788L353.121 389.898C354.447 389.112 355.774 387.148 356.315 385.085L360.393 386.165C359.509 389.407 357.543 392.206 355.234 393.581L320.347 413.472C319.266 414.012 318.283 414.257 317.497 414.257Z" fill="#91BFBF"/>
<path d="M341.23 410.182L334.793 413.914C334.056 414.356 333.466 413.865 333.466 412.932V398.738C333.466 397.756 334.056 396.627 334.793 396.234L341.23 392.501C341.967 392.059 342.557 392.55 342.557 393.483V407.677C342.557 408.61 341.967 409.739 341.23 410.182Z" fill="black"/>
<path d="M334.253 416.173C333.761 416.173 333.27 416.075 332.877 415.78C331.894 415.24 331.354 414.16 331.354 412.883V398.689C331.354 396.97 332.336 395.104 333.712 394.318L340.149 390.586C341.132 390.046 342.262 389.996 343.146 390.537C344.129 391.077 344.67 392.157 344.67 393.434V407.628C344.67 409.347 343.687 411.213 342.311 411.999L335.874 415.731C335.334 416.026 334.793 416.173 334.253 416.173ZM340.444 395.399L335.874 398.051C335.825 398.1 335.628 398.493 335.628 398.738V411.016L340.198 408.364C340.296 408.266 340.493 407.873 340.493 407.628V395.399H340.444Z" fill="#91BFBF"/>
<path d="M352.59 363.826L319.551 382.75L321.652 386.414L354.691 367.49L352.59 363.826Z" fill="#91BFBF"/>
<path d="M352.181 437.84L319.142 456.764L321.243 460.428L354.282 441.504L352.181 437.84Z" fill="#91BFBF"/>
<path d="M391.644 147.04C391.644 146.991 391.644 135.793 391.644 134.124C391.644 133.927 391.546 133.829 391.349 133.78L344.915 137.954C344.866 137.954 344.866 137.954 344.817 137.905L340.542 112.318C340.444 112.269 340.247 112.269 340.149 112.318L297.4 136.825C297.302 136.874 297.204 136.874 297.106 136.874L288.949 134.615C288.703 134.566 288.458 134.713 288.458 135.008C288.458 137.07 288.458 147.285 288.507 147.531V147.58C288.654 148.955 289.391 150.281 290.718 151.067L333.761 176.016C337.447 178.128 341.967 178.177 345.603 176.016L389.286 150.969C390.76 150.134 391.497 148.661 391.546 147.187L391.644 147.04Z" fill="#91BFBF"/>
<path d="M339.805 179.65C337.397 179.65 334.94 179.012 332.778 177.784L289.686 152.786C287.819 151.705 286.639 149.839 286.443 147.678C286.394 147.384 286.394 147.335 286.394 138.003V134.86C286.394 134.074 286.738 133.338 287.376 132.847C288.015 132.355 288.801 132.208 289.587 132.405L297.056 134.467L339.166 110.304C339.952 109.862 340.935 109.862 341.672 110.304L342.507 110.795L346.635 135.499L391.595 131.471L391.988 131.57C393.069 131.864 393.806 132.847 393.806 133.976C393.806 135.695 393.806 146.893 393.806 146.942L393.757 147.236C393.658 149.348 392.43 151.411 390.465 152.589L346.782 177.637C344.62 179.012 342.213 179.65 339.805 179.65ZM290.619 137.168V138.052C290.619 141.687 290.619 146.843 290.668 147.335C290.718 147.727 290.914 148.611 291.848 149.152L334.891 174.1C337.889 175.869 341.623 175.869 344.62 174.1L388.303 149.053C389.334 148.464 389.482 147.433 389.531 147.04H391.644H389.531C389.531 146.794 389.531 139.722 389.531 136.039L344.719 140.066L343.736 139.673L342.9 139.182L338.97 115.412L297.744 139.035L296.565 138.838L290.619 137.168Z" fill="black"/>
<path d="M391.398 133.78L344.964 137.954C344.915 137.954 344.915 137.954 344.866 137.905L339.412 153.719V177.538C341.574 177.588 343.736 177.096 345.701 175.967L389.383 150.92C390.857 150.085 391.594 148.612 391.644 147.138V147.04C391.644 146.991 391.644 135.793 391.644 134.124C391.693 133.927 391.545 133.78 391.398 133.78Z" fill="black"/>
<path d="M339.805 179.65C339.657 179.65 339.51 179.65 339.363 179.65L337.299 179.601L337.446 153.032L343.687 134.86L345.406 135.744L391.595 131.619L391.988 131.717C393.069 132.012 393.806 132.994 393.806 134.124C393.806 135.843 393.806 147.04 393.806 147.089C393.707 149.496 392.479 151.558 390.464 152.737L346.782 177.784C344.669 179.012 342.262 179.65 339.805 179.65ZM341.574 154.063V175.279C342.655 175.083 343.736 174.69 344.669 174.15L388.352 149.103C389.383 148.513 389.531 147.482 389.58 147.089C389.58 146.844 389.58 139.771 389.58 136.088L346.438 139.968L341.574 154.063Z" fill="black"/>
<path d="M295.14 140.36C295.14 140.36 295.779 138.642 296.565 136.382L288.998 134.271C288.752 134.221 288.506 134.369 288.506 134.663C288.506 136.775 288.506 146.941 288.556 147.187V147.236C288.703 148.611 289.44 149.937 290.767 150.723L295.091 153.228V150.821V140.36H295.14Z" fill="black"/>
<path d="M297.204 156.961L289.686 152.59C287.819 151.509 286.639 149.643 286.443 147.482C286.394 147.187 286.394 147.138 286.394 137.807V134.664C286.394 133.878 286.738 133.141 287.376 132.65C288.015 132.159 288.801 132.012 289.587 132.208L299.316 134.909L298.53 137.07C297.941 138.691 297.449 140.066 297.204 140.705V156.961ZM290.619 136.972V137.856C290.619 141.49 290.619 146.647 290.668 147.138C290.718 147.531 290.914 148.415 291.848 148.955L293.027 149.643L293.174 139.673C293.174 139.673 293.42 138.986 293.813 137.856L290.619 136.972Z" fill="black"/>
<path d="M334.056 163.149L290.816 138.052C287.769 136.284 287.769 131.864 290.816 130.145L334.695 104.951C338.233 102.888 342.606 102.888 346.143 104.951L389.384 130.047C392.43 131.815 392.43 136.235 389.384 137.954L345.505 163.149C341.967 165.211 337.594 165.211 334.056 163.149Z" fill="white"/>
<path d="M339.805 166.832C337.446 166.832 335.088 166.242 332.975 165.015L289.735 139.919C287.622 138.691 286.394 136.53 286.394 134.123C286.394 131.717 287.671 129.556 289.735 128.328L333.614 103.134C337.79 100.727 342.999 100.727 347.224 103.134L390.465 128.23C392.577 129.458 393.806 131.619 393.806 134.025C393.806 136.432 392.528 138.593 390.465 139.82L346.586 165.015C344.473 166.193 342.163 166.832 339.805 166.832ZM340.395 105.54C338.773 105.54 337.152 105.933 335.727 106.768L291.848 131.962C290.767 132.601 290.619 133.681 290.619 134.074C290.619 134.516 290.718 135.548 291.848 136.186L335.088 161.282C337.987 162.952 341.525 162.952 344.424 161.282L388.303 136.088C389.384 135.449 389.531 134.369 389.531 133.976C389.531 133.534 389.433 132.503 388.303 131.864L345.062 106.768C343.638 105.982 342.016 105.54 340.395 105.54Z" fill="black"/>
<path d="M388.548 177.391L279.564 102.103C277.205 100.727 275.289 97.0932 275.289 93.95L264.921 10.8036C264.921 7.66041 277.205 0.981194 279.564 2.30722L396.459 69.7869C398.818 71.1621 400.734 74.7964 400.734 77.9395V166.341C400.734 169.484 390.907 178.717 388.548 177.391Z" fill="white"/>
<path d="M389.138 179.601C388.597 179.601 388.057 179.503 387.516 179.208L387.369 179.11L278.335 103.821C275.436 102.152 273.176 97.8789 273.176 93.9499L262.808 11.0491C262.808 7.95502 266.69 5.10653 269.982 3.19117C272.832 1.52136 278.04 -1.03245 280.596 0.440903L397.54 67.9698C400.538 69.6887 402.847 74.0596 402.847 77.9395V166.341C402.847 170.122 396.066 176.458 392.479 178.521C391.939 178.815 390.563 179.601 389.138 179.601ZM267.034 10.8526L277.353 93.6553C277.353 96.3073 278.876 99.254 280.546 100.236L389.285 175.328C391.644 174.739 398.277 168.305 398.523 166.292V77.9395C398.523 75.5821 397.049 72.6354 395.329 71.6531L278.483 4.17341C276.615 3.97696 268.017 8.78992 267.034 10.8526Z" fill="black"/>
<path d="M386.091 176.998L269.196 109.567C266.837 108.192 264.921 104.558 264.921 101.415V13.0133C264.921 9.87011 266.837 8.44586 269.196 9.77188L386.091 77.2516C388.45 78.6268 390.366 82.261 390.366 85.4042V173.806C390.366 176.949 388.45 178.373 386.091 176.998Z" fill="#91BFBF"/>
<path d="M387.811 179.65C386.927 179.65 385.944 179.405 385.06 178.864L268.115 111.385C265.068 109.617 262.808 105.344 262.808 101.415V13.0136C262.808 10.6071 263.742 8.6426 265.363 7.75859C266.788 6.92369 268.606 7.02191 270.277 8.00415L387.172 75.4839C390.17 77.2028 392.479 81.5738 392.479 85.4536V173.855C392.479 176.261 391.546 178.226 389.924 179.11C389.285 179.454 388.548 179.65 387.811 179.65ZM387.123 175.181C387.516 175.427 387.762 175.427 387.811 175.427C387.86 175.377 388.204 174.985 388.204 173.806V85.4045C388.204 83.0471 386.73 80.1004 385.01 79.1182L268.115 11.6384C267.722 11.3929 267.476 11.3929 267.427 11.3929C267.378 11.442 267.034 11.8349 267.034 13.0136V101.415C267.034 103.772 268.508 106.719 270.228 107.701L387.123 175.181Z" fill="black"/>
<path d="M377.788 161.626L277.5 103.772C276.272 103.085 275.289 101.169 275.289 99.5488V26.8632C275.289 25.2425 276.272 24.5058 277.5 25.1934L377.788 83.0472C379.016 83.7348 379.999 85.6501 379.999 87.2708V159.956C379.95 161.577 378.967 162.314 377.788 161.626Z" fill="black"/>
</svg>
