<svg width="433" height="407" viewBox="0 0 433 407" fill="none" xmlns="http://www.w3.org/2000/svg">
<path d="M393.923 302.969C393.923 302.794 393.923 302.618 393.923 302.443V257.884L343.982 258.936L268.457 216.131C248.305 204.377 223.422 204.377 203.095 216.131L160.688 241.568L76.5767 257.357V302.794C75.8758 312.092 79.9061 321.74 89.1934 327.003L202.043 391.387C222.195 403.14 247.078 403.14 267.405 391.387L381.482 324.723C389.718 319.986 393.923 311.565 394.274 303.32V302.969H393.923Z" fill="#91BFBF"/>
<path d="M76.5767 242.972C76.5767 243.147 76.5767 243.323 76.5767 243.498V288.058L126.518 287.005L202.043 329.81C222.195 341.564 247.078 341.564 267.405 329.81L309.811 304.373L393.923 288.584V243.147C394.624 233.85 390.594 224.201 381.306 218.938L268.456 154.379C248.305 142.625 223.422 142.625 203.095 154.379L89.0182 221.043C80.7822 225.78 76.5767 234.2 76.2262 242.446V242.972H76.5767Z" fill="#91BFBF"/>
<path d="M113.901 322.442C115.829 323.495 115.829 325.249 113.901 326.302C111.974 327.354 108.995 327.354 107.242 326.302C105.315 325.249 105.315 323.495 107.242 322.442C108.995 321.39 111.974 321.39 113.901 322.442Z" fill="#16110D"/>
<path d="M131.425 312.267C133.352 313.32 133.352 315.074 131.425 316.127C129.497 317.179 126.518 317.179 124.766 316.127C122.838 315.074 122.838 313.32 124.766 312.267C126.693 311.215 129.672 311.215 131.425 312.267Z" fill="#16110D"/>
<path d="M149.123 302.092C151.051 303.145 151.051 304.899 149.123 305.952C147.196 307.004 144.217 307.004 142.464 305.952C140.537 304.899 140.537 303.145 142.464 302.092C144.217 301.04 147.196 301.04 149.123 302.092Z" fill="#16110D"/>
<path d="M166.646 291.917C168.574 292.97 168.574 294.724 166.646 295.777C164.719 296.829 161.74 296.829 159.987 295.777C158.06 294.724 158.06 292.97 159.987 291.917C161.74 290.865 164.894 290.865 166.646 291.917Z" fill="#16110D"/>
<path d="M184.345 281.742C186.272 282.795 186.272 284.549 184.345 285.602C182.417 286.654 179.438 286.654 177.686 285.602C175.758 284.549 175.758 282.795 177.686 281.742C179.438 280.69 182.417 280.69 184.345 281.742Z" fill="#16110D"/>
<path d="M201.868 271.567C203.796 272.62 203.796 274.374 201.868 275.427C199.94 276.479 196.962 276.479 195.209 275.427C193.282 274.374 193.282 272.62 195.209 271.567C196.962 270.515 200.116 270.515 201.868 271.567Z" fill="#16110D"/>
<path d="M219.567 261.392C221.494 262.445 221.494 264.199 219.567 265.252C217.639 266.304 214.66 266.304 212.908 265.252C210.98 264.199 210.98 262.445 212.908 261.392C214.66 260.34 217.639 260.34 219.567 261.392Z" fill="#16110D"/>
<path d="M237.09 251.217C239.017 252.27 239.017 254.024 237.09 255.077C235.162 256.129 232.183 256.129 230.431 255.077C228.503 254.024 228.503 252.27 230.431 251.217C232.183 250.165 235.162 250.165 237.09 251.217Z" fill="#16110D"/>
<path d="M254.788 241.042C256.716 242.095 256.716 243.849 254.788 244.902C252.861 245.954 249.882 245.954 248.13 244.902C246.202 243.849 246.202 242.095 248.13 241.042C249.882 239.99 252.861 239.99 254.788 241.042Z" fill="#16110D"/>
<path d="M272.312 230.867C274.239 231.92 274.239 233.674 272.312 234.727C270.384 235.779 267.405 235.779 265.653 234.727C263.725 233.674 263.725 231.92 265.653 230.867C267.405 229.815 270.384 229.815 272.312 230.867Z" fill="#16110D"/>
<path d="M92.8734 317.004C95.4864 317.004 97.6047 315.747 97.6047 314.197C97.6047 312.647 95.4864 311.39 92.8734 311.39C90.2604 311.39 88.1421 312.647 88.1421 314.197C88.1421 315.747 90.2604 317.004 92.8734 317.004Z" fill="#16110D"/>
<path d="M113.901 302.092C115.829 303.145 115.829 304.899 113.901 305.952C111.974 307.004 108.995 307.004 107.242 305.952C105.315 304.899 105.315 303.145 107.242 302.092C108.995 301.04 111.974 301.04 113.901 302.092Z" fill="#16110D"/>
<path d="M131.425 291.917C133.352 292.97 133.352 294.724 131.425 295.777C129.497 296.829 126.518 296.829 124.766 295.777C122.838 294.724 122.838 292.97 124.766 291.917C126.693 290.865 129.672 290.865 131.425 291.917Z" fill="#16110D"/>
<path d="M149.123 281.742C151.051 282.795 151.051 284.549 149.123 285.602C147.196 286.654 144.217 286.654 142.464 285.602C140.537 284.549 140.537 282.795 142.464 281.742C144.217 280.69 147.196 280.69 149.123 281.742Z" fill="#16110D"/>
<path d="M166.646 271.567C168.574 272.62 168.574 274.374 166.646 275.427C164.719 276.479 161.74 276.479 159.987 275.427C158.06 274.374 158.06 272.62 159.987 271.567C161.74 270.515 164.894 270.515 166.646 271.567Z" fill="#16110D"/>
<path d="M184.345 261.392C186.272 262.445 186.272 264.199 184.345 265.252C182.417 266.304 179.438 266.304 177.686 265.252C175.758 264.199 175.758 262.445 177.686 261.392C179.438 260.34 182.417 260.34 184.345 261.392Z" fill="#16110D"/>
<path d="M201.868 251.217C203.796 252.27 203.796 254.024 201.868 255.077C199.94 256.129 196.962 256.129 195.209 255.077C193.282 254.024 193.282 252.27 195.209 251.217C196.962 250.165 200.116 250.165 201.868 251.217Z" fill="#16110D"/>
<path d="M219.567 241.042C221.494 242.095 221.494 243.849 219.567 244.902C217.639 245.954 214.66 245.954 212.908 244.902C211.155 243.849 210.98 242.095 212.908 241.042C214.835 239.99 217.639 239.99 219.567 241.042Z" fill="#16110D"/>
<path d="M237.09 230.867C239.017 231.92 239.017 233.674 237.09 234.727C235.162 235.779 232.183 235.779 230.431 234.727C228.503 233.674 228.503 231.92 230.431 230.867C232.183 229.815 235.162 229.815 237.09 230.867Z" fill="#16110D"/>
<path d="M254.788 220.692C256.716 221.745 256.716 223.499 254.788 224.552C252.861 225.604 249.882 225.604 248.13 224.552C246.202 223.499 246.202 221.745 248.13 220.692C249.882 219.64 252.861 219.64 254.788 220.692Z" fill="#16110D"/>
<path d="M96.2028 291.917C98.1303 292.97 98.1303 294.724 96.2028 295.777C94.2752 296.829 91.2963 296.829 89.5439 295.777C87.6164 294.724 87.6164 292.97 89.5439 291.917C91.4715 290.865 94.4505 290.865 96.2028 291.917Z" fill="#16110D"/>
<path d="M113.901 281.742C115.829 282.795 115.829 284.549 113.901 285.602C111.974 286.654 108.995 286.654 107.242 285.602C105.315 284.549 105.315 282.795 107.242 281.742C108.995 280.69 111.974 280.69 113.901 281.742Z" fill="#16110D"/>
<path d="M131.425 271.567C133.352 272.62 133.352 274.374 131.425 275.427C129.497 276.479 126.518 276.479 124.766 275.427C122.838 274.374 122.838 272.62 124.766 271.567C126.693 270.515 129.672 270.515 131.425 271.567Z" fill="#16110D"/>
<path d="M149.123 261.392C151.051 262.445 151.051 264.199 149.123 265.252C147.196 266.304 144.217 266.304 142.464 265.252C140.537 264.199 140.537 262.445 142.464 261.392C144.217 260.34 147.196 260.34 149.123 261.392Z" fill="#16110D"/>
<path d="M166.646 251.217C168.574 252.27 168.574 254.024 166.646 255.077C164.719 256.129 161.74 256.129 159.987 255.077C158.06 254.024 158.06 252.27 159.987 251.217C161.74 250.165 164.894 250.165 166.646 251.217Z" fill="#16110D"/>
<path d="M181.015 245.779C183.628 245.779 185.747 244.522 185.747 242.972C185.747 241.422 183.628 240.165 181.015 240.165C178.402 240.165 176.284 241.422 176.284 242.972C176.284 244.522 178.402 245.779 181.015 245.779Z" fill="#16110D"/>
<path d="M201.868 230.867C203.796 231.92 203.796 233.674 201.868 234.727C199.94 235.779 196.962 235.779 195.209 234.727C193.282 233.674 193.282 231.92 195.209 230.867C196.962 229.815 200.116 229.815 201.868 230.867Z" fill="#16110D"/>
<path d="M219.567 220.692C221.494 221.745 221.494 223.499 219.567 224.552C217.639 225.604 214.66 225.604 212.908 224.552C210.98 223.499 210.98 221.745 212.908 220.692C214.835 219.64 217.639 219.64 219.567 220.692Z" fill="#16110D"/>
<path d="M233.76 215.254C236.373 215.254 238.492 213.997 238.492 212.447C238.492 210.897 236.373 209.64 233.76 209.64C231.147 209.64 229.029 210.897 229.029 212.447C229.029 213.997 231.147 215.254 233.76 215.254Z" fill="#16110D"/>
<path d="M96.2028 271.567C98.1303 272.62 98.1303 274.374 96.2028 275.427C94.2752 276.479 91.2963 276.479 89.5439 275.427C87.6164 274.374 87.6164 272.62 89.5439 271.567C91.4715 270.515 94.4505 270.515 96.2028 271.567Z" fill="#16110D"/>
<path d="M113.901 261.392C115.829 262.445 115.829 264.199 113.901 265.252C111.974 266.304 108.995 266.304 107.242 265.252C105.315 264.199 105.315 262.445 107.242 261.392C108.995 260.34 111.974 260.34 113.901 261.392Z" fill="#16110D"/>
<path d="M131.425 251.217C133.352 252.27 133.352 254.024 131.425 255.077C129.497 256.129 126.518 256.129 124.766 255.077C122.838 254.024 122.838 252.27 124.766 251.217C126.693 250.165 129.672 250.165 131.425 251.217Z" fill="#16110D"/>
<path d="M149.123 241.042C151.051 242.095 151.051 243.849 149.123 244.902C147.196 245.954 144.217 245.954 142.464 244.902C140.537 243.849 140.537 242.095 142.464 241.042C144.217 239.99 147.196 239.99 149.123 241.042Z" fill="#16110D"/>
<path d="M166.646 230.867C168.574 231.92 168.574 233.674 166.646 234.727C164.719 235.779 161.74 235.779 159.987 234.727C158.06 233.674 158.06 231.92 159.987 230.867C161.74 229.815 164.894 229.815 166.646 230.867Z" fill="#16110D"/>
<path d="M184.345 220.692C186.272 221.745 186.272 223.499 184.345 224.552C182.417 225.604 179.438 225.604 177.686 224.552C175.758 223.499 175.758 221.745 177.686 220.692C179.438 219.64 182.417 219.64 184.345 220.692Z" fill="#16110D"/>
<path d="M201.868 210.517C203.796 211.57 203.796 213.324 201.868 214.377C199.94 215.429 196.962 215.429 195.209 214.377C193.282 213.324 193.282 211.57 195.209 210.517C196.962 209.465 200.116 209.465 201.868 210.517Z" fill="#16110D"/>
<path d="M219.567 200.342C221.494 201.395 221.494 203.149 219.567 204.202C217.639 205.254 214.66 205.254 212.908 204.202C210.98 203.149 210.98 201.395 212.908 200.342C214.66 199.29 217.639 199.29 219.567 200.342Z" fill="#16110D"/>
<path d="M96.2028 251.217C98.1303 252.27 98.1303 254.024 96.2028 255.077C94.2752 256.129 91.2963 256.129 89.5439 255.077C87.6164 254.024 87.6164 252.27 89.5439 251.217C91.4715 250.165 94.4505 250.165 96.2028 251.217Z" fill="#16110D"/>
<path d="M110.572 245.779C113.185 245.779 115.303 244.522 115.303 242.972C115.303 241.422 113.185 240.165 110.572 240.165C107.959 240.165 105.841 241.422 105.841 242.972C105.841 244.522 107.959 245.779 110.572 245.779Z" fill="#16110D"/>
<path d="M131.425 230.867C133.352 231.92 133.352 233.674 131.425 234.727C129.497 235.779 126.518 235.779 124.766 234.727C122.838 233.674 122.838 231.92 124.766 230.867C126.693 229.815 129.672 229.815 131.425 230.867Z" fill="#16110D"/>
<path d="M145.794 225.429C148.407 225.429 150.525 224.172 150.525 222.622C150.525 221.072 148.407 219.815 145.794 219.815C143.181 219.815 141.062 221.072 141.062 222.622C141.062 224.172 143.181 225.429 145.794 225.429Z" fill="#16110D"/>
<path d="M166.646 210.517C168.574 211.57 168.574 213.324 166.646 214.377C164.719 215.429 161.74 215.429 159.987 214.377C158.06 213.324 158.06 211.57 159.987 210.517C161.74 209.465 164.894 209.465 166.646 210.517Z" fill="#16110D"/>
<path d="M184.345 200.342C186.272 201.395 186.272 203.149 184.345 204.202C182.417 205.254 179.438 205.254 177.686 204.202C175.758 203.149 175.758 201.395 177.686 200.342C179.438 199.29 182.417 199.29 184.345 200.342Z" fill="#16110D"/>
<path d="M201.868 190.167C203.796 191.22 203.796 192.974 201.868 194.027C199.94 195.079 196.962 195.079 195.209 194.027C193.282 192.974 193.282 191.22 195.209 190.167C196.962 189.115 200.116 189.115 201.868 190.167Z" fill="#16110D"/>
<path d="M96.2028 230.692C98.1303 231.744 98.1303 233.499 96.2028 234.551C94.2752 235.604 91.2963 235.604 89.5439 234.551C87.6164 233.499 87.6164 231.744 89.5439 230.692C91.2963 229.639 94.2752 229.639 96.2028 230.692Z" fill="#16110D"/>
<path d="M113.726 220.517C115.654 221.569 115.654 223.324 113.726 224.376C111.799 225.429 108.82 225.429 107.067 224.376C105.14 223.324 105.14 221.569 107.067 220.517C108.82 219.464 111.799 219.464 113.726 220.517Z" fill="#16110D"/>
<path d="M124.59 210.342C126.518 209.289 129.497 209.289 131.249 210.342C133.177 211.395 133.177 213.149 131.249 214.201C129.322 215.254 126.343 215.254 124.59 214.201C122.663 213.149 122.663 211.395 124.59 210.342C126.518 209.289 122.663 211.395 124.59 210.342Z" fill="#16110D"/>
<path d="M148.948 200.167C150.875 201.219 150.875 202.974 148.948 204.026C147.02 205.079 144.041 205.079 142.289 204.026C140.361 202.974 147.02 199.114 148.948 200.167Z" fill="#16110D"/>
<path d="M166.471 189.992C168.399 191.044 168.399 192.799 166.471 193.851C164.544 194.904 161.565 194.904 159.812 193.851C157.885 192.799 164.719 188.939 166.471 189.992Z" fill="#16110D"/>
<path d="M237.966 392.088C239.894 393.141 239.894 394.895 237.966 395.948C236.039 397 233.06 397 231.307 395.948C229.38 394.895 229.38 393.141 231.307 392.088C233.06 391.036 236.039 391.036 237.966 392.088Z" fill="#16110D"/>
<path d="M255.489 381.913C257.417 382.966 257.417 384.72 255.489 385.773C253.562 386.825 250.583 386.825 248.83 385.773C246.903 384.72 246.903 382.966 248.83 381.913C250.758 380.861 253.737 380.861 255.489 381.913Z" fill="#16110D"/>
<path d="M273.188 371.738C275.115 372.791 275.115 374.545 273.188 375.598C271.26 376.651 268.281 376.651 266.529 375.598C264.601 374.545 264.601 372.791 266.529 371.738C268.281 370.686 271.26 370.686 273.188 371.738Z" fill="#16110D"/>
<path d="M290.711 361.563C292.639 362.616 292.639 364.37 290.711 365.423C288.784 366.475 285.805 366.475 284.052 365.423C282.125 364.37 282.125 362.616 284.052 361.563C285.98 360.511 288.959 360.511 290.711 361.563Z" fill="#16110D"/>
<path d="M308.41 351.388C310.337 352.441 310.337 354.195 308.41 355.248C306.482 356.3 303.503 356.3 301.751 355.248C299.823 354.195 299.823 352.441 301.751 351.388C303.503 350.336 306.482 350.336 308.41 351.388Z" fill="#16110D"/>
<path d="M325.933 341.213C327.86 342.266 327.86 344.02 325.933 345.073C324.005 346.126 321.026 346.126 319.274 345.073C317.346 344.02 317.346 342.266 319.274 341.213C321.026 340.161 324.181 340.161 325.933 341.213Z" fill="#16110D"/>
<path d="M343.631 331.038C345.559 332.091 345.559 333.845 343.631 334.898C341.704 335.95 338.725 335.95 336.973 334.898C335.045 333.845 335.045 332.091 336.973 331.038C338.725 329.986 341.704 329.986 343.631 331.038Z" fill="#16110D"/>
<path d="M361.155 320.863C363.082 321.916 363.082 323.67 361.155 324.723C359.227 325.776 356.248 325.776 354.496 324.723C352.568 323.67 352.568 321.916 354.496 320.863C356.248 319.811 359.227 319.811 361.155 320.863Z" fill="#16110D"/>
<path d="M220.267 381.913C222.195 382.966 222.195 384.72 220.267 385.773C218.34 386.825 215.361 386.825 213.609 385.773C211.681 384.72 211.681 382.966 213.609 381.913C215.536 380.861 218.515 380.861 220.267 381.913Z" fill="#16110D"/>
<path d="M234.637 376.475C237.25 376.475 239.368 375.218 239.368 373.668C239.368 372.118 237.25 370.861 234.637 370.861C232.024 370.861 229.905 372.118 229.905 373.668C229.905 375.218 232.024 376.475 234.637 376.475Z" fill="#16110D"/>
<path d="M255.489 361.563C257.417 362.616 257.417 364.37 255.489 365.423C253.562 366.475 250.583 366.475 248.83 365.423C246.903 364.37 246.903 362.616 248.83 361.563C250.758 360.511 253.737 360.511 255.489 361.563Z" fill="#16110D"/>
<path d="M273.188 351.388C275.115 352.441 275.115 354.195 273.188 355.248C271.26 356.3 268.281 356.3 266.529 355.248C264.601 354.195 264.601 352.441 266.529 351.388C268.281 350.336 271.26 350.336 273.188 351.388Z" fill="#16110D"/>
<path d="M290.711 341.213C292.639 342.266 292.639 344.02 290.711 345.073C288.784 346.126 285.805 346.126 284.052 345.073C282.125 344.02 282.125 342.266 284.052 341.213C285.805 340.161 288.959 340.161 290.711 341.213Z" fill="#16110D"/>
<path d="M308.41 331.038C310.337 332.091 310.337 333.845 308.41 334.898C306.482 335.95 303.503 335.95 301.751 334.898C299.823 333.845 299.823 332.091 301.751 331.038C303.503 329.986 306.482 329.986 308.41 331.038Z" fill="#16110D"/>
<path d="M322.603 325.6C325.216 325.6 327.335 324.343 327.335 322.793C327.335 321.243 325.216 319.986 322.603 319.986C319.99 319.986 317.872 321.243 317.872 322.793C317.872 324.343 319.99 325.6 322.603 325.6Z" fill="#16110D"/>
<path d="M343.631 310.688C345.559 311.741 345.559 313.495 343.631 314.548C341.704 315.6 338.725 315.6 336.973 314.548C335.045 313.495 335.045 311.741 336.973 310.688C338.725 309.636 341.704 309.636 343.631 310.688Z" fill="#16110D"/>
<path d="M378.678 310.688C380.605 311.741 380.605 313.495 378.678 314.548C376.75 315.6 373.771 315.6 372.019 314.548C370.091 313.495 370.091 311.741 372.019 310.688C373.947 309.636 376.926 309.636 378.678 310.688Z" fill="#16110D"/>
<path d="M202.744 371.738C204.672 372.791 204.672 374.545 202.744 375.598C200.817 376.651 197.838 376.651 196.085 375.598C194.158 374.545 194.158 372.791 196.085 371.738C197.838 370.686 200.817 370.686 202.744 371.738Z" fill="#16110D"/>
<path d="M220.267 361.563C222.195 362.616 222.195 364.37 220.267 365.423C218.34 366.475 215.361 366.475 213.609 365.423C211.681 364.37 211.681 362.616 213.609 361.563C215.536 360.511 218.515 360.511 220.267 361.563Z" fill="#16110D"/>
<path d="M237.966 351.388C239.894 352.441 239.894 354.195 237.966 355.248C236.039 356.3 233.06 356.3 231.307 355.248C229.38 354.195 229.38 352.441 231.307 351.388C233.06 350.336 236.039 350.336 237.966 351.388Z" fill="#16110D"/>
<path d="M255.489 341.213C257.417 342.266 257.417 344.02 255.489 345.073C253.562 346.126 250.583 346.126 248.83 345.073C246.903 344.02 246.903 342.266 248.83 341.213C250.758 340.161 253.737 340.161 255.489 341.213Z" fill="#16110D"/>
<path d="M273.188 331.038C275.115 332.091 275.115 333.845 273.188 334.898C271.26 335.95 268.281 335.95 266.529 334.898C264.601 333.845 264.601 332.091 266.529 331.038C268.281 329.986 271.26 329.986 273.188 331.038Z" fill="#16110D"/>
<path d="M290.711 320.863C292.639 321.916 292.639 323.67 290.711 324.723C288.784 325.776 285.805 325.776 284.052 324.723C282.125 323.67 282.125 321.916 284.052 320.863C285.805 319.811 288.959 319.811 290.711 320.863Z" fill="#16110D"/>
<path d="M308.41 310.688C310.337 311.741 310.337 313.495 308.41 314.548C306.482 315.6 303.503 315.6 301.751 314.548C299.823 313.495 299.823 311.741 301.751 310.688C303.503 309.636 306.482 309.636 308.41 310.688Z" fill="#16110D"/>
<path d="M325.933 300.513C327.86 301.566 327.86 303.32 325.933 304.373C324.005 305.425 321.026 305.425 319.274 304.373C317.346 303.32 317.346 301.566 319.274 300.513C321.026 299.461 324.181 299.461 325.933 300.513Z" fill="#16110D"/>
<path d="M343.631 290.338C345.559 291.391 345.559 293.145 343.631 294.198C341.704 295.25 338.725 295.25 336.973 294.198C335.045 293.145 335.045 291.391 336.973 290.338C338.725 289.286 341.704 289.286 343.631 290.338Z" fill="#16110D"/>
<path d="M361.155 300.513C363.082 301.566 363.082 303.32 361.155 304.373C359.227 305.425 356.248 305.425 354.496 304.373C352.568 303.32 352.568 301.566 354.496 300.513C356.248 299.461 359.227 299.461 361.155 300.513Z" fill="#16110D"/>
<path d="M185.046 361.388C186.973 362.441 186.973 364.195 185.046 365.247C183.118 366.3 180.139 366.3 178.387 365.247C176.459 364.195 176.459 362.441 178.387 361.388C180.139 360.335 183.118 360.335 185.046 361.388Z" fill="#16110D"/>
<path d="M202.569 351.213C204.497 352.265 204.497 354.02 202.569 355.072C200.641 356.125 197.662 356.125 195.91 355.072C193.983 354.02 193.983 352.265 195.91 351.213C197.662 350.16 200.641 350.16 202.569 351.213Z" fill="#16110D"/>
<path d="M220.267 341.038C222.195 342.091 222.195 343.845 220.267 344.897C218.34 345.95 215.361 345.95 213.609 344.897C211.681 343.845 211.681 342.091 213.609 341.038C215.361 339.985 218.34 339.985 220.267 341.038Z" fill="#16110D"/>
<path d="M237.791 330.863C239.718 331.916 239.718 333.67 237.791 334.722C235.863 335.775 232.884 335.775 231.132 334.722C229.204 333.67 229.204 331.916 231.132 330.863C232.884 329.81 235.863 329.81 237.791 330.863Z" fill="#16110D"/>
<path d="M255.314 320.688C257.242 321.74 257.242 323.495 255.314 324.547C253.386 325.6 250.407 325.6 248.655 324.547C246.728 323.495 246.728 321.74 248.655 320.688C250.583 319.635 253.562 319.635 255.314 320.688Z" fill="#16110D"/>
<path d="M273.013 310.513C274.94 311.566 274.94 313.32 273.013 314.372C271.085 315.425 268.106 315.425 266.354 314.372C264.426 313.32 264.426 311.566 266.354 310.513C268.106 309.46 271.085 309.46 273.013 310.513Z" fill="#16110D"/>
<path d="M290.536 300.338C292.463 301.39 292.463 303.145 290.536 304.197C288.608 305.25 285.629 305.25 283.877 304.197C281.95 303.145 281.95 301.39 283.877 300.338C285.805 299.285 288.784 299.285 290.536 300.338Z" fill="#16110D"/>
<path d="M308.234 290.163C310.162 291.216 310.162 292.97 308.234 294.023C306.307 295.075 303.328 295.075 301.576 294.023C299.648 292.97 299.648 291.216 301.576 290.163C303.328 289.11 306.307 289.11 308.234 290.163Z" fill="#16110D"/>
<path d="M325.758 279.988C327.685 281.041 327.685 282.795 325.758 283.847C323.83 284.9 320.851 284.9 319.099 283.847C317.171 282.795 317.171 281.041 319.099 279.988C320.851 278.935 324.005 278.935 325.758 279.988Z" fill="#16110D"/>
<path d="M378.678 290.338C380.605 291.391 380.605 293.145 378.678 294.198C376.75 295.25 373.771 295.25 372.019 294.198C370.091 293.145 370.091 291.391 372.019 290.338C373.947 289.286 376.926 289.286 378.678 290.338Z" fill="#16110D"/>
<path d="M167.347 351.213C169.275 352.265 169.275 354.02 167.347 355.072C165.42 356.125 162.441 356.125 160.688 355.072C158.761 354.02 158.761 352.265 160.688 351.213C162.441 350.16 165.595 350.16 167.347 351.213Z" fill="#16110D"/>
<path d="M181.541 345.95C184.154 345.95 186.272 344.693 186.272 343.143C186.272 341.593 184.154 340.336 181.541 340.336C178.928 340.336 176.81 341.593 176.81 343.143C176.81 344.693 178.928 345.95 181.541 345.95Z" fill="#16110D"/>
<path d="M199.24 335.775C201.853 335.775 203.971 334.518 203.971 332.968C203.971 331.418 201.853 330.161 199.24 330.161C196.627 330.161 194.508 331.418 194.508 332.968C194.508 334.518 196.627 335.775 199.24 335.775Z" fill="#16110D"/>
<path d="M220.267 320.688C222.195 321.74 222.195 323.495 220.267 324.547C218.34 325.6 215.361 325.6 213.609 324.547C211.681 323.495 211.681 321.74 213.609 320.688C215.361 319.635 218.34 319.635 220.267 320.688Z" fill="#16110D"/>
<path d="M237.791 310.513C239.718 311.566 239.718 313.32 237.791 314.372C235.863 315.425 232.884 315.425 231.132 314.372C229.204 313.32 229.204 311.566 231.132 310.513C232.884 309.46 235.863 309.46 237.791 310.513Z" fill="#16110D"/>
<path d="M255.314 300.338C257.242 301.39 257.242 303.145 255.314 304.197C253.386 305.25 250.407 305.25 248.655 304.197C246.728 303.145 246.728 301.39 248.655 300.338C250.583 299.285 253.562 299.285 255.314 300.338Z" fill="#16110D"/>
<path d="M273.013 290.163C274.94 291.216 274.94 292.97 273.013 294.023C271.085 295.075 268.106 295.075 266.354 294.023C264.426 292.97 264.426 291.216 266.354 290.163C268.106 289.11 271.085 289.11 273.013 290.163Z" fill="#16110D"/>
<path d="M290.536 279.988C292.463 281.041 292.463 282.795 290.536 283.847C288.608 284.9 285.629 284.9 283.877 283.847C281.95 282.795 281.95 281.041 283.877 279.988C285.805 278.935 288.784 278.935 290.536 279.988Z" fill="#16110D"/>
<path d="M308.234 269.813C310.162 270.865 310.162 272.62 308.234 273.672C306.307 274.725 303.328 274.725 301.576 273.672C299.823 272.62 299.648 270.865 301.576 269.813C303.328 268.76 306.307 268.76 308.234 269.813Z" fill="#16110D"/>
<path d="M361.155 280.163C363.082 281.216 363.082 282.97 361.155 284.023C359.227 285.075 356.248 285.075 354.496 284.023C352.568 282.97 352.568 281.216 354.496 280.163C356.248 279.111 359.227 279.111 361.155 280.163Z" fill="#16110D"/>
<path d="M149.824 341.038C151.752 342.091 151.752 343.845 149.824 344.897C147.896 345.95 144.917 345.95 143.165 344.897C141.238 343.845 141.238 342.091 143.165 341.038C144.917 339.985 147.896 339.985 149.824 341.038Z" fill="#16110D"/>
<path d="M167.347 330.863C169.275 331.916 169.275 333.67 167.347 334.722C165.42 335.775 162.441 335.775 160.688 334.722C158.761 333.67 158.761 331.916 160.688 330.863C162.441 329.81 165.595 329.81 167.347 330.863Z" fill="#16110D"/>
<path d="M185.046 320.688C186.973 321.74 186.973 323.495 185.046 324.547C183.118 325.6 180.139 325.6 178.387 324.547C176.635 323.495 176.459 321.74 178.387 320.688C180.139 319.635 183.118 319.635 185.046 320.688Z" fill="#16110D"/>
<path d="M202.569 310.513C204.497 311.566 204.497 313.32 202.569 314.372C200.641 315.425 197.662 315.425 195.91 314.372C193.983 313.32 193.983 311.566 195.91 310.513C197.662 309.46 200.817 309.46 202.569 310.513Z" fill="#16110D"/>
<path d="M220.267 300.338C222.195 301.39 222.195 303.145 220.267 304.197C218.34 305.25 215.361 305.25 213.609 304.197C211.681 303.145 211.681 301.39 213.609 300.338C215.361 299.285 218.34 299.285 220.267 300.338Z" fill="#16110D"/>
<path d="M237.791 290.163C239.718 291.216 239.718 292.97 237.791 294.023C235.863 295.075 232.884 295.075 231.132 294.023C229.204 292.97 229.204 291.216 231.132 290.163C232.884 289.11 235.863 289.11 237.791 290.163Z" fill="#16110D"/>
<path d="M343.456 269.813C345.384 270.865 345.384 272.62 343.456 273.672C341.529 274.725 338.55 274.725 336.797 273.672C334.87 272.62 334.87 270.865 336.797 269.813C338.55 268.76 341.529 268.76 343.456 269.813Z" fill="#16110D"/>
<path d="M322.428 264.55C325.041 264.55 327.16 263.293 327.16 261.743C327.16 260.193 325.041 258.936 322.428 258.936C319.815 258.936 317.697 260.193 317.697 261.743C317.697 263.293 319.815 264.55 322.428 264.55Z" fill="#16110D"/>
<path d="M255.314 279.988C257.242 281.041 257.242 282.795 255.314 283.847C253.386 284.9 250.407 284.9 248.655 283.847C246.728 282.795 246.728 281.041 248.655 279.988C250.583 278.935 253.562 278.935 255.314 279.988Z" fill="#16110D"/>
<path d="M273.013 269.813C274.94 270.865 274.94 272.62 273.013 273.672C271.085 274.725 268.106 274.725 266.354 273.672C264.426 272.62 264.426 270.865 266.354 269.813C268.106 268.76 271.085 268.76 273.013 269.813Z" fill="#16110D"/>
<path d="M128.796 335.775C131.409 335.775 133.527 334.518 133.527 332.968C133.527 331.418 131.409 330.161 128.796 330.161C126.183 330.161 124.065 331.418 124.065 332.968C124.065 334.518 126.183 335.775 128.796 335.775Z" fill="#16110D"/>
<path d="M149.824 320.688C151.752 321.74 151.752 323.495 149.824 324.547C147.896 325.6 144.917 325.6 143.165 324.547C141.238 323.495 141.238 321.74 143.165 320.688C144.917 319.635 147.896 319.635 149.824 320.688Z" fill="#16110D"/>
<path d="M167.347 310.513C169.275 311.566 169.275 313.32 167.347 314.372C165.42 315.425 162.441 315.425 160.688 314.372C158.761 313.32 158.761 311.566 160.688 310.513C162.441 309.46 165.595 309.46 167.347 310.513Z" fill="#16110D"/>
<path d="M185.046 300.338C186.973 301.39 186.973 303.145 185.046 304.197C183.118 305.25 180.139 305.25 178.387 304.197C176.459 303.145 176.459 301.39 178.387 300.338C180.139 299.285 183.118 299.285 185.046 300.338Z" fill="#16110D"/>
<path d="M287.206 264.55C289.819 264.55 291.938 263.293 291.938 261.743C291.938 260.193 289.819 258.936 287.206 258.936C284.593 258.936 282.475 260.193 282.475 261.743C282.475 263.293 284.593 264.55 287.206 264.55Z" fill="#16110D"/>
<path d="M304.905 254.375C307.518 254.375 309.636 253.118 309.636 251.568C309.636 250.018 307.518 248.761 304.905 248.761C302.292 248.761 300.174 250.018 300.174 251.568C300.174 253.118 302.292 254.375 304.905 254.375Z" fill="#16110D"/>
<path d="M202.569 290.163C204.497 291.216 204.497 292.97 202.569 294.023C200.641 295.075 197.662 295.075 195.91 294.023C193.983 292.97 193.983 291.216 195.91 290.163C197.662 289.11 200.817 289.11 202.569 290.163Z" fill="#16110D"/>
<path d="M216.763 284.9C219.376 284.9 221.494 283.643 221.494 282.093C221.494 280.543 219.376 279.286 216.763 279.286C214.15 279.286 212.032 280.543 212.032 282.093C212.032 283.643 214.15 284.9 216.763 284.9Z" fill="#16110D"/>
<path d="M237.791 269.813C239.718 270.865 239.718 272.62 237.791 273.672C235.863 274.725 232.884 274.725 231.132 273.672C229.204 272.62 229.204 270.865 231.132 269.813C232.884 268.76 235.863 268.76 237.791 269.813Z" fill="#16110D"/>
<path d="M255.314 259.638C257.242 260.691 257.242 262.445 255.314 263.497C253.386 264.55 250.407 264.55 248.655 263.497C246.728 262.445 246.728 260.691 248.655 259.638C250.583 258.585 253.562 258.585 255.314 259.638Z" fill="#16110D"/>
<path d="M273.013 249.463C274.94 250.515 274.94 252.27 273.013 253.322C271.085 254.375 268.106 254.375 266.354 253.322C264.426 252.27 264.426 250.515 266.354 249.463C268.106 248.41 271.085 248.41 273.013 249.463Z" fill="#16110D"/>
<path d="M290.536 239.288C292.463 240.341 292.463 242.095 290.536 243.147C288.608 244.2 285.629 244.2 283.877 243.147C281.95 242.095 281.95 240.341 283.877 239.288C285.805 238.235 288.784 238.235 290.536 239.288Z" fill="#16110D"/>
<path d="M290.01 220.868C291.938 221.92 291.938 223.675 290.01 224.727C288.083 225.78 285.104 225.78 283.351 224.727C281.424 223.675 281.424 221.92 283.351 220.868C285.104 219.64 288.083 219.64 290.01 220.868Z" fill="#16110D"/>
<path d="M307.533 210.693C309.461 211.745 309.461 213.5 307.533 214.552C305.606 215.605 302.627 215.605 300.875 214.552C298.947 213.5 298.947 211.745 300.875 210.693C302.627 209.465 305.781 209.465 307.533 210.693Z" fill="#16110D"/>
<path d="M325.232 200.518C327.16 201.57 327.16 203.325 325.232 204.377C323.304 205.43 320.325 205.43 318.573 204.377C316.646 203.325 316.646 201.57 318.573 200.518C320.325 199.29 323.304 199.29 325.232 200.518Z" fill="#16110D"/>
<path d="M265.653 210.693C267.58 209.64 270.559 209.64 272.312 210.693C274.239 211.745 274.239 213.5 272.312 214.552C270.384 215.605 267.405 215.605 265.653 214.552C263.725 213.5 263.725 211.745 265.653 210.693Z" fill="#16110D"/>
<path d="M290.01 200.518C291.938 201.57 291.938 203.325 290.01 204.377C288.083 205.43 285.104 205.43 283.351 204.377C281.424 203.325 281.424 201.57 283.351 200.518C285.104 199.29 288.083 199.29 290.01 200.518Z" fill="#16110D"/>
<path d="M307.533 190.343C309.461 191.395 309.461 193.15 307.533 194.202C305.606 195.255 302.627 195.255 300.875 194.202C298.947 193.15 298.947 191.395 300.875 190.343C302.627 189.115 305.781 189.115 307.533 190.343Z" fill="#16110D"/>
<path d="M247.954 200.518C249.882 199.465 252.861 199.465 254.613 200.518C256.541 201.57 256.541 203.325 254.613 204.377C252.686 205.43 249.707 205.43 247.954 204.377C246.202 203.325 246.202 201.57 247.954 200.518Z" fill="#16110D"/>
<path d="M272.312 190.343C274.239 191.395 274.239 193.15 272.312 194.202C270.384 195.255 267.405 195.255 265.653 194.202C263.725 193.15 263.725 191.395 265.653 190.343C267.405 189.115 270.559 189.115 272.312 190.343Z" fill="#16110D"/>
<path d="M290.01 180.168C291.938 181.22 291.938 182.975 290.01 184.027C288.083 185.08 285.104 185.08 283.351 184.027C281.424 182.975 281.424 181.22 283.351 180.168C285.104 178.94 288.083 178.94 290.01 180.168Z" fill="#16110D"/>
<path d="M307.533 169.993C309.461 171.045 309.461 172.8 307.533 173.852C305.606 174.905 302.627 174.905 300.875 173.852C298.947 172.8 298.947 171.045 300.875 169.993C302.627 168.765 305.781 168.765 307.533 169.993Z" fill="#16110D"/>
<path d="M230.431 190.343C232.359 189.29 235.338 189.29 237.09 190.343C239.017 191.395 239.017 193.15 237.09 194.202C235.162 195.255 232.183 195.255 230.431 194.202C228.503 193.15 228.503 191.395 230.431 190.343Z" fill="#16110D"/>
<path d="M254.788 180.168C256.716 181.22 256.716 182.975 254.788 184.027C252.861 185.08 249.882 185.08 248.13 184.027C246.202 182.975 246.202 181.22 248.13 180.168C249.882 178.94 252.861 178.94 254.788 180.168Z" fill="#16110D"/>
<path d="M272.312 169.993C274.239 171.045 274.239 172.8 272.312 173.852C270.384 174.905 267.405 174.905 265.653 173.852C263.725 172.8 263.725 171.045 265.653 169.993C267.405 168.765 270.559 168.765 272.312 169.993Z" fill="#16110D"/>
<path d="M290.01 159.818C291.938 160.87 291.938 162.625 290.01 163.677C288.083 164.73 285.104 164.73 283.351 163.677C281.424 162.625 281.424 160.87 283.351 159.818C285.104 158.59 288.083 158.59 290.01 159.818Z" fill="#16110D"/>
<path d="M212.733 180.168C214.66 179.115 217.639 179.115 219.391 180.168C221.319 181.22 221.319 182.975 219.391 184.027C217.464 185.08 214.485 185.08 212.733 184.027C210.98 182.975 210.98 181.22 212.733 180.168Z" fill="#16110D"/>
<path d="M237.09 169.993C239.017 171.045 239.017 172.8 237.09 173.852C235.162 174.905 232.183 174.905 230.431 173.852C228.503 172.8 228.503 171.045 230.431 169.993C232.359 168.765 235.338 168.765 237.09 169.993Z" fill="#16110D"/>
<path d="M254.788 159.818C256.716 160.87 256.716 162.625 254.788 163.677C252.861 164.73 249.882 164.73 248.13 163.677C246.202 162.625 246.202 160.87 248.13 159.818C249.882 158.59 252.861 158.59 254.788 159.818Z" fill="#16110D"/>
<path d="M272.312 149.643C274.239 150.695 274.239 152.45 272.312 153.502C270.384 154.555 267.405 154.555 265.653 153.502C263.725 152.45 263.725 150.695 265.653 149.643C267.405 148.415 270.559 148.415 272.312 149.643Z" fill="#16110D"/>
<path d="M372.019 270.164C373.947 269.111 376.926 269.111 378.678 270.164C380.606 271.216 380.606 272.971 378.678 274.023C376.75 275.076 373.771 275.076 372.019 274.023C370.267 272.971 370.267 271.216 372.019 270.164Z" fill="#16110D"/>
<path d="M354.321 259.813C356.248 258.761 359.227 258.761 360.979 259.813C362.907 260.866 362.907 262.62 360.979 263.673C359.052 264.725 356.073 264.725 354.321 263.673C352.393 262.62 352.393 260.866 354.321 259.813Z" fill="#16110D"/>
<path d="M378.678 249.638C380.605 250.691 380.605 252.445 378.678 253.498C376.75 254.55 373.771 254.55 372.019 253.498C370.091 252.445 370.091 250.691 372.019 249.638C373.771 248.586 376.75 248.586 378.678 249.638Z" fill="#16110D"/>
<path d="M336.622 249.638C338.55 248.586 341.529 248.586 343.281 249.638C345.208 250.691 345.208 252.445 343.281 253.498C341.353 254.55 338.374 254.55 336.622 253.498C334.87 252.445 334.87 250.691 336.622 249.638Z" fill="#16110D"/>
<path d="M360.979 239.463C362.907 240.516 362.907 242.27 360.979 243.323C359.052 244.375 356.073 244.375 354.321 243.323C352.393 242.27 352.393 240.516 354.321 239.463C356.248 238.411 359.227 238.411 360.979 239.463Z" fill="#16110D"/>
<path d="M378.678 229.288C380.605 230.341 380.605 232.095 378.678 233.148C376.75 234.2 373.771 234.2 372.019 233.148C370.091 232.095 370.091 230.341 372.019 229.288C373.771 228.236 376.75 228.236 378.678 229.288Z" fill="#16110D"/>
<path d="M319.099 239.463C321.026 238.411 324.005 238.411 325.758 239.463C327.685 240.516 327.685 242.27 325.758 243.323C323.83 244.375 320.851 244.375 319.099 243.323C317.171 242.27 317.171 240.516 319.099 239.463Z" fill="#16110D"/>
<path d="M343.456 229.288C345.384 230.341 345.384 232.095 343.456 233.148C341.529 234.2 338.55 234.2 336.797 233.148C334.87 232.095 334.87 230.341 336.797 229.288C338.55 228.236 341.529 228.236 343.456 229.288Z" fill="#16110D"/>
<path d="M360.979 219.113C362.907 220.166 362.907 221.92 360.979 222.973C359.052 224.025 356.073 224.025 354.321 222.973C352.393 221.92 352.393 220.166 354.321 219.113C356.248 218.061 359.227 218.061 360.979 219.113Z" fill="#16110D"/>
<path d="M301.576 229.288C303.503 228.236 306.482 228.236 308.234 229.288C310.162 230.341 310.162 232.095 308.234 233.148C306.307 234.2 303.328 234.2 301.576 233.148C299.648 232.095 299.648 230.341 301.576 229.288Z" fill="#16110D"/>
<path d="M325.933 219.113C327.86 220.166 327.86 221.92 325.933 222.973C324.005 224.025 321.026 224.025 319.274 222.973C317.346 221.92 317.346 220.166 319.274 219.113C321.026 218.061 324.005 218.061 325.933 219.113Z" fill="#16110D"/>
<path d="M343.456 208.938C345.384 209.991 345.384 211.745 343.456 212.798C341.529 213.85 338.55 213.85 336.797 212.798C334.87 211.745 334.87 209.991 336.797 208.938C338.55 207.886 341.529 207.886 343.456 208.938Z" fill="#16110D"/>
<path d="M362.206 276.128C362.206 275.953 362.206 275.953 362.206 275.778V242.972L325.232 243.849L269.508 212.272C254.613 203.675 236.214 203.675 221.319 212.272L189.952 231.043L127.92 242.446V275.953C127.394 282.795 130.373 289.988 137.207 293.847L220.443 341.389C235.337 349.985 253.737 349.985 268.632 341.389L352.743 292.093C358.877 288.584 362.031 282.444 362.206 276.304V276.128Z" fill="#91BFBF"/>
<path d="M244.45 349.985C235.688 349.985 227.101 347.704 219.216 343.319L135.98 295.777C128.796 291.742 124.941 284.023 125.642 275.778V240.516L189.076 228.587L220.092 209.991C235.688 201.044 254.963 201.044 270.384 209.991L325.582 241.393L364.133 240.516V278.058H363.958C363.257 284.725 359.402 290.514 353.619 293.847L269.508 342.968C261.973 347.88 253.211 349.985 244.45 349.985ZM130.023 244.2V275.953C129.497 282.619 132.651 288.76 138.259 291.917L221.494 339.459C235.688 347.704 253.386 347.704 267.58 339.459L351.692 290.338C356.774 287.356 359.928 282.093 359.928 276.304V275.602V245.077L324.706 245.954L268.456 214.026C254.263 205.781 236.564 205.781 222.37 214.026L190.653 232.972L130.023 244.2Z" fill="black"/>
<path d="M137.207 260.515L220.443 308.057C235.338 316.653 253.737 316.653 268.632 308.057L352.743 258.761C365.36 251.568 365.36 233.323 352.743 226.131L269.508 178.589C254.613 169.993 236.214 169.993 221.319 178.589L137.207 227.885C124.59 235.078 124.59 253.147 137.207 260.515Z" fill="white"/>
<path d="M244.45 316.478C235.688 316.478 227.102 314.197 219.216 309.811L135.981 262.269C129.497 258.41 125.467 251.744 125.467 244.025C125.467 236.481 129.322 229.639 135.981 225.78L220.092 176.659C235.688 167.712 254.964 167.712 270.384 176.659L353.62 224.201C360.278 228.06 364.134 234.727 364.134 242.446C364.134 249.989 360.278 256.831 353.62 260.691L269.508 309.811C261.973 314.372 253.211 316.478 244.45 316.478ZM138.259 258.585L221.494 306.127C235.688 314.372 253.386 314.372 267.58 306.127L351.692 257.006C356.949 254.024 360.103 248.586 360.103 242.621C360.103 236.657 356.949 231.218 351.692 228.236L268.456 180.694C254.263 172.449 236.564 172.449 222.37 180.694L138.259 229.815C133.002 232.797 129.847 238.235 129.847 244.2C129.847 250.165 133.002 255.603 138.259 258.585Z" fill="black"/>
<path d="M148.773 265.427H144.392V300.163H148.773V265.427Z" fill="black"/>
<path d="M245.852 313.495H241.471V348.231H245.852V313.495Z" fill="black"/>
<path d="M267.055 308.759H262.674V343.494H267.055V308.759Z" fill="black"/>
<path d="M347.486 261.919H343.106V296.654H347.486V261.919Z" fill="black"/>
<path d="M272.662 305.601V339.108L338.374 300.689V267.182L272.662 305.601Z" fill="black"/>
<path d="M253.387 246.831C253.387 246.831 250.232 245.253 248.305 251.568C246.377 257.884 244.625 260.866 245.326 263.848C246.027 266.831 256.716 267.006 256.716 267.006C256.716 267.006 272.837 275.427 285.104 275.427C297.37 275.427 290.185 267.532 289.835 267.181C289.484 266.831 273.714 260.515 272.136 254.901C270.384 249.287 270.209 249.814 270.209 249.814L253.387 246.831Z" fill="white"/>
<path d="M285.279 277.181C273.713 277.181 258.994 269.988 256.541 268.76C251.985 268.585 244.8 267.883 243.924 264.375C243.223 261.919 244.099 259.638 245.326 256.129C245.851 254.726 246.377 253.147 246.903 251.217C247.779 248.235 249.181 246.13 250.933 245.428C252.16 244.902 253.211 245.077 253.912 245.253L270.209 248.059C271.435 248.059 271.961 248.761 273.713 254.2C274.59 256.831 279.671 260.34 289.134 264.725C290.536 265.427 290.886 265.603 291.062 265.778C291.062 265.778 295.092 269.988 293.69 273.497C292.814 276.128 290.01 277.181 285.279 277.181ZM252.51 248.41C252.335 248.41 252.16 248.41 251.985 248.586C251.634 248.761 250.583 249.463 249.882 252.27C249.356 254.2 248.83 255.778 248.305 257.182C247.253 260.164 246.728 261.919 247.078 263.497C247.604 264.375 252.335 265.252 257.066 265.427H257.417L257.767 265.603C257.943 265.603 273.713 273.848 285.279 273.848C288.784 273.848 290.361 273.146 290.711 272.444C291.062 271.567 289.835 269.462 288.959 268.585C288.783 268.41 288.258 268.234 287.732 268.059C280.548 264.725 272.136 260.164 270.559 255.428C269.858 253.147 269.508 251.919 269.157 251.393L252.686 248.41C252.686 248.41 252.686 248.41 252.51 248.41Z" fill="black"/>
<path d="M264.426 264.725C259.87 261.041 254.613 258.41 248.83 257.006L246.903 256.48C245.851 259.813 244.975 261.918 245.501 263.848C246.202 266.831 256.891 267.006 256.891 267.006C256.891 267.006 273.013 275.427 285.279 275.427C292.989 275.427 292.989 272.269 291.762 269.988C277.393 276.655 264.426 264.725 264.426 264.725Z" fill="black"/>
<path d="M283.001 227.359C283.001 227.359 295.618 233.674 303.328 240.691C311.213 247.533 317.522 232.622 304.73 221.043C292.113 209.465 283.877 208.061 283.877 208.061L278.97 214.552L283.001 227.359Z" fill="white"/>
<path d="M307.358 244.025C305.781 244.025 304.204 243.498 302.452 241.919C294.917 235.253 282.475 228.937 282.475 228.937L281.774 228.587L277.393 214.377L283.351 206.307L284.403 206.482C284.753 206.482 293.339 207.886 306.131 219.815C315.244 228.236 315.244 238.235 311.564 242.27C310.512 243.147 309.11 244.025 307.358 244.025ZM284.403 226.306C287.031 227.709 297.545 233.323 304.554 239.463C305.781 240.516 307.709 241.569 309.11 239.99C311.388 237.534 311.564 229.288 303.853 222.271C294.216 213.324 287.206 210.693 284.753 209.991L281.073 215.078L284.403 226.306Z" fill="black"/>
<path d="M290.01 219.289C290.01 219.289 306.307 225.604 311.213 234.551C310.162 231.394 308.41 224.201 305.08 221.043C292.463 209.465 285.804 208.588 285.804 208.588L281.248 215.605L290.01 219.289Z" fill="black"/>
<path d="M255.489 240.691L253.211 245.779C252.51 247.358 253.211 249.287 254.964 249.989C257.767 251.042 262.148 252.094 267.055 251.919C268.281 251.919 269.333 251.042 269.858 249.989L272.487 243.674L255.489 240.691Z" fill="black"/>
<path d="M265.653 253.498C261.097 253.498 257.066 252.445 254.263 251.393C253.036 250.866 251.985 249.989 251.459 248.761C250.933 247.533 250.933 246.13 251.459 244.902L254.263 238.586L274.59 242.095L271.26 250.34C270.559 252.094 268.982 253.147 267.055 253.322C266.704 253.498 266.179 253.498 265.653 253.498ZM256.366 242.446L254.613 246.305C254.438 246.656 254.438 247.182 254.613 247.533C254.788 247.884 255.139 248.235 255.489 248.235C258.293 249.287 262.499 250.34 267.055 249.989C267.58 249.989 268.106 249.638 268.457 249.112L270.209 244.726L256.366 242.446Z" fill="black"/>
<path d="M264.076 211.394C256.541 212.622 245.501 214.026 237.616 214.201C224.999 214.377 219.742 209.815 207.125 213.85C206.775 214.026 206.424 214.026 206.074 214.201C192.756 218.762 222.721 200.693 230.606 194.553C237.09 189.465 271.786 180.168 282.3 176.659C282.826 176.484 283.351 177.185 282.826 177.712C278.445 181.22 270.559 188.764 267.405 200.167C264.076 212.622 257.592 229.815 254.613 237.007C253.737 239.112 254.788 241.218 256.891 242.095C260.396 243.323 265.828 244.726 271.611 244.025C272.837 243.849 273.889 243.147 274.59 242.095C278.97 234.2 299.122 198.939 310.863 184.553C324.005 168.238 315.419 154.379 304.905 149.467C297.019 145.783 262.674 149.643 241.996 150.695C234.812 151.046 229.38 151.046 227.277 150.344C218.69 147.537 177.861 158.765 177.861 158.765L163.667 165.782V184.203L159.812 214.903C158.936 221.043 159.812 227.359 161.915 233.148C164.018 239.112 169.275 243.323 175.408 244.375C176.985 244.726 178.737 244.726 180.314 244.551C189.076 243.674 218.866 240.691 232.359 237.183C240.069 235.253 249.356 232.972 256.891 231.393L264.076 211.394Z" fill="black"/>
<path d="M178.562 245.954C177.336 245.954 176.284 245.779 175.058 245.603C168.399 244.375 162.791 239.639 160.338 233.323C158.06 227.359 157.359 220.692 158.235 214.201L162.09 183.501V164.379L177.511 156.66C181.716 155.432 219.216 145.432 227.978 148.239C230.431 149.116 239.193 148.59 242.172 148.59C247.253 148.415 253.036 147.888 259.344 147.537C279.146 146.134 299.648 144.555 305.956 147.537C312.615 150.695 317.522 156.484 319.099 163.151C320.15 168.063 319.975 175.957 312.615 185.255C300.875 199.64 280.548 235.604 276.517 242.621C275.641 244.2 274.239 245.077 272.312 245.428C266.354 246.13 260.571 244.726 256.891 243.498C255.489 242.972 254.263 241.919 253.737 240.516C253.036 239.112 253.036 237.709 253.562 236.306C253.912 235.428 254.263 234.551 254.788 233.323C246.202 235.253 238.842 237.007 233.06 238.411C219.391 241.919 189.602 245.077 180.665 245.779C179.789 245.954 179.088 245.954 178.562 245.954ZM165.42 166.659V184.027L161.389 214.903C160.688 220.692 161.389 226.832 163.317 232.446C165.244 237.709 169.976 241.744 175.583 242.621C176.985 242.972 178.562 242.972 179.964 242.797C188.726 241.919 218.34 238.937 231.833 235.428C238.141 233.85 246.202 231.92 255.84 229.815C257.592 225.253 259.695 219.464 261.622 213.675C254.087 214.728 244.625 215.956 237.616 216.131C232.709 216.306 228.854 215.605 225.349 215.078C219.742 214.201 215.011 213.324 207.476 215.78H206.775C204.672 216.482 202.219 217.359 201.342 215.605C200.291 213.675 201.342 212.447 217.639 201.57C222.546 198.237 227.102 195.255 229.555 193.325C234.637 189.29 255.489 183.15 270.559 178.589C275.291 177.185 279.321 175.957 281.949 175.08C283.001 174.729 284.052 175.256 284.578 176.133C285.104 177.01 284.928 178.238 284.052 178.94C279.847 182.273 272.136 189.641 269.157 200.518C265.828 212.973 259.169 230.692 256.365 237.534C256.19 238.06 256.19 238.762 256.365 239.288C256.541 239.814 257.066 240.165 257.592 240.516C261.097 241.744 266.179 242.972 271.435 242.27C272.136 242.095 272.837 241.744 273.188 241.218C277.218 234.2 297.72 198.062 309.636 183.501C314.893 177.01 316.996 170.343 315.594 164.379C314.368 158.765 310.162 153.678 304.379 151.046C298.947 148.415 277.043 149.993 259.52 151.397C253.387 151.923 247.429 152.274 242.347 152.45C233.76 152.8 229.204 152.8 226.926 151.923C220.443 149.643 189.952 157.186 178.562 160.344L165.42 166.659ZM217.113 210.517C220.268 210.517 223.071 211.044 225.875 211.394C229.38 211.921 232.884 212.622 237.616 212.447C244.975 212.272 255.139 211.044 262.849 209.815C264.076 206.131 265.127 202.623 266.003 199.465C268.457 190.518 273.714 183.852 278.094 179.641C276.167 180.168 274.064 180.869 271.611 181.571C257.592 185.781 236.389 192.097 231.658 195.781C229.204 197.711 224.473 200.869 219.567 204.202C216.062 206.482 211.856 209.465 208.702 211.57C211.856 210.868 214.66 210.517 217.113 210.517Z" fill="black"/>
<path d="M246.027 234.551L243.048 233.148C246.202 225.955 242.347 221.043 242.172 220.692L244.625 218.587C244.8 218.938 250.057 225.429 246.027 234.551Z" fill="black"/>
<path d="M180.139 239.463C173.305 239.463 169.801 235.428 168.749 232.972L171.728 231.744L170.151 232.446L171.728 231.744C171.903 231.92 174.357 237.358 182.417 235.955L188.2 235.078L188.726 238.411L182.943 239.288C181.892 239.463 181.015 239.463 180.139 239.463Z" fill="black"/>
<path d="M239.543 96.6625C239.543 96.6625 258.118 108.767 269.158 115.434C269.158 115.434 269.157 120.521 277.393 128.942C283.527 135.257 291.062 141.397 291.062 141.397C291.062 141.397 288.959 153.678 292.288 156.134C294.566 157.888 294.917 154.73 294.917 152.625C294.917 152.274 295.442 152.099 295.618 152.45L297.545 157.362C298.947 159.993 301.751 164.028 304.554 162.975L306.833 161.572C306.833 161.572 312.089 149.818 302.452 137.889C302.452 137.889 287.206 118.065 283.877 112.978C280.548 107.89 253.737 81.2246 253.737 81.2246L233.76 82.4526L239.543 96.6625Z" fill="#805126" stroke="black" stroke-width="3" stroke-miterlimit="10"/>
<path d="M295.968 145.432H294.216V149.818H295.968V145.432Z" fill="#805126" stroke="black" stroke-width="3" stroke-miterlimit="10"/>
<path d="M239.543 96.6625C239.543 96.6625 258.118 108.767 269.158 115.434C269.158 115.434 269.157 120.521 277.393 128.942C283.527 135.257 291.062 141.397 291.062 141.397C291.062 141.397 288.959 153.678 292.288 156.134C294.566 157.888 294.917 154.73 294.917 152.625C294.917 152.274 295.442 152.099 295.618 152.45L297.545 157.362C298.947 159.993 301.751 164.028 304.554 162.975L306.833 161.572C306.833 161.572 312.089 149.818 302.452 137.889C302.452 137.889 287.206 118.065 283.877 112.978C280.548 107.89 253.737 81.2246 253.737 81.2246L233.76 82.4526L239.543 96.6625Z" fill="#805126"/>
<path d="M295.968 145.432H294.216V149.818H295.968V145.432Z" fill="black"/>
<path d="M178.913 105.259C179.088 113.153 176.81 120.346 176.81 120.346C166.997 127.187 156.658 119.819 153.329 117.012C152.628 116.486 152.453 115.609 152.628 114.732C153.504 110.522 155.081 97.0133 161.039 85.7857C165.245 78.0668 172.955 69.9969 179.263 66.6638C187.149 62.6288 189.952 59.6465 196.261 58.7694L207.476 57.3659C207.476 57.3659 224.123 56.3133 234.637 61.7517C242.172 65.6112 251.809 77.365 253.912 80.1719C254.263 80.5228 254.088 81.0491 253.562 81.2245C250.583 82.2771 240.77 86.4875 239.718 97.3642C239.718 97.8905 239.193 98.2413 238.667 97.8905C236.915 96.8379 233.235 94.3819 230.256 91.2241C229.905 90.8732 229.38 91.0487 229.555 91.575C230.081 98.4168 232.709 130.696 232.884 142.801C233.06 156.484 234.111 161.221 224.824 169.291C218.34 174.905 195.034 185.606 182.417 184.553C175.758 184.027 172.604 179.992 167.698 176.308C157.184 168.238 166.471 134.906 166.471 134.906L167.523 124.381L178.913 105.259Z" fill="#EEE5D3"/>
<path d="M230.957 103.68L229.204 92.9784V86.1366L225.7 85.9612C225.7 85.9612 229.204 138.59 227.452 149.116C225.7 159.642 218.69 172.098 202.043 180.694C202.043 180.694 236.214 171.922 234.461 147.362C232.709 122.802 230.957 103.68 230.957 103.68Z" fill="#91BFBF"/>
<path d="M184.52 186.308C183.819 186.308 183.293 186.308 182.592 186.308C176.81 185.781 173.48 182.975 169.976 179.992C169.1 179.115 168.048 178.413 166.997 177.536C155.957 169.115 164.544 137.187 165.244 134.556L166.296 124.731C159.812 124.03 154.38 119.995 152.277 118.24C151.226 117.363 150.7 115.784 150.875 114.381C151.051 113.679 151.226 112.802 151.401 111.574C152.452 105.609 154.38 94.5573 159.462 84.9086C163.843 76.8388 171.728 68.5935 178.387 65.0849C180.84 63.8569 182.768 62.6289 184.52 61.5763C188.375 59.2957 191.179 57.5414 195.91 57.0151L207.125 55.6116C208.001 55.6116 224.473 54.559 235.338 60.1728C244.099 64.734 254.788 78.4176 255.139 79.1194C255.665 79.6457 255.665 80.5228 255.489 81.2245C255.314 81.9263 254.788 82.4526 254.087 82.8034C251.284 83.856 242.172 87.7155 241.471 97.5396C241.471 98.4168 240.945 99.1185 240.244 99.4694C239.543 99.8202 238.667 99.8202 237.966 99.4694C236.564 98.5922 233.936 97.0133 231.658 94.7327C232.534 106.662 234.461 132.45 234.637 142.801C234.637 144.029 234.637 145.257 234.637 146.485C234.812 157.712 234.987 162.8 226.05 170.519C219.742 176.133 198.013 186.308 184.52 186.308ZM169.45 124.731L168.399 135.433C165.945 144.38 161.039 169.115 168.924 175.08C169.976 175.957 171.027 176.834 172.079 177.536C175.408 180.343 178.036 182.624 182.943 182.975C194.859 183.852 217.814 173.501 224.123 168.063C232.008 161.221 231.833 157.186 231.658 146.485C231.658 145.257 231.658 144.204 231.658 142.801C231.482 131.398 229.204 101.224 228.328 91.575C228.328 90.6978 228.679 89.8207 229.555 89.4698C230.431 89.1189 231.307 89.2944 232.008 89.9961C234.111 92.4521 236.915 94.3819 238.667 95.6099C240.244 86.1366 248.13 81.7508 251.985 79.9965C247.954 74.909 240.069 66.1375 234.111 63.1551C224.123 57.8922 208.001 58.9448 207.826 58.9448L196.611 60.3483C192.581 60.8745 190.127 62.278 186.448 64.5586C184.695 65.6112 182.592 66.8392 180.139 68.0672C174.181 71.0495 166.646 79.1194 162.616 86.4875C157.709 95.6099 155.782 106.311 154.906 112.1C154.73 113.328 154.555 114.381 154.38 115.083C154.38 115.258 154.38 115.609 154.555 115.609C158.06 118.591 166.997 124.731 175.583 119.118C176.109 117.363 177.686 111.399 177.511 105.259H180.49C180.665 113.328 178.387 120.521 178.212 120.872L178.036 121.398L177.511 121.749C174.882 123.503 172.079 124.556 169.45 124.731Z" fill="black"/>
<path d="M228.854 92.2767C226.751 89.8207 225.524 85.4349 225.524 85.2595L228.679 84.3823C228.679 84.3823 229.73 88.0664 231.307 90.1716L228.854 92.2767Z" fill="#150035"/>
<path d="M216.237 160.695C194.333 160.695 189.777 143.853 189.602 143.678L192.756 142.801C192.931 143.327 196.962 157.362 216.062 157.362L216.237 160.695Z" fill="#150035"/>
<path d="M203.27 150.871C186.623 137.187 190.478 122.977 190.653 122.451L193.807 123.328C193.632 123.854 190.478 136.135 205.373 148.415L203.27 150.871Z" fill="#150035"/>
<path d="M187.499 151.222C182.768 148.941 181.191 143.152 181.015 142.976L184.17 142.099C184.17 142.099 185.571 146.66 188.901 148.415L187.499 151.222Z" fill="#150035"/>
<path d="M209.753 64.2079C209.753 64.2079 219.566 82.4527 206.074 81.5755C194.158 80.8738 186.973 64.5587 186.973 64.5587C191.704 50.6997 188.375 36.4898 188.375 36.4898L189.777 31.7531L222.02 16.1398L224.298 31.4023C226.401 43.8579 224.122 56.8398 222.545 62.9799C222.02 65.2605 219.917 66.6639 217.639 66.313C208.352 65.2605 199.064 58.4186 199.064 58.4186L209.753 64.2079Z" fill="#805126"/>
<path d="M207.125 83.3298C206.774 83.3298 206.599 83.3298 206.249 83.3298C193.632 82.6281 186.097 65.9622 185.747 65.2604L185.571 64.7341L185.747 64.2078C190.303 51.0505 187.148 37.1915 187.148 37.016L186.973 36.6652L188.725 30.8759L223.597 13.8591L226.225 31.4022C228.328 43.8578 226.05 57.0152 224.473 63.6815C223.772 66.6639 220.968 68.5936 217.814 68.2428C216.237 68.0673 214.66 67.7165 213.258 67.3656C214.835 71.0497 216.412 76.8389 214.134 80.5229C212.557 82.2772 210.279 83.3298 207.125 83.3298ZM188.901 64.5587C190.303 67.3656 196.786 79.4703 206.249 80.1721C208.702 80.3475 210.279 79.8212 210.98 78.5932C212.908 75.6109 210.104 68.5936 208.702 65.6113C202.919 63.1553 198.539 59.9975 198.188 59.8221L200.116 57.1906C200.291 57.1906 209.228 63.6815 217.989 64.7341C219.391 64.9096 220.793 64.0324 221.144 62.629C222.721 56.138 224.999 43.6824 222.896 31.7531L220.968 18.5958L191.354 32.9811L190.303 36.6652C190.828 39.1212 193.106 51.7522 188.901 64.5587Z" fill="#15100C"/>
<path d="M178.212 38.0686L179.088 41.4018C179.789 43.6824 180.84 45.6122 182.592 47.3665L184.52 49.2962C186.272 51.0505 188.2 52.2785 190.478 52.9803L193.807 51.5768C193.807 51.5768 188.726 45.963 189.076 41.2264C189.426 36.8406 194.508 35.9635 196.961 40.1738C197.312 40.8755 197.838 41.2264 198.539 41.4018L202.569 42.1035C202.569 42.1035 198.363 35.2617 201.693 29.1216C204.847 23.157 222.37 22.1044 224.123 31.5777L224.999 38.5949C224.999 38.5949 234.111 25.7885 225.7 14.0346C217.288 2.2807 202.043 -2.28051 189.602 5.43845C188.375 6.14018 187.148 7.01733 186.272 8.06992C178.036 15.438 175.233 27.1919 178.212 38.0686Z" fill="black"/>
<path d="M190.653 54.7346L190.127 54.5591C187.499 53.8574 185.221 52.454 183.469 50.5242L181.541 48.5945C179.789 46.6647 178.387 44.3841 177.686 41.9281L176.81 38.5949C173.48 27.0165 176.985 14.5609 185.571 7.01733C186.623 5.96474 187.849 5.08759 189.251 4.38587C201.693 -3.50853 218.165 0.350951 227.627 13.3328C236.564 25.7885 226.926 39.6475 226.926 39.8229L224.473 43.3316L223.071 31.9285C222.37 28.2445 218.34 27.0165 216.062 26.6656C210.98 25.7885 205.197 27.5428 203.62 30.1742C200.817 35.2617 204.321 41.4018 204.321 41.5772L206.249 44.735L198.714 43.3316C197.662 43.1561 196.611 42.4544 195.91 41.2264C194.859 39.4721 193.457 39.1212 192.581 39.4721C191.705 39.6475 191.179 40.5247 191.004 41.5772C190.828 44.9104 193.983 49.2962 195.209 50.6997L196.786 52.454L190.653 54.7346ZM179.789 37.5423L180.665 40.8755C181.191 42.8053 182.242 44.735 183.644 46.1385L185.571 48.0682C186.973 49.4716 188.55 50.5242 190.303 51.0505L191.004 50.6997C189.427 48.4191 187.148 44.5596 187.324 40.8755C187.499 38.2441 189.076 36.3143 191.354 35.788C193.983 35.0863 196.611 36.4897 198.188 39.1212C198.188 39.2966 198.363 39.4721 198.714 39.6475L199.59 39.8229C198.539 37.016 197.838 32.4548 200.116 28.2445C202.569 23.8587 210.104 22.2798 215.887 23.157C221.319 24.0341 224.824 27.0165 225.524 31.2268L225.7 33.1566C227.452 28.7708 228.854 21.5781 224.123 14.9117C215.887 3.33328 201.167 -0.175342 190.303 6.8419C189.251 7.54362 188.025 8.42078 187.148 9.29793C179.964 15.9643 176.81 27.1919 179.789 37.5423Z" fill="black"/>
<path d="M194.158 215.254C192.055 212.096 192.756 212.272 193.983 212.973C195.034 213.675 196.436 213.149 196.786 211.745C197.312 209.289 197.312 205.781 193.807 203.675C188.025 200.342 186.798 200.518 179.964 191.922C173.13 183.325 168.574 167.887 166.121 162.625C166.121 162.625 174.357 131.398 174.181 121.398C164.368 124.731 157.008 119.819 154.38 117.89C154.205 119.118 148.422 143.327 147.195 165.256C147.195 165.256 151.226 177.01 161.039 189.115C170.677 201.219 175.233 211.745 175.233 211.745C175.233 211.745 175.583 224.727 189.251 227.709C202.394 230.516 197.838 220.868 194.158 215.254Z" fill="#39A1FF" stroke="black" stroke-width="3" stroke-miterlimit="10"/>
<path d="M194.158 215.254C192.055 212.096 192.756 212.272 193.983 212.973C195.034 213.675 196.436 213.149 196.786 211.745C197.312 209.289 197.312 205.781 193.807 203.675C188.025 200.342 186.798 200.518 179.964 191.922C173.13 183.325 168.574 167.887 166.121 162.625C166.121 162.625 174.357 131.398 174.181 121.398C164.368 124.731 157.008 119.819 154.38 117.89C154.205 119.118 148.422 143.327 147.195 165.256C147.195 165.256 151.226 177.01 161.039 189.115C170.677 201.219 175.233 211.745 175.233 211.745C175.233 211.745 175.583 224.727 189.251 227.709C202.394 230.516 197.838 220.868 194.158 215.254Z" fill="#805126"/>
<path d="M191.529 211.745C188.2 208.237 185.922 206.658 185.922 206.658L186.973 205.079C187.148 205.079 189.427 206.833 192.931 210.517L191.529 211.745Z" fill="black"/>
</svg>
